SplineFontDB: 3.2
FontName: Khaanaa-red
FullName: Khaanaa Red
FamilyName: Khaanaa
Weight: Regular
Copyright: Copyright 2024 The Khaanaa Font Authors
UComments: "2024-7-22: Created with FontForge (http://fontforge.org)"
Version: 0.001
ItalicAngle: 0
UnderlinePosition: -102
UnderlineWidth: 51
Ascent: 819
Descent: 205
InvalidEm: 0
UFOAscent: 819
UFODescent: -205
LayerCount: 2
Layer: 0 0 "Back" 1
Layer: 1 0 "public.default" 0 "glyphs"
StyleMap: 0x0040
FSType: 0
OS2Version: 0
OS2_WeightWidthSlopeOnly: 0
OS2_UseTypoMetrics: 0
CreationTime: 1732813800
ModificationTime: 1733028853
PfmFamily: 16
TTFWeight: 400
TTFWidth: 5
LineGap: 0
VLineGap: 0
OS2TypoAscent: 839
OS2TypoAOffset: 0
OS2TypoDescent: -210
OS2TypoDOffset: 0
OS2TypoLinegap: 0
OS2WinAscent: 839
OS2WinAOffset: 0
OS2WinDescent: 210
OS2WinDOffset: 0
HheadAscent: 839
HheadAOffset: 0
HheadDescent: -210
HheadDOffset: 0
OS2FamilyClass: 1283
OS2Vendor: 'anir'
MarkAttachClasses: 1
DEI: 91125
LangName: 1033 "" "" "" "" "" "Version 0.001" "" "" "" "" "" "" "" "Copyright 2024, The Khaanaa Font Authors+AAoA-This Font Software is licensed under the SIL Open Font License, Version 1.1.+AAoA-This license is available with a FAQ at:https://openfontlicense.org" "https://openfontlicense.org"
Encoding: Custom
UnicodeInterp: none
NameList: AGL For New Fonts
DisplaySize: -128
AntiAlias: 1
FitToEm: 0
WinInfo: 100 10 4
BeginPrivate: 0
EndPrivate
Grid
-512 296.96 m 1
 1536 296.96 l 1025
-512 581.632 m 1
 1536 581.632 l 1025
EndSplineSet
BeginChars: 65537 96

StartChar: A
Encoding: 65 65 0
GlifName: A_
Width: 752
VWidth: 0
GlyphClass: 2
Flags: HW
LayerCount: 2
Fore
SplineSet
207 -7.5 m 2
 55 -7.5 l 2
 50.8606375 -7.5 47.5 -4.1393625 47.5 0 c 0
 47.5 0.652932956853 47.583616489 1.28649034869 47.7407162601 1.89053896865 c 2
 247.74071626 770.890538969 l 2
 248.57957311 774.115943556 251.513570457 776.5 255 776.5 c 2
 407 776.5 l 2
 410.179473043 776.5 412.899507475 774.517263316 413.990047483 771.721845763 c 2
 713.990047483 2.72184576328 l 2
 714.319283756 1.87790344932 714.5 0.959889456973 714.5 -8.881784197e-16 c 0
 714.5 -4.1393625 711.1393625 -7.5 707 -7.5 c 2
 555 -7.5 l 2
 551.821060787 -7.5 549.10140592 -5.51792905952 548.010501956 -2.72325373792 c 2
 461.265459927 219.5 l 1
 271.80131819 219.5 l 1
 214.259575041 -1.88941855812 l 2
 213.421106318 -5.11539143989 210.486833225 -7.5 207 -7.5 c 2
466 235.5 m 0
 469.178939213 235.5 471.89859408 233.51792906 472.989498044 230.723253738 c 2
 560.12489095 7.5 l 1
 696.022236354 7.5 l 1
 401.873991881 761.5 l 1
 260.800386202 761.5 l 1
 64.7015565536 7.5 l 1
 201.19868181 7.5 l 1
 258.740424959 228.889418558 l 2
 259.578893682 232.11539144 262.513166775 234.5 266 234.5 c 2
 462.258105455 234.5 l 2
 463.359693169 235.135985992 464.637672026 235.5 466 235.5 c 0
412 359.5 m 2
 302 359.5 l 2
 297.8606375 359.5 294.5 362.8606375 294.5 367 c 0
 294.5 367.657370104 294.584756818 368.295100406 294.743929254 368.902849706 c 2
 338.743929254 536.902849706 l 2
 339.587042148 540.122008028 342.518007604 542.5 346 542.5 c 0
 349.173222232 542.5 351.888810581 540.525051732 352.983596627 537.738323616 c 2
 418.983596627 369.738323616 l 2
 419.316922441 368.889857908 419.5 367.966140268 419.5 367 c 0
 419.5 362.8606375 416.1393625 359.5 412 359.5 c 2
311.718721859 374.5 m 1
 400.99420481 374.5 l 1
 347.42891504 510.848010324 l 1
 311.718721859 374.5 l 1
EndSplineSet
EndChar

StartChar: exclam
Encoding: 33 33 1
GlifName: exclam
Width: 252
VWidth: 0
GlyphClass: 2
Flags: HW
LayerCount: 2
Fore
SplineSet
47.5 258 m 2
 47.5 772 l 2
 47.5 776.1393625 50.8606375 779.5 55 779.5 c 2
 207 779.5 l 2
 211.1393625 779.5 214.5 776.1393625 214.5 772 c 2
 214.5 258 l 2
 214.5 253.8606375 211.1393625 250.5 207 250.5 c 2
 55 250.5 l 2
 50.8606375 250.5 47.5 253.8606375 47.5 258 c 2
62.5 764.5 m 1
 62.5 265.5 l 1
 199.5 265.5 l 1
 199.5 764.5 l 1
 62.5 764.5 l 1
47.5 -2 m 2
 47.5 140 l 2
 47.5 144.1393625 50.8606375 147.5 55 147.5 c 2
 207 147.5 l 2
 211.1393625 147.5 214.5 144.1393625 214.5 140 c 2
 214.5 -2 l 2
 214.5 -6.1393625 211.1393625 -9.5 207 -9.5 c 2
 55 -9.5 l 2
 50.8606375 -9.5 47.5 -6.1393625 47.5 -2 c 2
62.5 132.5 m 1
 62.5 5.5 l 1
 199.5 5.5 l 1
 199.5 132.5 l 1
 62.5 132.5 l 1
EndSplineSet
EndChar

StartChar: quotedbl
Encoding: 34 34 2
GlifName: quotedbl
Width: 452
VWidth: 0
GlyphClass: 2
Flags: HW
LayerCount: 2
Fore
SplineSet
247.5 532 m 2
 247.5 789 l 2
 247.5 793.1393625 250.8606375 796.5 255 796.5 c 2
 407 796.5 l 2
 411.1393625 796.5 414.5 793.1393625 414.5 789 c 2
 414.5 532 l 2
 414.5 527.8606375 411.1393625 524.5 407 524.5 c 2
 255 524.5 l 2
 250.8606375 524.5 247.5 527.8606375 247.5 532 c 2
262.5 781.5 m 1
 262.5 539.5 l 1
 399.5 539.5 l 1
 399.5 781.5 l 1
 262.5 781.5 l 1
47.5 532 m 2
 47.5 789 l 2
 47.5 793.1393625 50.8606375 796.5 55 796.5 c 2
 207 796.5 l 2
 211.1393625 796.5 214.5 793.1393625 214.5 789 c 2
 214.5 532 l 2
 214.5 527.8606375 211.1393625 524.5 207 524.5 c 2
 55 524.5 l 2
 50.8606375 524.5 47.5 527.8606375 47.5 532 c 2
62.5 781.5 m 1
 62.5 539.5 l 1
 199.5 539.5 l 1
 199.5 781.5 l 1
 62.5 781.5 l 1
EndSplineSet
EndChar

StartChar: quotesingle
Encoding: 39 39 3
GlifName: quotesingle
Width: 252
VWidth: 0
GlyphClass: 2
Flags: HW
LayerCount: 2
Fore
SplineSet
47.5 532 m 2
 47.5 789 l 2
 47.5 793.1393625 50.8606375 796.5 55 796.5 c 2
 207 796.5 l 2
 211.1393625 796.5 214.5 793.1393625 214.5 789 c 2
 214.5 532 l 2
 214.5 527.8606375 211.1393625 524.5 207 524.5 c 2
 55 524.5 l 2
 50.8606375 524.5 47.5 527.8606375 47.5 532 c 2
62.5 781.5 m 1
 62.5 539.5 l 1
 199.5 539.5 l 1
 199.5 781.5 l 1
 62.5 781.5 l 1
EndSplineSet
EndChar

StartChar: namaste
Encoding: 65536 -1 4
Width: 1024
Flags: HW
LayerCount: 2
Fore
SplineSet
225 81.8250376358 m 1025
716.718980138 322.835693853 m 0
 716.718980138 361.436247868 710.059528174 392.103351982 697.232909779 420.452418083 c 2
 561.83068164 738.172084659 l 1
 562.117412638 100.270577712 l 1
 749.606020393 -162.863227287 l 1
 871.629196289 -23.8321811207 l 1
 671.559536118 142.00634294 l 1
 681.185208612 164.973134434 690.161134857 186.019479263 697.860507376 212.040420144 c 0
 705.498633639 237.854372057 716.718980138 284.27795075 716.718980138 322.835693853 c 0
EndSplineSet
EndChar

StartChar: numbersign
Encoding: 35 35 6
Width: 644
VWidth: 0
Flags: HW
LayerCount: 2
Fore
SplineSet
449 699.5 m 2
 601 699.5 l 2
 605.1393625 699.5 608.5 696.1393625 608.5 692 c 0
 608.5 691.552330456 608.460693005 691.113769106 608.385344996 690.687581933 c 2
 512.385344996 147.687581933 l 2
 511.76398999 144.17304268 508.691692956 141.5 505 141.5 c 2
 353 141.5 l 2
 348.8606375 141.5 345.5 144.8606375 345.5 149 c 0
 345.5 149.447669544 345.539306995 149.886230894 345.614655004 150.312418067 c 2
 441.614655004 693.312418067 l 2
 442.23601001 696.82695732 445.308307044 699.5 449 699.5 c 2
592.056658439 684.5 m 1
 455.291407859 684.5 l 1
 361.943341561 156.5 l 1
 498.708592141 156.5 l 1
 592.056658439 684.5 l 1
606.5 618 m 2
 606.5 466 l 2
 606.5 461.8606375 603.1393625 458.5 599 458.5 c 2
 55 458.5 l 2
 50.8606375 458.5 47.5 461.8606375 47.5 466 c 2
 47.5 618 l 2
 47.5 622.1393625 50.8606375 625.5 55 625.5 c 2
 599 625.5 l 2
 603.1393625 625.5 606.5 622.1393625 606.5 618 c 2
591.5 473.5 m 1
 591.5 610.5 l 1
 62.5 610.5 l 1
 62.5 473.5 l 1
 591.5 473.5 l 1
606.5 368 m 2
 606.5 216 l 2
 606.5 211.8606375 603.1393625 208.5 599 208.5 c 2
 55 208.5 l 2
 50.8606375 208.5 47.5 211.8606375 47.5 216 c 2
 47.5 368 l 2
 47.5 372.1393625 50.8606375 375.5 55 375.5 c 2
 599 375.5 l 2
 603.1393625 375.5 606.5 372.1393625 606.5 368 c 2
591.5 223.5 m 1
 591.5 360.5 l 1
 62.5 360.5 l 1
 62.5 223.5 l 1
 591.5 223.5 l 1
149 699.5 m 2
 301 699.5 l 2
 305.1393625 699.5 308.5 696.1393625 308.5 692 c 0
 308.5 691.552330456 308.460693005 691.113769106 308.385344996 690.687581933 c 2
 212.385344996 147.687581933 l 2
 211.76398999 144.17304268 208.691692956 141.5 205 141.5 c 2
 53 141.5 l 2
 48.8606375 141.5 45.5 144.8606375 45.5 149 c 0
 45.5 149.447669544 45.5393069953 149.886230894 45.6146550038 150.312418067 c 2
 141.614655004 693.312418067 l 2
 142.23601001 696.82695732 145.308307044 699.5 149 699.5 c 2
292.056658439 684.5 m 1
 155.291407859 684.5 l 1
 61.9433415606 156.5 l 1
 198.708592141 156.5 l 1
 292.056658439 684.5 l 1
EndSplineSet
EndChar

StartChar: dollar
Encoding: 36 36 7
Width: 512
VWidth: 0
Flags: HW
LayerCount: 2
Fore
SplineSet
253 1037.5 m 2
 332 1037.5 l 2
 336.1393625 1037.5 339.5 1034.1393625 339.5 1030 c 2
 339.5 -182 l 2
 339.5 -186.1393625 336.1393625 -189.5 332 -189.5 c 2
 253 -189.5 l 2
 248.8606375 -189.5 245.5 -186.1393625 245.5 -182 c 2
 245.5 1030 l 2
 245.5 1034.1393625 248.8606375 1037.5 253 1037.5 c 2
324.5 1022.5 m 1
 260.5 1022.5 l 1
 260.5 -174.5 l 1
 324.5 -174.5 l 1
 324.5 1022.5 l 1
135 189.5 m 0
 136.684987061 189.5 138.240938287 188.943137609 139.493700723 188.003565782 c 0
 144.563494324 184.201220581 151.731462811 179.305687807 160.899026126 173.40917752 c 0
 177.236811091 163.981488248 194.043853382 159.375000246 211.61328125 159.375 c 0
 219.630442429 159.375 227.852246256 160.341572186 236.296923034 162.305450507 c 0
 263.170867677 168.555205075 282.472041508 182.788231152 295.462917359 205.676917176 c 0
 301.917243439 217.118677045 304.908602151 227.748141814 304.908602151 237.672100821 c 0
 304.908602151 248.699494711 301.274801987 259.36964557 293.442408201 270.079245237 c 0
 278.269910179 290.82531396 257.757621614 303.207203562 230.7877928 307.597640811 c 0
 229.930672802 307.737171974 229.12213154 308.022199244 228.388380716 308.426510923 c 0
 195.272351365 326.674118933 166.437763204 347.009709387 141.934842894 369.470719671 c 0
 117.324697569 392.030019552 97.7415985821 417.432353744 83.3201993718 445.588418869 c 0
 70.5241279382 470.571225001 64.125 497.755562195 64.125 526.875 c 0
 64.125 531.034331069 64.2549781159 535.230893173 64.5141783772 539.464497441 c 0
 66.6022774693 573.570115945 78.4281432272 608.078968879 99.5887555346 642.891589127 c 0
 137.887361898 705.810728152 194.621970102 748.714099033 268.826380142 771.179654367 c 0
 292.704399629 778.408779533 315.652199102 782.072815534 337.662550665 782.072815534 c 0
 384.413251234 782.072815534 426.441714853 765.397036992 463.006126728 732.582821206 c 0
 466.6799973 729.285757873 480.633832698 720.970689177 484.302260938 717.302260938 c 0
 485.659840625 715.94468125 486.5 714.06968125 486.5 712 c 0
 486.5 710.592585893 486.11149327 709.275196344 485.435965973 708.149317516 c 2
 410.435965973 583.149317516 l 2
 409.124691839 580.963860627 406.731948393 579.5 404 579.5 c 0
 402.1763224 579.5 400.503796601 580.152305251 399.203215615 581.236122739 c 0
 381.060640011 596.354935742 356.570973137 608.5 329.333333333 608.5 c 0
 320.875654981 608.5 312.206069245 607.418097422 303.302316768 605.218346811 c 0
 276.730184132 598.653466983 257.093091042 584.118911188 243.408224422 561.10345369 c 0
 234.898907451 547.148173858 230.763736264 532.735567413 230.763736264 517.529887695 c 0
 230.763736264 505.050553136 233.579572928 491.855011312 239.422257973 477.889569009 c 0
 252.281284531 447.153359188 272.790034055 430.306108634 302.240020465 425.397777566 c 0
 303.046574041 425.26335197 303.809753798 425.000025362 304.507638044 424.629719436 c 0
 337.489270476 407.129261411 365.209832534 389.403478595 387.690765535 371.350608155 c 0
 410.245397161 353.238555486 429.915936909 332.197368429 446.648415583 308.293827466 c 0
 462.90057349 285.076459027 471.086538462 258.818283708 471.086538462 230.046967456 c 0
 471.086538462 228.286685371 471.056175462 226.517806092 470.995580768 224.74036173 c 0
 469.940002757 193.776740085 458.893798823 160.927175007 438.455184331 126.181530371 c 0
 414.444266517 85.7059831988 380.274016481 52.2818152681 336.335984275 26.0552379047 c 0
 291.98572918 -0.417394981383 246.911971619 -14.0050505051 200.157841037 -14.0050505051 c 0
 154.399747349 -14.0050505051 112.772373173 3.04394151587 75.9630544388 36.4449899966 c 0
 72.3145613288 39.7556596705 58.3546085439 48.0408695811 54.6977390625 51.6977390625 c 0
 53.340159375 53.05531875 52.5 54.93031875 52.5 57 c 0
 52.5 58.4074141066 52.8885067303 59.7248036557 53.5640340271 60.8506824837 c 2
 128.564034027 185.850682484 l 2
 129.875308161 188.036139373 132.268051607 189.5 135 189.5 c 0
456.086538462 230.046967456 m 0
 456.086538462 255.905335622 448.881477792 278.949181998 434.351584417 299.706172534 c 0
 418.417396424 322.469298237 399.754602839 342.428111181 378.309234465 359.649391845 c 0
 357.023311614 376.742632922 330.427310484 393.829762893 298.541982828 410.812290466 c 1
 264.618285042 416.861160045 239.881413542 437.921168145 225.577742027 472.110430991 c 0
 219.105408757 487.580886124 215.763736264 502.738602763 215.763736264 517.529887695 c 0
 215.763736264 535.581061013 220.786074234 552.815196105 230.591775578 568.89654631 c 0
 246.240242291 595.214422145 269.603149201 612.346533017 299.697683232 619.781653189 c 0
 309.682819644 622.248569244 319.568789464 623.5 329.333333333 623.5 c 0
 348.82596307 623.5 367.631191065 618.483259184 385.486101886 608.64276121 c 0
 390.762318866 605.991595346 396.234305121 602.501074416 401.966061529 598.187394988 c 1
 469.166972364 710.188913045 l 1
 463.890495482 713.773857218 456.314742059 718.135211866 452.85484981 721.541841519 c 0
 418.774911894 752.074210759 352.34894972 761.267861047 337.662550665 767.072815534 c 1
 317.352608137 767.072815534 295.858707167 763.688307846 273.173619858 756.820345633 c 0
 202.044696565 735.285900967 148.779304769 694.855938515 112.411244465 635.108410873 c 0
 92.2385234395 601.921031121 81.3977225307 569.763217388 79.4858216228 538.535502559 c 0
 79.2450218841 534.602440161 79.125 530.715668931 79.125 526.875 c 0
 79.125 499.994437805 84.9758720618 475.262108332 96.6798006282 452.411581131 c 0
 110.258401418 425.900979589 128.675302431 401.969980448 152.065157106 380.529280329 c 0
 175.292479364 359.23756826 202.755836179 339.777641323 234.503744077 322.185662179 c 1
 264.270619007 317.041909074 288.312151139 302.501255391 305.557591799 278.920754763 c 0
 314.936667547 266.096304251 319.908602151 252.214522324 319.908602151 237.672100821 c 0
 319.908602151 224.635409271 315.960892762 211.483473493 308.537082641 198.323082824 c 0
 293.527958492 171.878435514 270.162465656 154.778128258 239.703076966 147.694549493 c 0
 230.231087077 145.491761147 220.861745071 144.375 211.61328125 144.375 c 0
 191.251854405 144.375 171.698910814 149.823737946 153.250265842 160.504532404 c 0
 147.0214604 164.110682923 141.69491745 168.038997718 137.235071646 171.147826972 c 1
 69.8330276362 58.8110869552 l 1
 75.117312617 55.2208378034 82.7008628445 50.8547079907 86.1610763155 47.4424577657 c 0
 120.591142254 16.2459769774 158.36177644 0.994950914411 200.157841037 0.994949494949 c 0
 243.897563641 0.994949494949 286.270280899 13.6399746407 328.664015725 38.9447620953 c 0
 370.725983519 64.0515180652 402.889066816 95.6273501345 425.544815669 133.818469629 c 0
 445.106201177 167.072824993 455.059997243 197.556593249 456.004419232 225.25963827 c 0
 456.059209153 226.866809293 456.086538462 228.462574984 456.086538462 230.046967456 c 0
EndSplineSet
EndChar

StartChar: percent
Encoding: 37 37 8
Width: 691
VWidth: 0
Flags: HW
LayerCount: 2
Fore
SplineSet
211 475.5 m 2
 200 475.5 l 2
 199.800275823 475.5 199.602364565 475.507823769 199.40655625 475.523181284 c 0
 163.708285316 478.323045671 133.289263625 492.705242869 109.049417861 518.350297083 c 0
 84.7803733556 544.026242719 72.5 575.221612933 72.5 611 c 0
 72.5 646.80788379 84.9678581106 678.16348345 109.551447132 704.151848986 c 0
 134.075704037 730.077492 164.301652119 744.668435574 199.394841641 747.475890736 c 0
 199.594469979 747.491861003 199.796292008 747.5 200 747.5 c 2
 211 747.5 l 2
 248.832555032 747.5 281.444918017 734.159603858 307.802260938 707.802260938 c 0
 334.159603858 681.444918017 347.5 648.832555032 347.5 611 c 0
 347.5 573.794105402 334.130929199 541.526407324 307.802260938 515.197739062 c 0
 281.444918017 488.840396142 248.832555032 475.5 211 475.5 c 2
200.301542012 490.5 m 1
 211 490.5 l 2
 245.167444968 490.5 273.555081983 502.159603858 297.197739062 525.802260938 c 0
 320.869070801 549.473592676 332.5 577.539227931 332.5 611 c 0
 332.5 645.167444968 320.840396142 673.555081983 297.197739062 697.197739062 c 0
 273.555081983 720.840396142 245.167444968 732.5 211 732.5 c 2
 200.307726211 732.5 l 1
 168.86558551 729.91806004 142.521397604 717.182301163 120.448552868 693.848151014 c 0
 98.3654752227 670.503183217 87.5 643.19211621 87.5 611 c 0
 87.5 578.778387067 98.2196266444 551.640423948 119.950582139 528.649702917 c 0
 141.645154556 505.697474128 168.131536362 493.086438468 200.301542012 490.5 c 1
222 671.5 m 0
 222.531454885 671.5 223.05007317 671.444602833 223.550390482 671.339272873 c 0
 250.420652671 665.68237557 271.5 642.617896863 271.5 611 c 0
 271.5 596.761454501 267.078156797 583.813311691 258.379143547 572.844990637 c 0
 249.618869756 561.79942803 237.728009018 554.645488924 223.550390482 551.660727127 c 0
 223.05007317 551.555397167 222.531454885 551.5 222 551.5 c 0
 221.27202437 551.5 220.568133975 551.603941368 219.902372846 551.797780055 c 0
 216.096058688 550.964489782 212.915779252 550.500000023 210 550.5 c 0
 207.084220722 550.5 203.903941261 550.964489766 200.097627067 551.79778005 c 0
 199.43186596 551.603941359 198.727975596 551.5 198 551.5 c 0
 197.468545115 551.5 196.94992683 551.555397167 196.449609518 551.660727127 c 0
 182.271990982 554.645488924 170.381130244 561.79942803 161.620856453 572.844990637 c 0
 152.921843203 583.813311691 148.5 596.761454501 148.5 611 c 0
 148.5 642.607901757 169.585868237 665.683748393 196.449609518 671.339272873 c 0
 196.94992683 671.444602833 197.468545115 671.5 198 671.5 c 0
 198.72797563 671.5 199.431866025 671.396058632 200.097627154 671.202219945 c 0
 203.903941312 672.035510218 207.084220748 672.499999977 210 672.5 c 0
 212.915779278 672.5 216.096058739 672.035510234 219.902372933 671.20221995 c 0
 220.56813404 671.396058641 221.272024404 671.5 222 671.5 c 0
224.039154073 567.218985485 m 0
 242.186946317 572.328943363 256.5 589.007475709 256.5 611 c 0
 256.5 633.953744338 242.625668639 650.547523485 224.03915419 655.781014518 c 0
 223.390699532 655.597954235 222.706698715 655.5 222 655.5 c 0
 221.371601889 655.5 220.761150575 655.577450547 220.177679343 655.723318355 c 0
 215.143176511 656.981944063 211.470381695 657.5 210 657.5 c 0
 208.529618305 657.5 204.856823489 656.981944063 199.822320657 655.723318355 c 0
 199.238849425 655.577450547 198.628398111 655.5 198 655.5 c 0
 197.293301322 655.5 196.609300547 655.597954255 195.960845927 655.781014515 c 0
 177.367724734 650.545663303 163.5 633.954986798 163.5 611 c 0
 163.5 589.011860666 177.822248573 572.32635439 195.96084581 567.218985482 c 0
 196.609300468 567.402045765 197.293301285 567.5 198 567.5 c 0
 198.628398111 567.5 199.238849425 567.422549453 199.822320657 567.276681645 c 0
 204.856823489 566.018055937 208.529618305 565.5 210 565.5 c 0
 211.470381695 565.5 215.143176511 566.018055937 220.177679343 567.276681645 c 0
 220.761150575 567.422549453 221.371601889 567.5 222 567.5 c 0
 222.706698678 567.5 223.390699453 567.402045745 224.039154073 567.218985485 c 0
516 74.5 m 2
 505 74.5 l 2
 504.800275823 74.5 504.602364565 74.5078237692 504.40655625 74.5231812841 c 0
 468.708285316 77.323045671 438.289263625 91.7052428689 414.049417861 117.350297083 c 0
 389.780373356 143.026242719 377.5 174.221612933 377.5 210 c 0
 377.5 245.80788379 389.967858111 277.16348345 414.551447132 303.151848986 c 0
 439.075704037 329.077492 469.301652119 343.668435574 504.394841641 346.475890736 c 0
 504.594469979 346.491861003 504.796292008 346.5 505 346.5 c 2
 516 346.5 l 2
 553.832555032 346.5 586.444918017 333.159603858 612.802260938 306.802260938 c 0
 639.159603858 280.444918017 652.5 247.832555032 652.5 210 c 0
 652.5 172.794105402 639.130929199 140.526407324 612.802260938 114.197739063 c 0
 586.444918017 87.8403961415 553.832555032 74.5 516 74.5 c 2
505.301542012 89.5 m 1
 516 89.5 l 2
 550.167444968 89.5 578.555081983 101.159603858 602.197739062 124.802260937 c 0
 625.869070801 148.473592676 637.5 176.539227931 637.5 210 c 0
 637.5 244.167444968 625.840396142 272.555081983 602.197739062 296.197739062 c 0
 578.555081983 319.840396142 550.167444968 331.5 516 331.5 c 2
 505.307726211 331.5 l 1
 473.86558551 328.91806004 447.521397604 316.182301163 425.448552868 292.848151014 c 0
 403.365475223 269.503183217 392.5 242.19211621 392.5 210 c 0
 392.5 177.778387067 403.219626644 150.640423948 424.950582139 127.649702917 c 0
 446.645154556 104.697474128 473.131536362 92.0864384681 505.301542012 89.5 c 1
576.5 210 m 0
 576.5 195.761454501 572.078156797 182.813311691 563.379143547 171.844990637 c 0
 554.618869756 160.79942803 542.728009018 153.645488924 528.550390482 150.660727127 c 0
 528.05007317 150.555397167 527.531454885 150.5 527 150.5 c 0
 526.27202437 150.5 525.568133975 150.603941368 524.902372846 150.797780055 c 0
 521.096058688 149.964489782 517.915779252 149.500000023 515 149.5 c 0
 512.084220722 149.5 508.903941261 149.964489766 505.097627067 150.79778005 c 0
 504.43186596 150.603941359 503.727975596 150.5 503 150.5 c 0
 502.468545115 150.5 501.94992683 150.555397167 501.449609518 150.660727127 c 0
 487.271990982 153.645488924 475.381130244 160.79942803 466.620856453 171.844990637 c 0
 457.921843203 182.813311691 453.5 195.761454501 453.5 210 c 0
 453.5 241.607901757 474.585868237 264.683748393 501.449609518 270.339272873 c 0
 501.94992683 270.444602833 502.468545115 270.5 503 270.5 c 0
 503.72797563 270.5 504.431866025 270.396058632 505.097627154 270.202219945 c 0
 508.903941312 271.035510218 512.084220748 271.499999977 515 271.5 c 0
 517.915779278 271.5 521.096058739 271.035510234 524.902372933 270.20221995 c 0
 525.56813404 270.396058641 526.272024404 270.5 527 270.5 c 0
 527.531454885 270.5 528.05007317 270.444602833 528.550390482 270.339272873 c 0
 555.420652671 264.68237557 576.5 241.617896863 576.5 210 c 0
529.039154073 166.218985485 m 0
 547.186946317 171.328943363 561.5 188.007475709 561.5 210 c 0
 561.5 232.953744338 547.625668639 249.547523485 529.03915419 254.781014518 c 0
 528.390699532 254.597954235 527.706698715 254.5 527 254.5 c 0
 526.371601889 254.5 525.761150575 254.577450547 525.177679343 254.723318355 c 0
 520.143176511 255.981944063 516.470381695 256.5 515 256.5 c 0
 513.529618305 256.5 509.856823489 255.981944063 504.822320657 254.723318355 c 0
 504.238849425 254.577450547 503.628398111 254.5 503 254.5 c 0
 502.293301322 254.5 501.609300547 254.597954255 500.960845927 254.781014515 c 0
 482.367724734 249.545663303 468.5 232.954986798 468.5 210 c 0
 468.5 188.011860666 482.822248573 171.32635439 500.96084581 166.218985482 c 0
 501.609300468 166.402045765 502.293301285 166.5 503 166.5 c 0
 503.628398111 166.5 504.238849425 166.422549453 504.822320657 166.276681645 c 0
 509.856823489 165.018055937 513.529618305 164.5 515 164.5 c 0
 516.470381695 164.5 520.143176511 165.018055937 525.177679343 166.276681645 c 0
 525.761150575 166.422549453 526.371601889 166.5 527 166.5 c 0
 527.706698678 166.5 528.390699453 166.402045745 529.039154073 166.218985485 c 0
653.5 757 m 0
 653.5 755.637581332 653.135937524 754.359523013 652.499872979 753.25788545 c 2
 167.499872979 -86.7421145499 l 2
 166.203417229 -88.9875224452 163.776943832 -90.5 161 -90.5 c 0
 159.64141661 -90.5 158.36671928 -90.1379843476 157.267193141 -89.5052381728 c 2
 51.2671931406 -28.5052381728 l 2
 49.0166582502 -27.2101190378 47.5 -24.7807791102 47.5 -22 c 0
 47.5 -20.6375813319 47.8640624764 -19.3595230126 48.5001270215 -18.2578854501 c 2
 533.500127021 821.74211455 l 2
 534.796582771 823.987522445 537.223056168 825.5 540 825.5 c 0
 541.35858339 825.5 542.63328072 825.137984348 543.732806859 824.505238173 c 2
 649.732806859 763.505238173 l 2
 651.98334175 762.210119038 653.5 759.78077911 653.5 757 c 0
635.74920814 754.245677724 m 1
 542.750359651 807.763882986 l 1
 65.2507918602 -19.2456777239 l 1
 158.249640349 -72.7638829862 l 1
 635.74920814 754.245677724 l 1
EndSplineSet
EndChar

StartChar: ampersand
Encoding: 38 38 9
Width: 649
VWidth: 0
Flags: HW
LayerCount: 2
Fore
SplineSet
205.256756757 529.002921841 m 0
 205.256756757 527.436752009 205.287276255 525.854440377 205.348536014 524.255985861 c 1
 222.757831373 506.846690502 l 1
 253.612681335 519.276424437 286.073511188 525.5 320 525.5 c 0
 328.862765547 525.5 337.723851203 525.159103565 346.582173149 524.477694184 c 0
 350.449916513 524.180175464 353.5 520.943469533 353.5 517 c 2
 353.5 376.104521875 l 1
 457.515888729 272.088633146 l 1
 496.70642491 303.977211414 525.609427984 327.277396563 544.268928645 342.023146027 c 0
 555.619727623 350.993163016 560.250834903 355.032492259 568.323190297 360.380060485 c 0
 569.23111097 360.981516629 571.19006287 362.5 574 362.5 c 0
 578.1393625 362.5 581.5 359.1393625 581.5 355 c 2
 581.5 202 l 2
 581.5 198.474836988 579.062676608 195.514449158 575.78272923 194.713534397 c 0
 573.858796095 193.635103741 565.303208588 187.579444222 552.255225219 177.349296656 c 1
 610.302260938 119.302260937 l 2
 611.659840625 117.94468125 612.5 116.06968125 612.5 114 c 0
 612.5 111.93031875 611.659840625 110.05531875 610.302260938 108.697739063 c 2
 492.302260938 -9.3022609375 l 2
 490.94468125 -10.659840625 489.06968125 -11.5 487 -11.5 c 0
 484.91257292 -11.5 483.023179869 -10.6453714958 481.662932966 -9.26722660648 c 2
 410.420847429 62.9122547919 l 1
 380.848201967 39.1526775946 358.896474842 21.8195742271 344.485937054 10.8550346053 c 0
 335.513451161 4.02814316494 331.824903764 0.707187100598 324.92062978 -3.05206757224 c 0
 324.000230407 -3.55320869885 323.362052988 -4.5 320 -4.5 c 0
 246.814269561 -4.5 183.885786563 21.3519377363 132.215518997 72.6800180994 c 0
 80.5343715927 124.018906249 54.5 186.799928901 54.5 260 c 0
 54.5 306.004168844 65.5765804742 349.020555457 87.6530752523 388.742402873 c 1
 75.6977390625 400.697739062 l 2
 75.2048363634 401.190641762 74.7801416468 401.751752443 74.4391017342 402.365624286 c 0
 60.690528539 427.113056037 52.0268963416 452.69870995 48.5643760467 479.013864191 c 0
 47.4102037249 487.785573836 46.8333333333 496.653253714 46.8333333333 505.611111111 c 0
 46.8333333333 523.527408104 49.1410448095 541.764243955 53.7181025538 560.301327819 c 0
 60.4553736807 587.587275883 68.384786699 612.740311239 77.5263483989 635.763503668 c 0
 86.6682206693 658.787478275 99.3059691766 685.386757472 115.400648856 715.564281872 c 0
 125.648023777 734.482512494 151.686933871 751.988147467 192.356397013 770.810378342 c 0
 233.127065426 789.679448021 274.119207163 803.854859208 315.317924728 813.310302583 c 0
 339.34842528 818.825499432 358.350741304 821.666666667 372.854166667 821.666666667 c 0
 383.144760141 821.666666667 391.513525883 820.398151377 397.967053741 816.364696465 c 0
 400.087947875 815.039137631 401.57004538 812.682255428 401.502423955 809.999938892 c 2
 398.497579525 690.807776508 l 2
 398.399008904 686.897808531 395.301897937 683.727246433 391.421844307 683.511687898 c 0
 382.595955463 683.02136074 354.821901118 671.602455361 312.069210927 648.403321149 c 0
 269.323212569 625.207818164 242.896838348 608.292316473 234.302260937 599.697739062 c 0
 214.822673256 580.218151381 205.256756757 556.995006663 205.256756757 529.002921841 c 0
372.854166667 806.666666667 m 0
 360.329814252 806.666666667 342.096019164 804.063389457 318.682075272 798.689697417 c 0
 278.547459503 789.478474125 238.539601241 775.653885312 198.643602987 757.189621658 c 0
 158.646399462 738.6785192 135.685309557 721.517487506 128.599351144 708.435718128 c 0
 112.694030823 678.613242528 100.331779331 652.545855058 91.4736516011 630.236496332 c 0
 82.615213301 607.926355428 74.8779596527 583.412724117 68.2818974462 556.698672181 c 0
 63.9700663016 539.235756045 61.8333333333 522.213332637 61.8333333333 505.611111111 c 0
 61.8333333333 497.309709249 62.3675740528 489.103315053 63.4356239533 480.986135809 c 0
 66.5977636148 456.953874382 74.4337882839 433.50971711 87.0553594644 410.549162411 c 1
 102.302260937 395.302260938 l 2
 103.659840625 393.94468125 104.5 392.06968125 104.5 390 c 0
 104.5 388.625661432 104.129539238 387.33716582 103.483115653 386.229011104 c 0
 80.7987638005 347.341550785 69.5 305.381014257 69.5 260 c 0
 69.5 190.533404433 93.7989617407 131.981093751 142.784481003 83.3199819006 c 0
 191.40526413 35.0211907148 249.619039504 10.871688813 318.403930301 10.5042578744 c 1
 325.514803174 14.837596449 355.658003821 38.0967486879 406.30363553 78.8461076542 c 0
 407.589366123 79.8806035339 409.222919964 80.5 411 80.5 c 0
 413.08742708 80.5 414.976820131 79.6453714958 416.337067034 78.2672266065 c 2
 487.03476942 6.63929129492 l 1
 594.395478125 114 l 1
 535.697739062 172.697739063 l 2
 534.340159375 174.05531875 533.5 175.93031875 533.5 178 c 0
 533.5 180.369856993 534.601536841 182.484466499 536.320095155 183.859313151 c 0
 550.312405555 195.053161471 556.626602446 200.473163381 566.5 206.652347319 c 1
 566.5 340.362267425 l 1
 549.683171697 327.384574723 514.523754147 299.163640172 461.730245486 256.181314537 c 0
 460.43938919 255.130351889 458.792726985 254.5 457 254.5 c 0
 454.93031875 254.5 453.05531875 255.340159375 451.697739062 256.697739062 c 2
 340.697739062 367.697739062 l 2
 339.340159375 369.05531875 338.5 370.93031875 338.5 373 c 2
 338.5 509.98205031 l 1
 332.332164637 510.327399401 320.172553118 510.499975388 320 510.5 c 0
 286.316446189 510.504804523 254.347760962 504.038524955 223.931338779 491.095366579 c 0
 223.030665748 490.71210146 222.039906889 490.5 221 490.5 c 0
 218.93031875 490.5 217.05531875 491.340159375 215.697739063 492.697739062 c 2
 192.697739063 515.697739062 l 2
 189.945468564 518.450009561 190.256756757 523.831900651 190.256756757 529.002921841 c 0
 190.256756757 560.682616906 201.519669086 588.124190961 223.697739063 610.302260938 c 0
 235.103161652 621.707683527 261.676787431 638.125515169 304.930789073 661.596678851 c 0
 342.259646916 681.852648223 367.652177956 693.997942471 383.661059188 697.484892447 c 1
 386.374896894 805.133788123 l 1
 383.290911185 806.013790886 378.783376149 806.666666667 372.854166667 806.666666667 c 0
205.5 260 m 0
 205.5 268.225157934 205.5 279.5 214 279.5 c 0
 216.08164221 279.5 217.96634649 278.650101782 219.325745926 277.278672263 c 2
 332.325745926 163.278672263 l 2
 333.669523348 161.923003006 334.5 160.05772029 334.5 158 c 0
 334.5 152.773996505 328.593657562 149.930009723 325.491702007 148.218585969 c 0
 324.312341014 147.567904042 323.699725512 146.5 320 146.5 c 0
 288.184552993 146.5 260.734126882 157.661351243 238.697739063 179.697739063 c 0
 216.695898476 201.699579649 205.5 228.803228235 205.5 260 c 0
220.621661619 254.668190921 m 1
 221.781107666 229.550161893 231.235196199 208.369325676 249.302260937 190.302260937 c 0
 266.920998366 172.683523509 287.806970877 163.227365573 312.758616708 161.715864549 c 1
 220.621661619 254.668190921 l 1
EndSplineSet
EndChar

StartChar: parenleft
Encoding: 40 40 10
Width: 555
VWidth: 0
Flags: HW
LayerCount: 2
Fore
SplineSet
437 736.5 m 0
 373.351025918 736.5 312.372622397 701.468576459 253.843718836 628.800668104 c 0
 195.55866012 556.435510934 166.5 473.070458717 166.5 378 c 0
 166.5 282.250574729 195.566570413 198.554667859 253.843718836 126.199331896 c 0
 312.372622397 53.5314235413 373.351025918 18.5 437 18.5 c 0
 437.620039888 18.5 438.222607219 18.4245960659 438.799024386 18.2824658056 c 2
 511.799024386 0.282465805556 l 2
 515.070746108 -0.524260098487 517.5 -3.48067738778 517.5 -7 c 0
 517.5 -10.61939476 514.93062997 -13.6434165659 511.517922524 -14.3460328048 c 0
 488.299659373 -19.1262634535 463.457023227 -21.5 437 -21.5 c 0
 329.722112942 -21.5 237.588509539 17.9340977367 161.616183122 96.2805593539 c 0
 85.6458405263 174.624975156 47.5 269.522937718 47.5 380 c 0
 47.5 490.477030105 85.6474892266 585.215896479 161.627601075 663.231189896 c 0
 237.602902542 741.24154408 329.731865092 780.5 437 780.5 c 0
 463.457023227 780.5 488.299659373 778.126263454 511.517922524 773.346032805 c 0
 514.93062997 772.643416566 517.5 769.61939476 517.5 766 c 0
 517.5 762.613070994 515.250080736 759.747491993 512.164600424 758.817621214 c 2
 439.164600424 736.817621214 l 2
 438.479136179 736.611042949 437.752433494 736.5 437 736.5 c 0
151.5 378 m 0
 151.5 476.262874616 181.774673214 563.231155732 242.156281164 638.199331896 c 0
 301.971235727 712.463966494 366.617733332 751.084187971 435.8782443 751.496660757 c 1
 476.003486923 763.58919963 l 1
 463.480040631 764.861461879 450.479367494 765.5 437 765.5 c 0
 333.601468242 765.5 245.730430791 728.091789253 172.372398925 652.768810104 c 0
 99.0191774401 577.450770187 62.5 486.856303228 62.5 380 c 0
 62.5 273.143728948 99.0208261404 182.375024844 172.383816878 106.719440646 c 0
 245.744823795 31.0659022633 333.611220392 -6.5 437 -6.5 c 0
 448.642096077 -6.5 459.927098905 -6.02366755915 470.855953998 -5.07410431112 c 1
 436.073969639 3.50227539371 l 1
 366.739520951 3.843089529 302.027576479 42.4660823482 242.156281164 116.800668104 c 0
 181.76676292 191.778665475 151.5 279.082758604 151.5 378 c 0
EndSplineSet
EndChar

StartChar: parenright
Encoding: 41 41 11
Width: 555
VWidth: 0
Flags: HW
LayerCount: 2
Fore
SplineSet
47.5 766 m 0
 47.5 769.61939476 50.0693700295 772.643416566 53.4820774759 773.346032805 c 0
 76.7003406267 778.126263454 101.542976773 780.5 128 780.5 c 0
 235.268134908 780.5 327.397097458 741.24154408 403.372398925 663.231189896 c 0
 479.352510773 585.215896479 517.5 490.477030105 517.5 380 c 0
 517.5 269.522937718 479.354159474 174.624975156 403.383816878 96.2805593539 c 0
 327.411490461 17.9340977367 235.277887058 -21.5 128 -21.5 c 0
 101.542976773 -21.5 76.7003406267 -19.1262634535 53.4820774759 -14.3460328048 c 0
 50.0693700295 -13.6434165659 47.5 -10.61939476 47.5 -7 c 0
 47.5 -3.48067738778 49.9292538921 -0.524260098487 53.2009756141 0.282465805556 c 2
 126.200975614 18.2824658056 l 2
 126.777392781 18.4245960659 127.379960112 18.5 128 18.5 c 0
 191.648974082 18.5 252.627377603 53.5314235413 311.156281164 126.199331896 c 0
 369.433429587 198.554667859 398.5 282.250574729 398.5 378 c 0
 398.5 473.070458717 369.44133988 556.435510934 311.156281164 628.800668104 c 0
 252.627377603 701.468576459 191.648974082 736.5 128 736.5 c 0
 127.247566506 736.5 126.520863821 736.611042949 125.835399576 736.817621214 c 2
 52.8353995764 758.817621214 l 2
 49.7499192642 759.747491993 47.5 762.613070994 47.5 766 c 0
413.5 378 m 0
 413.5 279.082758604 383.23323708 191.778665475 322.843718836 116.800668104 c 0
 262.972423521 42.4660823482 198.260479049 3.843089529 128.926030361 3.50227539371 c 1
 94.1440460022 -5.07410431112 l 1
 105.072901095 -6.02366755915 116.357903923 -6.5 128 -6.5 c 0
 231.388779608 -6.5 319.255176205 31.0659022633 392.616183122 106.719440646 c 0
 465.97917386 182.375024844 502.5 273.143728948 502.5 380 c 0
 502.5 486.856303228 465.98082256 577.450770187 392.627601075 652.768810104 c 0
 319.269569209 728.091789253 231.398531758 765.5 128 765.5 c 0
 114.520632506 765.5 101.519959369 764.861461879 88.9965130765 763.58919963 c 1
 129.1217557 751.496660757 l 1
 198.382266668 751.084187971 263.028764273 712.463966494 322.843718836 638.199331896 c 0
 383.225326786 563.231155732 413.5 476.262874616 413.5 378 c 0
EndSplineSet
EndChar

StartChar: asterisk
Encoding: 42 42 12
Width: 644
VWidth: 0
Flags: HW
LayerCount: 2
Fore
SplineSet
606.5 496 m 2
 606.5 344 l 2
 606.5 339.8606375 603.1393625 336.5 599 336.5 c 2
 528.104521875 336.5 l 1
 578.302260938 286.302260938 l 2
 579.659840625 284.94468125 580.5 283.06968125 580.5 281 c 0
 580.5 278.93031875 579.659840625 277.05531875 578.302260938 275.697739062 c 2
 471.302260938 168.697739063 l 2
 469.94468125 167.340159375 468.06968125 166.5 466 166.5 c 0
 463.93031875 166.5 462.05531875 167.340159375 460.697739062 168.697739063 c 2
 410.5 218.895478125 l 1
 410.5 149 l 2
 410.5 144.8606375 407.1393625 141.5 403 141.5 c 2
 251 141.5 l 2
 246.8606375 141.5 243.5 144.8606375 243.5 149 c 2
 243.5 218.895478125 l 1
 193.302260937 168.697739063 l 2
 191.94468125 167.340159375 190.06968125 166.5 188 166.5 c 0
 185.93031875 166.5 184.05531875 167.340159375 182.697739063 168.697739063 c 2
 75.6977390625 275.697739062 l 2
 74.340159375 277.05531875 73.5 278.93031875 73.5 281 c 0
 73.5 283.06968125 74.340159375 284.94468125 75.6977390625 286.302260938 c 2
 125.895478125 336.5 l 1
 55 336.5 l 2
 50.8606375 336.5 47.5 339.8606375 47.5 344 c 2
 47.5 496 l 2
 47.5 500.1393625 50.8606375 503.5 55 503.5 c 2
 125.895478125 503.5 l 1
 75.6977390625 553.697739062 l 2
 74.340159375 555.05531875 73.5 556.93031875 73.5 559 c 0
 73.5 561.06968125 74.340159375 562.94468125 75.6977390625 564.302260938 c 2
 182.697739063 671.302260938 l 2
 184.05531875 672.659840625 185.93031875 673.5 188 673.5 c 0
 190.06968125 673.5 191.94468125 672.659840625 193.302260937 671.302260938 c 2
 243.5 621.104521875 l 1
 243.5 692 l 2
 243.5 696.1393625 246.8606375 699.5 251 699.5 c 2
 403 699.5 l 2
 407.1393625 699.5 410.5 696.1393625 410.5 692 c 2
 410.5 621.104521875 l 1
 460.697739062 671.302260938 l 2
 462.05531875 672.659840625 463.93031875 673.5 466 673.5 c 0
 468.06968125 673.5 469.94468125 672.659840625 471.302260938 671.302260938 c 2
 578.302260938 564.302260938 l 2
 579.659840625 562.94468125 580.5 561.06968125 580.5 559 c 0
 580.5 556.93031875 579.659840625 555.05531875 578.302260938 553.697739062 c 2
 528.104521875 503.5 l 1
 599 503.5 l 2
 603.1393625 503.5 606.5 500.1393625 606.5 496 c 2
591.5 351.5 m 1
 591.5 488.5 l 1
 510 488.5 l 2
 505.8606375 488.5 502.5 491.8606375 502.5 496 c 0
 502.5 498.06968125 503.340159375 499.94468125 504.697739062 501.302260938 c 2
 562.395478125 559 l 1
 466 655.395478125 l 1
 408.302260938 597.697739062 l 2
 406.94468125 596.340159375 405.06968125 595.5 403 595.5 c 0
 398.8606375 595.5 395.5 598.8606375 395.5 603 c 2
 395.5 684.5 l 1
 258.5 684.5 l 1
 258.5 603 l 2
 258.5 598.8606375 255.1393625 595.5 251 595.5 c 0
 248.93031875 595.5 247.05531875 596.340159375 245.697739063 597.697739062 c 2
 188 655.395478125 l 1
 91.604521875 559 l 1
 149.302260937 501.302260938 l 2
 150.659840625 499.94468125 151.5 498.06968125 151.5 496 c 0
 151.5 491.8606375 148.1393625 488.5 144 488.5 c 2
 62.5 488.5 l 1
 62.5 351.5 l 1
 144 351.5 l 2
 148.1393625 351.5 151.5 348.1393625 151.5 344 c 0
 151.5 341.93031875 150.659840625 340.05531875 149.302260937 338.697739062 c 2
 91.604521875 281 l 1
 188 184.604521875 l 1
 245.697739063 242.302260937 l 2
 247.05531875 243.659840625 248.93031875 244.5 251 244.5 c 0
 255.1393625 244.5 258.5 241.1393625 258.5 237 c 2
 258.5 156.5 l 1
 395.5 156.5 l 1
 395.5 237 l 2
 395.5 241.1393625 398.8606375 244.5 403 244.5 c 0
 405.06968125 244.5 406.94468125 243.659840625 408.302260938 242.302260937 c 2
 466 184.604521875 l 1
 562.395478125 281 l 1
 504.697739062 338.697739062 l 2
 503.340159375 340.05531875 502.5 341.93031875 502.5 344 c 0
 502.5 348.1393625 505.8606375 351.5 510 351.5 c 2
 591.5 351.5 l 1
EndSplineSet
EndChar

StartChar: plus
Encoding: 43 43 13
Width: 644
VWidth: 0
Flags: HW
LayerCount: 2
Fore
SplineSet
606.5 496 m 2
 606.5 344 l 2
 606.5 339.8606375 603.1393625 336.5 599 336.5 c 2
 55 336.5 l 2
 50.8606375 336.5 47.5 339.8606375 47.5 344 c 2
 47.5 496 l 2
 47.5 500.1393625 50.8606375 503.5 55 503.5 c 2
 599 503.5 l 2
 603.1393625 503.5 606.5 500.1393625 606.5 496 c 2
591.5 351.5 m 1
 591.5 488.5 l 1
 62.5 488.5 l 1
 62.5 351.5 l 1
 591.5 351.5 l 1
251 699.5 m 2
 403 699.5 l 2
 407.1393625 699.5 410.5 696.1393625 410.5 692 c 2
 410.5 149 l 2
 410.5 144.8606375 407.1393625 141.5 403 141.5 c 2
 251 141.5 l 2
 246.8606375 141.5 243.5 144.8606375 243.5 149 c 2
 243.5 692 l 2
 243.5 696.1393625 246.8606375 699.5 251 699.5 c 2
395.5 684.5 m 1
 258.5 684.5 l 1
 258.5 156.5 l 1
 395.5 156.5 l 1
 395.5 684.5 l 1
EndSplineSet
EndChar

StartChar: comma
Encoding: 44 44 14
Width: 252
VWidth: 0
Flags: HW
LayerCount: 2
Fore
SplineSet
47.5 -2 m 2
 47.5 140 l 2
 47.5 144.1393625 50.8606375 147.5 55 147.5 c 2
 207 147.5 l 2
 211.1393625 147.5 214.5 144.1393625 214.5 140 c 2
 214.5 -2 l 2
 214.5 -3.10417308793 214.260872754 -4.15293574702 213.831624639 -5.09728159867 c 2
 153.831624639 -137.097281599 l 2
 152.651692483 -139.693132341 150.035189412 -141.5 147 -141.5 c 0
 146.824329472 -141.5 146.650061483 -141.493947252 146.477393384 -141.482039108 c 2
 88.4773933837 -137.482039108 l 2
 84.5814458582 -137.213353071 81.5 -133.963691972 81.5 -130 c 0
 81.5 -129.820905325 81.5062910059 -129.643268398 81.5186639009 -129.467298336 c 2
 89.9538645652 -9.5 l 1
 55 -9.5 l 2
 50.8606375 -9.5 47.5 -6.1393625 47.5 -2 c 2
62.5 132.5 m 1
 62.5 5.5 l 1
 98 5.5 l 2
 102.1393625 5.5 105.5 2.1393625 105.5 -2 c 0
 105.5 -2.17909467533 105.493708994 -2.35673160237 105.481336099 -2.53270166419 c 2
 97.0085720805 -123.034234373 l 1
 142.324400137 -126.159463894 l 1
 199.5 -0.373144195275 l 1
 199.5 132.5 l 1
 62.5 132.5 l 1
EndSplineSet
EndChar

StartChar: hyphen
Encoding: 45 45 15
Width: 644
VWidth: 0
Flags: HW
LayerCount: 2
Fore
SplineSet
606.5 496 m 2
 606.5 344 l 2
 606.5 339.8606375 603.1393625 336.5 599 336.5 c 2
 55 336.5 l 2
 50.8606375 336.5 47.5 339.8606375 47.5 344 c 2
 47.5 496 l 2
 47.5 500.1393625 50.8606375 503.5 55 503.5 c 2
 599 503.5 l 2
 603.1393625 503.5 606.5 500.1393625 606.5 496 c 2
591.5 351.5 m 1
 591.5 488.5 l 1
 62.5 488.5 l 1
 62.5 351.5 l 1
 591.5 351.5 l 1
EndSplineSet
EndChar

StartChar: period
Encoding: 46 46 16
Width: 252
VWidth: 0
Flags: HW
LayerCount: 2
Fore
SplineSet
47.5 -2 m 2
 47.5 140 l 2
 47.5 144.1393625 50.8606375 147.5 55 147.5 c 2
 207 147.5 l 2
 211.1393625 147.5 214.5 144.1393625 214.5 140 c 2
 214.5 -2 l 2
 214.5 -6.1393625 211.1393625 -9.5 207 -9.5 c 2
 55 -9.5 l 2
 50.8606375 -9.5 47.5 -6.1393625 47.5 -2 c 2
62.5 132.5 m 1
 62.5 5.5 l 1
 199.5 5.5 l 1
 199.5 132.5 l 1
 62.5 132.5 l 1
EndSplineSet
EndChar

StartChar: slash
Encoding: 47 47 17
Width: 691
VWidth: 0
Flags: HW
LayerCount: 2
Fore
SplineSet
653.5 757 m 0
 653.5 755.637581332 653.135937524 754.359523013 652.499872979 753.25788545 c 2
 167.499872979 -86.7421145499 l 2
 166.203417229 -88.9875224452 163.776943832 -90.5 161 -90.5 c 0
 159.64141661 -90.5 158.36671928 -90.1379843476 157.267193141 -89.5052381728 c 2
 51.2671931406 -28.5052381728 l 2
 49.0166582502 -27.2101190378 47.5 -24.7807791102 47.5 -22 c 0
 47.5 -20.6375813319 47.8640624764 -19.3595230126 48.5001270215 -18.2578854501 c 2
 533.500127021 821.74211455 l 2
 534.796582771 823.987522445 537.223056168 825.5 540 825.5 c 0
 541.35858339 825.5 542.63328072 825.137984348 543.732806859 824.505238173 c 2
 649.732806859 763.505238173 l 2
 651.98334175 762.210119038 653.5 759.78077911 653.5 757 c 0
635.74920814 754.245677724 m 1
 542.750359651 807.763882986 l 1
 65.2507918602 -19.2456777239 l 1
 158.249640349 -72.7638829862 l 1
 635.74920814 754.245677724 l 1
EndSplineSet
EndChar

StartChar: zero
Encoding: 48 48 18
Width: 864
VWidth: 0
Flags: HW
LayerCount: 2
Fore
SplineSet
749.5 380 m 0
 749.5 307.701501019 735.801119564 240.623727883 708.355784109 178.956430935 c 0
 680.924689998 117.321133057 643.29639246 68.3484530212 595.493700723 32.4964342181 c 0
 547.649847027 -3.3864560537 494.80573356 -21.5 437.5 -21.5 c 0
 380.194451547 -21.5 327.194978536 -3.38880718763 279.026901125 32.4810376934 c 0
 230.886001981 68.330643439 193.08026723 117.309994594 165.644215891 178.956430935 c 0
 138.198880436 240.623727883 124.5 307.701501019 124.5 380 c 0
 124.5 452.298255771 138.198796907 519.214955163 165.650450212 580.557538474 c 0
 193.089221847 641.871336819 230.895739561 690.67660795 279.026901125 726.518962307 c 0
 327.194978536 762.388807188 380.194451547 780.5 437.5 780.5 c 0
 494.80573356 780.5 547.649847027 762.386456054 595.493700723 726.503565782 c 0
 643.28667963 690.658831602 680.915775342 641.86017026 708.349549788 580.557538474 c 0
 735.801203093 519.214955163 749.5 452.298255771 749.5 380 c 0
734.5 380 m 0
 734.5 450.368410895 721.198796907 515.11837817 694.650450212 574.442461526 c 0
 668.084224658 633.806496406 632.046653704 680.341168398 586.506299277 714.496434218 c 0
 541.01681964 748.613543946 491.527599773 765.5 437.5 765.5 c 0
 383.472215119 765.5 333.805021464 748.611192812 287.973098875 714.481037693 c 0
 242.104260439 680.32339205 205.910778153 633.795329848 179.349549788 574.442461526 c 0
 152.801203093 515.11837817 139.5 450.368410895 139.5 380 c 0
 139.5 309.631832314 152.801119564 244.70960545 179.355784109 185.043569065 c 0
 205.91973277 125.356672073 242.113998019 78.669356561 287.973098875 44.5189623066 c 0
 333.805021464 10.3888071876 383.472215119 -6.5 437.5 -6.5 c 0
 491.527599773 -6.5 541.01681964 10.3864560537 586.506299277 44.5035657819 c 0
 632.036940873 78.6515469789 668.075310002 125.34553361 694.644215891 185.043569065 c 0
 721.198880436 244.70960545 734.5 309.631832314 734.5 380 c 0
627.5 378 m 0
 627.5 311.284842595 609.375015809 254.013295184 572.934997935 206.916290951 c 0
 536.471252223 159.788619606 490.970326894 135.5 437.5 135.5 c 0
 384.032069771 135.5 338.379448942 159.779909744 301.586058355 206.889204234 c 0
 264.802625806 253.985748713 246.5 311.270506242 246.5 378 c 0
 246.5 444.07993893 264.814350295 501.029263016 301.586058355 548.110795766 c 0
 338.379448942 595.220090256 384.032069771 619.5 437.5 619.5 c 0
 490.970326894 619.5 536.471252223 595.211380394 572.934997935 548.083709049 c 0
 609.363430706 501.001678015 627.5 444.065430604 627.5 378 c 0
612.5 378 m 0
 612.5 441.267902729 595.303235961 494.664988652 561.065002065 538.916290951 c 0
 526.86208111 583.12195294 486.029673106 604.5 437.5 604.5 c 0
 388.967930229 604.5 347.953884391 583.113243078 313.413941645 538.889204234 c 0
 278.852316372 494.637403651 261.5 441.253394403 261.5 378 c 0
 261.5 314.062827091 278.864040861 260.34758462 313.413941645 216.110795766 c 0
 347.953884391 171.886756922 388.967930229 150.5 437.5 150.5 c 0
 486.029673106 150.5 526.86208111 171.87804706 561.065002065 216.083709049 c 0
 595.291650858 260.320038149 612.5 314.048490738 612.5 378 c 0
EndSplineSet
EndChar

StartChar: one
Encoding: 49 49 19
Width: 252
VWidth: 0
Flags: HW
LayerCount: 2
Fore
SplineSet
55 781.5 m 2
 207 781.5 l 2
 211.1393625 781.5 214.5 778.1393625 214.5 774 c 2
 214.5 -2 l 2
 214.5 -6.1393625 211.1393625 -9.5 207 -9.5 c 2
 55 -9.5 l 2
 50.8606375 -9.5 47.5 -6.1393625 47.5 -2 c 2
 47.5 774 l 2
 47.5 778.1393625 50.8606375 781.5 55 781.5 c 2
199.5 766.5 m 1
 62.5 766.5 l 1
 62.5 5.5 l 1
 199.5 5.5 l 1
 199.5 766.5 l 1
EndSplineSet
EndChar

StartChar: two
Encoding: 50 50 20
Width: 555
VWidth: 0
Flags: HW
LayerCount: 2
Fore
SplineSet
135 578.5 m 0
 110.337487925 578.5 86.7100916185 575.258386688 64.0617431277 568.787429977 c 0
 63.4065914013 568.600243769 62.7149099151 568.5 62 568.5 c 0
 57.8606375 568.5 54.5 571.8606375 54.5 576 c 2
 54.5 709 l 2
 54.5 712.71700058 57.2098172632 715.806083854 60.7599795348 716.397777566 c 0
 85.1693703655 720.466009371 109.919933129 722.5 135 722.5 c 0
 205.364162731 722.5 270.514391203 708.270355283 330.223649299 679.772754829 c 0
 389.904892088 651.288525315 437.361342131 612.087095028 472.152383816 562.288153007 c 0
 506.952585208 512.476100035 524.5 458.225004077 524.5 400 c 0
 524.5 334.927658155 502.781167755 276.888935957 459.69620373 226.623144595 c 0
 425.052955199 186.206021309 381.328091245 154.599893417 328.801390066 131.804212255 c 1
 562 133.5 l 0
 566.1393625 133.5 569.5 130.1393625 569.5 126 c 2
 569.5 5 l 2
 569.5 0.885978754922 566.180384318 -2.45882304237 562.075935615 -2.49962273127 c 2
 562.075935615 -2.49962273127 59.0759356146 -7.49962273127 59 -7.5 c 0
 54.8606375 -7.5 51.5 -4.1393625 51.5006166999 0.0970756597704 c 2
 54.5006166999 236.09707566 l 2
 54.5526679853 240.191776776 57.8930441957 243.5 62 243.5 c 0
 62.7149099151 243.5 63.4065914013 243.399756231 64.0617431277 243.212570023 c 0
 86.7100916185 236.741613312 110.337487925 233.5 135 233.5 c 0
 198.41612097 233.5 251.063169618 249.136842414 293.595417053 280.069386003 c 0
 335.918344163 310.849696628 356.5 350.032623639 356.5 399 c 0
 356.5 447.951919182 335.513621112 489.682538497 292.24616597 525.200598688 c 0
 248.99053693 560.708950886 196.842317339 578.5 135 578.5 c 0
371.5 399 m 0
 371.5 345.300709695 348.081655837 301.150303372 302.404582947 267.930613997 c 0
 256.936830382 234.863157586 200.917212364 218.5 135 218.5 c 0
 112.383533011 218.5 90.4969255084 221.090785089 69.3770634235 226.280427384 c 1
 66.5969210458 7.57589367223 l 1
 554.5 12.4258248746 l 1
 554.5 118.4452524 l 1
 287 116.5 l 2
 282.8606375 116.5 279.5 119.8606375 279.5 124 c 0
 279.5 127.326247867 281.670021144 130.149659676 284.670371431 131.130543423 c 0
 352.922667646 153.443794109 407.288989472 188.526247474 448.30379627 236.376855405 c 0
 489.218832245 284.111064043 509.5 338.405675178 509.5 400 c 0
 509.5 455.108329257 493.047414792 506.190566631 459.847616184 553.711846993 c 0
 426.638657869 601.246238305 381.428441245 638.711474685 323.776350701 666.227245171 c 0
 266.152275463 693.729644717 203.302503936 707.5 135 707.5 c 0
 112.889392837 707.5 91.0590063668 705.866021099 69.5 702.598253135 c 1
 69.5 585.749749523 l 1
 90.5818554232 590.919258249 112.427412641 593.5 135 593.5 c 0
 199.824349327 593.5 255.676129737 574.624382447 301.75383403 536.799401312 c 0
 347.819712221 498.984128169 371.5 452.714747485 371.5 399 c 0
EndSplineSet
EndChar

StartChar: three
Encoding: 51 51 21
Width: 435
VWidth: 0
Flags: HW
LayerCount: 2
Fore
SplineSet
47.5 -5 m 2
 47.5 119 l 2
 47.5 123.1393625 50.8606375 126.5 55 126.5 c 0
 55.5813309584 126.5 56.1473028758 126.433717077 56.6907640159 126.308302968 c 0
 64.827534985 124.43058659 72.9219580335 123.5 81 123.5 c 0
 124.050972558 123.5 160.097748162 131.654810595 189.426507671 147.594353806 c 0
 218.911497669 163.618804892 231.5 181.713321885 231.5 202 c 0
 231.5 222.524823056 223.621612763 239.636851704 207.020654662 254.393258904 c 0
 190.373543141 269.190691367 169.795409627 277.917413202 144.61629145 280.5 c 0
 136.590443528 280.5 128.564595606 280.5 120.538747685 280.5 c 1
 107.068245421 278.575642534 l 2
 106.719297675 278.525792856 106.362637191 278.5 106 278.5 c 0
 101.8606375 278.5 98.5 281.8606375 98.5 286 c 2
 98.5 413 l 2
 98.5 417.1393625 101.8606375 420.5 106 420.5 c 0
 106.362637191 420.5 106.719297675 420.474207144 107.068245421 420.424357466 c 2
 120.538747685 418.5 l 1
 128.567748852 418.5 136.59675002 418.5 144.625751187 418.5 c 0
 170.503108798 421.086647464 191.207727061 429.833208762 207.468421049 444.559875016 c 0
 223.794661866 459.345904434 231.5 476.165915629 231.5 496 c 0
 231.5 516.477956815 219.357305838 534.715224264 191.247360514 551.006215305 c 0
 163.301330903 567.202209738 128.669385046 575.5 87 575.5 c 0
 78.9219580335 575.5 70.827534985 574.56941341 62.6907640159 572.691697032 c 0
 62.1473028758 572.566282923 61.5813309584 572.5 61 572.5 c 0
 56.8606375 572.5 53.5 575.8606375 53.5 580 c 2
 53.5 704 l 2
 53.5 707.943469533 56.5500834866 711.180175464 60.4178268507 711.477694184 c 0
 69.2761487972 712.159103565 78.1372344533 712.5 87 712.5 c 0
 172.226311564 712.5 245.334318157 691.821311332 305.749073113 650.179502832 c 0
 366.153663522 608.544700403 397.5 556.863927113 397.5 496 c 0
 397.5 439.020150274 373.506290221 389.723302033 326.652196631 349 c 1
 373.506290221 308.276697967 397.5 258.979849726 397.5 202 c 0
 397.5 141.693663059 365.383934926 90.3639465023 303.684423832 48.7764307375 c 0
 241.950051126 7.16541709049 167.540169199 -13.5 81 -13.5 c 0
 72.1372344533 -13.5 63.2761487972 -13.1591035646 54.4178268507 -12.4776941841 c 0
 50.5500834866 -12.1801754638 47.5 -8.94346953269 47.5 -5 c 2
382.5 202 m 0
 382.5 256.944045661 358.859217915 303.661883103 310.27266274 343.178947979 c 0
 308.581294774 344.554593925 307.5 346.652018459 307.5 349 c 0
 307.5 351.347981541 308.581294774 353.445406075 310.27266274 354.821052021 c 0
 358.859217915 394.338116897 382.5 441.055954339 382.5 496 c 0
 382.5 551.136072887 354.846336478 598.121966264 297.250926887 637.820497168 c 0
 239.665681843 677.512022001 169.773688436 697.5 87 697.5 c 0
 80.8343627041 697.5 74.6678353633 697.327399401 68.5 696.98205031 c 1
 68.5 589.076100321 l 1
 74.6542261348 590.023727835 80.8234653418 590.5 87 590.5 c 0
 130.663948287 590.5 168.03200243 581.797790262 198.752639486 563.993784695 c 0
 229.309360828 546.284775736 246.5 523.522043185 246.5 496 c 0
 246.5 471.834084371 236.538671468 450.654095566 217.531578951 433.440124984 c 0
 198.534602171 416.235315826 174.356335228 406.327953566 145.735814344 403.535707626 c 0
 145.493715299 403.512088207 145.248258186 403.5 145 403.5 c 0
 136.666666667 403.5 128.333333333 403.5 120 403.5 c 0
 117.751737212 403.5 115.627567639 404.047669239 113.5 404.351607474 c 1
 113.5 294.648392526 l 1
 115.62646497 294.952173236 117.753551617 295.5 120 295.5 c 0
 128.333333333 295.5 136.666666667 295.5 145 295.5 c 0
 145.254437917 295.5 145.505933575 295.487302494 145.75388734 295.462507118 c 0
 173.739528249 292.663943027 197.707964847 282.736857088 216.979345338 265.606741096 c 0
 236.378387237 248.363148296 246.5 226.808510278 246.5 202 c 0
 246.5 174.286678115 228.421835665 151.714528441 196.573492329 134.405646194 c 0
 164.568918504 117.011856072 125.949027442 108.5 81 108.5 c 0
 74.8234653418 108.5 68.6542261348 108.976272165 62.5 109.923899679 c 1
 62.5 2.01794968993 l 1
 68.6678353633 1.67260059862 74.8343627041 1.5 81 1.5 c 0
 165.126497468 1.5 236.383282207 21.5012495762 295.315576168 61.2235692625 c 0
 354.282731741 100.969386831 382.5 147.639670274 382.5 202 c 0
EndSplineSet
EndChar

StartChar: four
Encoding: 52 52 22
Width: 752
VWidth: 0
Flags: HW
LayerCount: 2
Fore
SplineSet
391.5 183.5 m 1
 63 183.5 l 2
 58.8606375 183.5 55.5 186.8606375 55.5 191 c 0
 55.5 192.311609248 55.837414458 193.545033011 56.4301034023 194.618131317 c 2
 378.430103402 777.618131317 l 2
 379.707906294 779.93166885 382.172246748 781.5 385 781.5 c 2
 528 781.5 l 2
 532.1393625 781.5 535.5 778.1393625 535.5 774 c 2
 535.5 0 l 2
 535.5 -4.1393625 532.1393625 -7.5 528 -7.5 c 2
 399 -7.5 l 2
 394.8606375 -7.5 391.5 -4.1393625 391.5 0 c 2
 391.5 183.5 l 1
399 199.5 m 0
 403.1393625 199.5 406.5 196.1393625 406.5 192 c 2
 406.5 7.5 l 1
 520.5 7.5 l 1
 520.5 766.5 l 1
 389.425879932 766.5 l 1
 75.7106140662 198.5 l 1
 395.258105455 198.5 l 2
 396.359693169 199.135985992 397.637672026 199.5 399 199.5 c 0
285.5 344 m 0
 285.5 345.314384724 285.838843964 346.550252718 286.43386937 347.624941461 c 2
 384.43386937 524.624941461 l 2
 385.712744206 526.934746013 388.175022224 528.5 391 528.5 c 0
 395.1393625 528.5 398.5 525.1393625 398.5 521 c 2
 398.5 341 l 2
 398.5 336.8606375 395.137315015 333.369772734 390.999890671 333.496428581 c 2
 292.766748413 336.503565589 l 2
 288.735125933 336.626982604 285.5 339.938670536 285.5 344 c 0
305.515553955 351.120445563 m 1
 383.5 348.733166602 l 1
 383.5 491.969904237 l 1
 305.515553955 351.120445563 l 1
EndSplineSet
EndChar

StartChar: five
Encoding: 53 53 23
Width: 384
VWidth: 0
Flags: HW
LayerCount: 2
Fore
SplineSet
214.5 489.33165296 m 1
 285.592438904 447.580508685 346.5 366.632050493 346.5 260 c 0
 346.5 186.799928901 320.465628407 124.018906249 268.784481003 72.6800180994 c 0
 217.114213437 21.3519377363 154.185730439 -4.5 81 -4.5 c 0
 69.5073686045 -4.5 60.6611336662 -4.17574367548 54.1640182875 -3.45384196673 c 0
 50.4174866103 -3.03756066927 47.5 0.143200500761 47.5 4 c 2
 47.5 157 l 2
 47.5 161.1393625 50.8606375 164.5 55 164.5 c 0
 55.6283981108 164.5 56.2388494251 164.422549453 56.8223206573 164.276681645 c 0
 64.1608434887 162.442050937 72.2119373021 161.5 81 161.5 c 0
 109.184552993 161.5 132.400793549 171.005315424 151.697739063 190.302260937 c 0
 171.02923181 209.633753685 180.5 232.530105098 180.5 260 c 0
 180.5 288.184552993 170.994684576 311.400793549 151.697739063 330.697739062 c 0
 132.400793549 349.994684576 109.184552993 359.5 81 359.5 c 0
 72.2119373021 359.5 64.1608434887 358.557949063 56.8223206573 356.723318355 c 0
 56.2388494251 356.577450547 55.6283981108 356.5 55 356.5 c 0
 50.8606375 356.5 47.5 359.8606375 47.5 364 c 2
 47.5 773 l 2
 47.5 777.373199348 51.6296583693 781.5 56 781.5 c 2
 373 781.5 l 2
 377.1393625 781.5 380.5 778.1393625 380.499834656 773.949722958 c 2
 379.499834656 621.949722958 l 2
 379.472753975 617.833459431 376.122590644 614.5 372 614.5 c 2
 214.5 614.5 l 1
 214.5 489.33165296 l 1
81 10.5 m 0
 150.480936228 10.5 209.219119896 34.6480622637 258.215518997 83.3199819006 c 0
 307.201038259 131.981093751 331.5 190.533404433 331.5 260 c 0
 331.5 362.633875383 272.311842017 439.369270892 203.310408343 478.470083307 c 0
 201.036095306 479.758860695 199.5 482.201458784 199.5 485 c 2
 199.5 622 l 2
 199.5 626.1393625 202.8606375 629.5 207 629.5 c 2
 364.549176679 629.5 l 1
 365.450492468 766.5 l 1
 62.5 766.5 l 1
 62.5 373.145568804 l 1
 68.4102558381 374.053051083 74.5791556704 374.5 81 374.5 c 0
 112.815447007 374.5 140.265873118 363.338648757 162.302260937 341.302260938 c 0
 184.338648757 319.265873118 195.5 291.815447007 195.5 260 c 0
 195.5 228.803228235 184.304101524 201.699579649 162.302260937 179.697739063 c 0
 140.265873118 157.661351243 112.815447007 146.5 81 146.5 c 0
 74.5791556704 146.5 68.4102558381 146.946948917 62.5 147.854431196 c 1
 62.5 10.9248056051 l 1
 67.4439622219 10.6485954219 73.6389576599 10.5 81 10.5 c 0
EndSplineSet
EndChar

StartChar: six
Encoding: 54 54 24
Width: 729
VWidth: 0
Flags: HW
LayerCount: 2
Fore
SplineSet
437 604.5 m 0
 382.059800167 604.5 334.302974909 586.551128547 292.935096375 550.354234829 c 0
 257.880337532 519.681320842 234.792635453 482.780161033 223.430585186 439.182805241 c 1
 267.958695161 480.27947966 321.469689449 502.818473607 383.309783397 506.47260207 c 0
 388.625043765 507.129695534 397.792225926 507.500856785 398 507.5 c 2
 406 507.5 l 2
 468.283611361 507.5 523.906113939 488.046822948 572.1849945 449.355237818 c 0
 620.428192129 410.692249647 651.617672099 361.245020007 665.309705964 301.684672697 c 0
 669.696224483 282.603317137 671.5 262.442168176 671.5 242 c 0
 671.5 214.567747848 667.3727406 187.769519803 659.14663884 161.720197563 c 0
 638.646315932 97.4858524501 598.713925834 47.8636910325 540.020870333 13.6623249433 c 0
 506.450398489 -9.57294398181 472.016786777 -21.4999990278 437 -21.5 c 2
 430.314320456 -21.5 l 2
 422.212351594 -22.1665061076 414.107137328 -22.5 406 -22.5 c 0
 403.333333333 -22.5 400.666666667 -22.5 398 -22.5 c 0
 391.92178136 -22.5 387.016212635 -22.2057478881 382.945877313 -21.4365647325 c 0
 328.584274456 -16.6102201346 280.034404636 2.17209399259 237.758022453 34.8008487368 c 1
 179.497409875 70.1134591078 133.142180768 118.409502288 98.9545693129 179.337921002 c 0
 64.6586855292 240.459298042 47.5 307.456650342 47.5 380 c 0
 47.5 490.477030105 85.6474892266 585.215896479 161.627601075 663.231189896 c 0
 237.602902542 741.24154408 329.731865092 780.5 437 780.5 c 0
 492.573294704 780.5 532.460063644 778.218853372 557.43754648 773.362120598 c 0
 560.890207255 772.690769892 563.5 769.647754787 563.5 766 c 2
 563.5 600 l 2
 563.5 595.8606375 560.1393625 592.5 556 592.5 c 0
 555.171777803 592.5 554.374730926 592.634539088 553.629540855 592.882935778 c 0
 544.874315696 595.801344165 526.739906814 598.718706287 500.338928877 601.028791856 c 0
 473.807331519 603.350306625 452.636631513 604.5 437 604.5 c 0
437 619.5 m 0
 462.201192817 619.5 525.03161379 614.90939179 548.5 609.762081252 c 1
 548.5 759.707701871 l 1
 524.893665331 763.493524334 487.527146 765.5 437 765.5 c 0
 333.601468242 765.5 245.730430791 728.091789253 172.372398925 652.768810104 c 0
 99.0191774401 577.450770187 62.5 486.856303228 62.5 380 c 0
 62.5 309.876682992 79.0079811375 245.540701958 112.045430687 186.662078998 c 0
 145.118936204 127.719197879 189.640033057 81.4238515784 245.872619978 47.4227525102 c 0
 246.119907709 47.2732296958 246.3578836 47.1098309544 246.585465145 46.9336387905 c 0
 286.793514456 15.8048264203 332.662422763 -1.97891012459 384.661071123 -6.52879185603 c 0
 387.879166313 -6.81037518514 391.634596697 -7.5 398 -7.5 c 0
 400.666666667 -7.5 403.333333333 -7.5 406 -7.5 c 0
 413.787558946 -7.5 421.577091235 -7.17554700519 429.369971411 -6.52614032391 c 0
 429.577703213 -6.50882934043 429.787828641 -6.5 430 -6.5 c 2
 437 -6.5 l 2
 468.563815423 -6.5 500.047009981 4.18091118628 531.731617266 26.1661488941 c 0
 531.895896566 26.2801386123 532.064940652 26.3877349384 532.238388172 26.4885765196 c 0
 588.070320066 58.9490020397 625.383854432 105.275348021 644.85336116 166.279802437 c 0
 652.6272594 190.897146864 656.5 216.098918818 656.5 242 c 0
 656.5 261.470913742 654.555865837 280.252759314 650.677872732 298.369336602 c 0
 637.697066165 354.784466869 608.557211822 400.986114833 562.8150055 437.644762182 c 0
 517.093886061 474.286510385 465.049721972 492.5 406 492.5 c 2
 398 492.5 l 2
 394.317298784 492.5 389.613721717 491.81409998 384.442145779 491.512843129 c 0
 317.620912454 487.6203441 261.979691343 460.930199134 216.550324985 410.95789614 c 0
 215.177969046 409.448304607 213.198854824 408.5 211 408.5 c 0
 206.8606375 408.5 203.5 411.8606375 203.5 416 c 0
 203.5 416.392538893 203.530221787 416.778074811 203.588463502 417.154405896 c 0
 212.507286978 474.78372682 239.131989191 523.204465041 283.064903625 561.645765171 c 0
 327.030358424 600.11553812 378.606866499 619.5 437 619.5 c 0
412 372.5 m 0
 412.545506845 372.5 413.077489302 372.441634642 413.590037994 372.330813303 c 0
 439.78532645 366.66696715 461.747794178 353.357953254 478.780278095 332.777035188 c 0
 495.882569698 312.111766168 504.5 287.599791393 504.5 260 c 0
 504.5 233.019012381 495.85641909 208.711967985 478.820404469 187.77186668 c 0
 461.76706034 166.810464522 439.707279695 153.607731442 413.40042564 148.630759053 c 0
 412.946684676 148.544916168 412.478546312 148.5 412 148.5 c 0
 411.257346757 148.5 410.539759764 148.608175002 409.862149767 148.809614254 c 0
 402.601825144 147.27429041 395.30793177 146.500000005 388 146.5 c 0
 380.259205011 146.5 372.927098327 147.246823958 366.023133675 148.776511195 c 0
 365.379437263 148.596348208 364.700881508 148.5 364 148.5 c 0
 359.9143852 148.5 354.954226055 149.832517735 351.999584634 151.125173356 c 0
 341.093928037 155.896398117 330.204370092 161.34218691 319.331024977 167.458443537 c 0
 319.076253153 167.601752687 318.83067883 167.759514523 318.595417053 167.930613997 c 0
 287.474588054 190.563944178 271.5 221.771340998 271.5 260 c 0
 271.5 287.600506399 280.113419185 312.250958228 297.179595531 333.22813332 c 0
 314.23293966 354.189535478 336.292720305 367.392268558 362.59957436 372.369240947 c 0
 363.053315324 372.455083832 363.521453688 372.5 364 372.5 c 0
 364.78001384 372.5 365.532375981 372.380667328 366.23981024 372.159278133 c 0
 373.575067503 373.640330526 387.511855192 374.504872443 388.025963669 374.503996201 c 0
 395.325207622 374.502164452 402.610423334 373.723891356 409.862149756 372.190385746 c 0
 410.539759757 372.391825005 411.257346754 372.5 412 372.5 c 0
388 359.5 m 0
 381.361207939 359.5 373.910206615 358.588491478 365.690764016 356.691697032 c 0
 365.147302876 356.566282923 364.581330958 356.5 364 356.5 c 0
 363.19520443 356.5 362.419845507 356.627035734 361.692898935 356.8621315 c 0
 340.366487933 352.045802161 322.95645451 341.147428189 308.820404469 323.77186668 c 0
 293.886580815 305.415708439 286.5 284.399493601 286.5 260 c 0
 286.5 226.372307988 299.745342086 200.32511816 327.0538489 180.32535811 c 0
 337.192331057 174.638005655 347.315581882 169.573396428 357.423706685 165.127802177 c 0
 358.754390046 164.801559469 360.181464837 164.472352812 361.702981848 164.141121401 c 0
 362.427013533 164.374135867 363.198924184 164.5 364 164.5 c 0
 364.683593119 164.5 365.34594829 164.408346277 365.975436731 164.236667611 c 0
 372.58981965 162.432744997 379.920262874 161.5 388 161.5 c 0
 395.362197013 161.5 402.744006626 162.418263466 410.177679343 164.276681645 c 0
 410.761150575 164.422549453 411.371601889 164.5 412 164.5 c 0
 412.804795568 164.5 413.580154488 164.372964267 414.307101058 164.137868501 c 0
 435.633512063 168.954197839 453.043545488 179.852571811 467.179595531 197.22813332 c 0
 482.14358091 215.621365348 489.5 236.314320952 489.5 260 c 0
 489.5 284.400208607 482.117430302 305.221567165 467.219721905 323.222964812 c 0
 453.059987923 340.332643373 435.556017606 351.420846897 414.11754135 356.803608085 c 0
 413.445908118 356.606025386 412.735238127 356.5 412 356.5 c 0
 411.371601889 356.5 410.761150575 356.577450547 410.177679343 356.723318355 c 0
 402.744006626 358.581736534 395.362197013 359.5 388 359.5 c 0
EndSplineSet
EndChar

StartChar: seven
Encoding: 55 55 25
Width: 610
VWidth: 0
Flags: HW
LayerCount: 2
Fore
SplineSet
218 -7.5 m 2
 56 -7.5 l 2
 51.8606375 -7.5 48.5 -4.1393625 48.5 0 c 0
 48.5 1.31525570538 48.8392931847 2.55189058801 49.4350525942 3.62707768812 c 2
 381.269557088 602.5 l 1
 55 602.5 l 2
 50.8606375 602.5 47.5 605.8606375 47.5 610 c 2
 47.5 762 l 2
 47.5 766.1393625 50.8606375 769.5 55 769.5 c 2
 565 769.5 l 2
 569.1393625 769.5 572.5 766.1393625 572.5 762 c 2
 572.5 610 l 2
 572.5 608.654757945 572.145059449 607.391762512 571.523800531 606.299635883 c 2
 224.523800531 -3.70036411699 l 2
 223.233421421 -5.96875390673 220.794120445 -7.5 218 -7.5 c 2
557.5 754.5 m 1
 62.5 754.5 l 1
 62.5 617.5 l 1
 394 617.5 l 2
 398.1393625 617.5 401.5 614.1393625 401.5 610 c 0
 401.5 608.684744295 401.160706815 607.448109412 400.564947406 606.372922312 c 2
 68.7304429116 7.5 l 1
 213.637631684 7.5 l 1
 557.5 611.984278595 l 1
 557.5 754.5 l 1
EndSplineSet
EndChar

StartChar: eight
Encoding: 56 56 26
Width: 616
VWidth: 0
Flags: HW
LayerCount: 2
Fore
SplineSet
339 372.5 m 0
 339.545506845 372.5 340.077489302 372.441634642 340.590037994 372.330813303 c 0
 366.78532645 366.66696715 388.747794178 353.357953254 405.780278095 332.777035188 c 0
 422.882569698 312.111766168 431.5 287.599791393 431.5 260 c 0
 431.5 233.019012381 422.85641909 208.711967985 405.820404469 187.77186668 c 0
 388.76706034 166.810464522 366.707279695 153.607731442 340.40042564 148.630759053 c 0
 339.946684676 148.544916168 339.478546312 148.5 339 148.5 c 0
 338.257346757 148.5 337.539759764 148.608175002 336.862149767 148.809614254 c 0
 329.601825144 147.27429041 322.30793177 146.500000005 315 146.5 c 0
 307.259205011 146.5 299.927098327 147.246823958 293.023133675 148.776511195 c 0
 292.379437263 148.596348208 291.700881508 148.5 291 148.5 c 0
 290.454493155 148.5 289.922510698 148.558365358 289.409962006 148.669186697 c 0
 263.21467355 154.33303285 241.252205822 167.642046746 224.219721905 188.222964812 c 0
 207.148472299 208.850724753 198.5 233.019280237 198.5 260 c 0
 198.5 287.600506399 207.113419185 312.250958228 224.179595531 333.22813332 c 0
 241.23293966 354.189535478 263.292720305 367.392268558 289.59957436 372.369240947 c 0
 290.053315324 372.455083832 290.521453688 372.5 291 372.5 c 0
 291.700881451 372.5 292.379437138 372.403651739 293.023133485 372.223488813 c 0
 299.927098206 373.753176004 307.259204949 374.499999975 315 374.5 c 0
 322.307931768 374.5 329.601825138 373.725709597 336.862149756 372.190385746 c 0
 337.539759757 372.391825005 338.257346754 372.5 339 372.5 c 0
315 359.5 m 0
 306.920262874 359.5 299.58981965 358.567255003 292.975436731 356.763332389 c 0
 292.34594829 356.591653723 291.683593119 356.5 291 356.5 c 0
 290.195204432 356.5 289.419845512 356.627035733 288.692898942 356.862131499 c 0
 267.366487937 352.045802161 249.956454512 341.147428189 235.820404469 323.77186668 c 0
 220.886580815 305.415708439 213.5 284.399493601 213.5 260 c 0
 213.5 236.314053097 220.851527701 215.815941914 235.780278095 197.777035188 c 0
 249.940012077 180.667356627 267.443982394 169.579153103 288.88245865 164.196391915 c 0
 289.554091882 164.393974614 290.264761873 164.5 291 164.5 c 0
 291.683593119 164.5 292.34594829 164.408346277 292.975436731 164.236667611 c 0
 299.58981965 162.432744997 306.920262874 161.5 315 161.5 c 0
 322.362197013 161.5 329.744006626 162.418263466 337.177679343 164.276681645 c 0
 337.761150575 164.422549453 338.371601889 164.5 339 164.5 c 0
 339.804795568 164.5 340.580154488 164.372964267 341.307101058 164.137868501 c 0
 362.633512063 168.954197839 380.043545488 179.852571811 394.179595531 197.22813332 c 0
 409.14358091 215.621365348 416.5 236.314320952 416.5 260 c 0
 416.5 284.400208607 409.117430302 305.221567165 394.219721905 323.222964812 c 0
 380.059987923 340.332643373 362.556017606 351.420846897 341.11754135 356.803608085 c 0
 340.445908118 356.606025386 339.735238127 356.5 339 356.5 c 0
 338.371601889 356.5 337.761150575 356.577450547 337.177679343 356.723318355 c 0
 329.744006626 358.581736534 322.362197013 359.5 315 359.5 c 0
339 677.5 m 0
 339.545506845 677.5 340.077489302 677.441634642 340.590037994 677.330813303 c 0
 366.78532645 671.66696715 388.747794178 658.357953254 405.780278095 637.777035188 c 0
 422.882569698 617.111766168 431.5 592.599791393 431.5 565 c 0
 431.5 538.019012381 422.85641909 513.711967985 405.820404469 492.77186668 c 0
 388.76706034 471.810464522 366.707279695 458.607731442 340.40042564 453.630759053 c 0
 339.946684676 453.544916168 339.478546312 453.5 339 453.5 c 0
 338.257346757 453.5 337.539759764 453.608175002 336.862149767 453.809614254 c 0
 329.601825144 452.27429041 322.30793177 451.500000005 315 451.5 c 0
 307.259205011 451.5 299.927098327 452.246823958 293.023133675 453.776511195 c 0
 292.379437263 453.596348208 291.700881508 453.5 291 453.5 c 0
 290.454493155 453.5 289.922510698 453.558365358 289.409962006 453.669186697 c 0
 263.21467355 459.33303285 241.252205822 472.642046746 224.219721905 493.222964812 c 0
 207.148472299 513.850724753 198.5 538.019280237 198.5 565 c 0
 198.5 592.600506399 207.113419185 617.250958228 224.179595531 638.22813332 c 0
 241.23293966 659.189535478 263.292720305 672.392268558 289.59957436 677.369240947 c 0
 290.053315324 677.455083832 290.521453688 677.5 291 677.5 c 0
 291.700881451 677.5 292.379437138 677.403651739 293.023133485 677.223488813 c 0
 299.927098206 678.753176004 307.259204949 679.499999975 315 679.5 c 0
 322.307931768 679.5 329.601825138 678.725709597 336.862149756 677.190385746 c 0
 337.539759757 677.391825005 338.257346754 677.5 339 677.5 c 0
315 664.5 m 0
 306.920262874 664.5 299.58981965 663.567255003 292.975436731 661.763332389 c 0
 292.34594829 661.591653723 291.683593119 661.5 291 661.5 c 0
 290.195204432 661.5 289.419845512 661.627035733 288.692898942 661.862131499 c 0
 267.366487937 657.045802161 249.956454512 646.147428189 235.820404469 628.77186668 c 0
 220.886580815 610.415708439 213.5 589.399493601 213.5 565 c 0
 213.5 541.314053097 220.851527701 520.815941914 235.780278095 502.777035188 c 0
 249.940012077 485.667356627 267.443982394 474.579153103 288.88245865 469.196391915 c 0
 289.554091882 469.393974614 290.264761873 469.5 291 469.5 c 0
 291.683593119 469.5 292.34594829 469.408346277 292.975436731 469.236667611 c 0
 299.58981965 467.432744997 306.920262874 466.5 315 466.5 c 0
 322.362197013 466.5 329.744006626 467.418263466 337.177679343 469.276681645 c 0
 337.761150575 469.422549453 338.371601889 469.5 339 469.5 c 0
 339.804795568 469.5 340.580154488 469.372964267 341.307101058 469.137868501 c 0
 362.633512063 473.954197839 380.043545488 484.852571811 394.179595531 502.22813332 c 0
 409.14358091 520.621365348 416.5 541.314320952 416.5 565 c 0
 416.5 589.400208607 409.117430302 610.221567165 394.219721905 628.222964812 c 0
 380.059987923 645.332643373 362.556017606 656.420846897 341.11754135 661.803608085 c 0
 340.445908118 661.606025386 339.735238127 661.5 339 661.5 c 0
 338.371601889 661.5 337.761150575 661.577450547 337.177679343 661.723318355 c 0
 329.744006626 663.581736534 322.362197013 664.5 315 664.5 c 0
317 -4.5 m 0
 314.333333333 -4.5 311.666666667 -4.5 309 -4.5 c 0
 303.498681365 -4.5 298.559511684 -4.17093773081 294.123498342 -3.45730755251 c 0
 225.187002665 1.40059500041 166.532830795 29.1340261968 119.050439481 79.349216452 c 0
 71.4574945577 129.681323673 47.5 190.206835082 47.5 260 c 0
 47.5 316.351678152 63.6370502615 367.525485185 95.7560122008 412.999500011 c 1
 63.6477412397 458.437970839 47.5000000074 509.275282137 47.5 565 c 0
 47.5 634.793177692 71.4524141653 695.628691695 119.015560606 746.613647232 c 0
 166.495405806 797.509308634 225.184829077 825.275014648 294.161016877 829.46333192 c 0
 298.587356579 830.172790193 303.514185895 830.5 309 830.5 c 2
 317 830.5 l 2
 390.200002325 830.5 453.136059684 804.468462191 504.802260938 752.802260938 c 0
 556.468462191 701.136059684 582.5 638.200002325 582.5 565 c 0
 582.5 509.275282138 566.352258765 458.437970837 534.243987792 412.999500011 c 1
 566.362949743 367.525485188 582.5 316.351678151 582.5 260 c 0
 582.5 186.799928901 556.465628407 124.018906249 504.784481003 72.6800180994 c 0
 453.114213437 21.3519377363 390.185730439 -4.5 317 -4.5 c 0
309 10.5 m 0
 311.666666667 10.5 314.333333333 10.5 317 10.5 c 0
 386.480936228 10.5 445.219119896 34.6480622637 494.215518997 83.3199819006 c 0
 543.201038259 131.981093751 567.5 190.533404433 567.5 260 c 0
 567.5 315.141385786 551.374897713 364.47101753 518.953853786 408.563637271 c 0
 518.04006171 409.806394494 517.5 411.340625852 517.5 413 c 0
 517.5 414.659374148 518.04006171 416.193605506 518.953853786 417.436362729 c 0
 551.386672909 461.544996737 567.5 510.545138536 567.5 565 c 0
 567.5 634.466664342 543.198204476 693.197273649 494.197739062 742.197739062 c 0
 445.197273649 791.198204476 386.466664342 815.5 317 815.5 c 2
 309 815.5 l 2
 303.542286659 815.5 299.382740634 814.746932868 295.450823561 814.513353636 c 0
 229.928345463 810.620929194 175.082222383 784.728580577 129.984439394 736.386352768 c 0
 84.880919168 688.037974972 62.5 631.206822308 62.5 565 c 0
 62.5 510.545138536 78.6133270908 461.544996737 111.046146214 417.436362729 c 0
 111.95993829 416.193605506 112.5 414.659374148 112.5 413 c 0
 112.5 411.340625852 111.95993829 409.806394494 111.046146214 408.563637271 c 0
 78.6251022872 364.47101753 62.5 315.141385786 62.5 260 c 0
 62.5 193.793164918 84.8758387756 137.318676327 129.949560519 89.650783548 c 0
 175.053191465 41.9512601739 229.947061064 16.0268793353 295.525165824 11.4818621737 c 0
 299.421325646 11.211831295 303.572832442 10.5 309 10.5 c 0
EndSplineSet
EndChar

StartChar: nine
Encoding: 57 57 27
Width: 729
VWidth: 0
Flags: HW
LayerCount: 2
Fore
SplineSet
282 153.5 m 0
 336.940199833 153.5 384.697025091 171.448871453 426.064903625 207.645765171 c 0
 461.119662468 238.318679158 484.207364547 275.219838967 495.569414814 318.817194759 c 1
 451.041304838 277.72052034 397.530310551 255.181526393 335.690216603 251.52739793 c 0
 330.374956235 250.870304466 321.207774074 250.499143215 321 250.5 c 2
 313 250.5 l 2
 250.716388639 250.5 195.093886061 269.953177052 146.8150055 308.644762182 c 0
 98.5718078707 347.307750353 67.3823279005 396.754979993 53.6902940363 456.315327303 c 0
 49.3037755168 475.396682863 47.5 495.557831824 47.5 516 c 0
 47.5 543.432252152 51.6272594 570.230480197 59.8533611599 596.279802437 c 0
 80.3536840683 660.51414755 120.286074166 710.136308968 178.979129667 744.337675057 c 0
 212.549601511 767.572943982 246.983213223 779.499999028 282 779.5 c 2
 288.685679544 779.5 l 2
 296.787648406 780.166506108 304.892862672 780.5 313 780.5 c 0
 315.666666667 780.5 318.333333333 780.5 321 780.5 c 0
 327.07821864 780.5 331.983787365 780.205747888 336.054122687 779.436564733 c 0
 390.415725544 774.610220135 438.965595364 755.827906007 481.241977547 723.199151263 c 1
 539.502590125 687.886540892 585.857819232 639.590497712 620.045430687 578.662078998 c 0
 654.341314471 517.540701958 671.5 450.543349658 671.5 378 c 0
 671.5 267.522969895 633.352510773 172.784103521 557.372398925 94.7688101044 c 0
 481.397097458 16.7584559201 389.268134908 -22.5 282 -22.5 c 0
 226.426705296 -22.5 186.539936356 -20.2188533715 161.56245352 -15.3621205979 c 0
 158.109792745 -14.6907698917 155.5 -11.6477547872 155.5 -8 c 2
 155.5 158 l 2
 155.5 162.1393625 158.8606375 165.5 163 165.5 c 0
 163.828222197 165.5 164.625269074 165.365460912 165.370459145 165.117064222 c 0
 174.125684304 162.198655835 192.260093186 159.281293713 218.661071123 156.971208144 c 0
 245.192668481 154.649693375 266.363368487 153.5 282 153.5 c 0
282 138.5 m 0
 256.798807183 138.5 193.96838621 143.09060821 170.5 148.237918748 c 1
 170.5 -1.70770187104 l 1
 194.106334669 -5.49352433402 231.472854 -7.5 282 -7.5 c 0
 385.398531758 -7.5 473.269569209 29.9082107466 546.627601075 105.231189896 c 0
 619.98082256 180.549229813 656.5 271.143696772 656.5 378 c 0
 656.5 448.123317008 639.992018863 512.459298042 606.954569313 571.337921002 c 0
 573.881063796 630.280802121 529.359966943 676.576148422 473.127380022 710.57724749 c 0
 472.880092291 710.726770304 472.6421164 710.890169046 472.414534855 711.066361209 c 0
 432.206485544 742.19517358 386.337577237 759.978910125 334.338928877 764.528791856 c 0
 331.120833687 764.810375185 327.365403303 765.5 321 765.5 c 0
 318.333333333 765.5 315.666666667 765.5 313 765.5 c 0
 305.212441054 765.5 297.422908765 765.175547005 289.630028589 764.526140324 c 0
 289.422296787 764.50882934 289.212171359 764.5 289 764.5 c 2
 282 764.5 l 2
 250.436184577 764.5 218.952990019 753.819088814 187.268382734 731.833851106 c 0
 187.104103434 731.719861388 186.935059348 731.612265062 186.761611828 731.51142348 c 0
 130.929679934 699.05099796 93.6161455685 652.724651979 74.1466388401 591.720197563 c 0
 66.3727406 567.102853136 62.5 541.901081182 62.5 516 c 0
 62.5 496.529086258 64.4441341629 477.747240686 68.3221272678 459.630663398 c 0
 81.3029338354 403.215533131 110.442788178 357.013885167 156.1849945 320.355237818 c 0
 201.906113939 283.713489615 253.950278028 265.5 313 265.5 c 2
 321 265.5 l 2
 324.682701216 265.5 329.386278283 266.18590002 334.557854221 266.487156871 c 0
 401.379087546 270.3796559 457.020308657 297.069800866 502.449675015 347.04210386 c 0
 503.822030954 348.551695393 505.801145176 349.5 508 349.5 c 0
 512.1393625 349.5 515.5 346.1393625 515.5 342 c 0
 515.5 341.607461107 515.469778213 341.221925189 515.411536498 340.845594104 c 0
 506.492713022 283.21627318 479.868010809 234.795534959 435.935096375 196.354234829 c 0
 391.969641576 157.88446188 340.393133501 138.5 282 138.5 c 0
307 385.5 m 0
 306.454493155 385.5 305.922510698 385.558365358 305.409962006 385.669186697 c 0
 279.21467355 391.33303285 257.252205822 404.642046746 240.219721905 425.222964812 c 0
 223.117430302 445.888233832 214.5 470.400208607 214.5 498 c 0
 214.5 524.980987619 223.14358091 549.288032015 240.179595531 570.22813332 c 0
 257.23293966 591.189535478 279.292720305 604.392268558 305.59957436 609.369240947 c 0
 306.053315324 609.455083832 306.521453688 609.5 307 609.5 c 0
 307.742653243 609.5 308.460240236 609.391824998 309.137850233 609.190385746 c 0
 316.398174856 610.72570959 323.69206823 611.499999995 331 611.5 c 0
 338.740794989 611.5 346.072901673 610.753176042 352.976866325 609.223488805 c 0
 353.620562737 609.403651792 354.299118492 609.5 355 609.5 c 0
 359.0856148 609.5 364.045773945 608.167482265 367.000415366 606.874826644 c 0
 377.906071963 602.103601883 388.795629908 596.65781309 399.668975023 590.541556463 c 0
 399.923746847 590.398247313 400.16932117 590.240485477 400.404582947 590.069386003 c 0
 431.525411946 567.436055822 447.5 536.228659002 447.5 498 c 0
 447.5 470.399493601 438.886580815 445.749041772 421.820404469 424.77186668 c 0
 404.76706034 403.810464522 382.707279695 390.607731442 356.40042564 385.630759053 c 0
 355.946684676 385.544916168 355.478546312 385.5 355 385.5 c 0
 354.21998616 385.5 353.467624019 385.619332672 352.76018976 385.840721867 c 0
 345.424932497 384.359669474 331.488144808 383.495127557 330.974036331 383.496003799 c 0
 323.674792378 383.497835548 316.389576666 384.276108644 309.137850244 385.809614254 c 0
 308.460240243 385.608174995 307.742653246 385.5 307 385.5 c 0
331 398.5 m 0
 337.638792061 398.5 345.089793385 399.411508522 353.309235984 401.308302968 c 0
 353.852697124 401.433717077 354.418669042 401.5 355 401.5 c 0
 355.804795568 401.5 356.580154488 401.372964267 357.307101058 401.137868501 c 0
 378.633512063 405.954197839 396.043545488 416.852571811 410.179595531 434.22813332 c 0
 425.113419185 452.584291561 432.5 473.600506399 432.5 498 c 0
 432.5 531.627692013 419.254657914 557.674881841 391.9461511 577.67464189 c 0
 381.807668943 583.361994345 371.684418118 588.426603572 361.576293315 592.872197823 c 0
 360.245609954 593.198440531 358.818535163 593.527647188 357.297018152 593.858878599 c 0
 356.572986467 593.625864133 355.801075816 593.5 355 593.5 c 0
 354.316406881 593.5 353.65405171 593.591653723 353.024563269 593.763332389 c 0
 346.41018035 595.567255003 339.079737126 596.5 331 596.5 c 0
 323.637802987 596.5 316.255993374 595.581736534 308.822320657 593.723318355 c 0
 308.238849425 593.577450547 307.628398111 593.5 307 593.5 c 0
 306.195204432 593.5 305.419845512 593.627035733 304.692898942 593.862131499 c 0
 283.366487937 589.045802161 265.956454512 578.147428189 251.820404469 560.77186668 c 0
 236.85641909 542.378634652 229.5 521.685679048 229.5 498 c 0
 229.5 473.599791393 236.882569698 452.778432835 251.780278095 434.777035188 c 0
 265.940012077 417.667356627 283.443982394 406.579153103 304.88245865 401.196391915 c 0
 305.554091882 401.393974614 306.264761873 401.5 307 401.5 c 0
 307.628398111 401.5 308.238849425 401.422549453 308.822320657 401.276681645 c 0
 316.255993374 399.418263466 323.637802987 398.5 331 398.5 c 0
EndSplineSet
EndChar

StartChar: colon
Encoding: 58 58 28
Width: 252
VWidth: 0
Flags: HW
LayerCount: 2
Fore
SplineSet
47.5 398 m 2
 47.5 540 l 2
 47.5 544.1393625 50.8606375 547.5 55 547.5 c 2
 207 547.5 l 2
 211.1393625 547.5 214.5 544.1393625 214.5 540 c 2
 214.5 398 l 2
 214.5 393.8606375 211.1393625 390.5 207 390.5 c 2
 55 390.5 l 2
 50.8606375 390.5 47.5 393.8606375 47.5 398 c 2
62.5 532.5 m 1
 62.5 405.5 l 1
 199.5 405.5 l 1
 199.5 532.5 l 1
 62.5 532.5 l 1
47.5 -2 m 2
 47.5 140 l 2
 47.5 144.1393625 50.8606375 147.5 55 147.5 c 2
 207 147.5 l 2
 211.1393625 147.5 214.5 144.1393625 214.5 140 c 2
 214.5 -2 l 2
 214.5 -6.1393625 211.1393625 -9.5 207 -9.5 c 2
 55 -9.5 l 2
 50.8606375 -9.5 47.5 -6.1393625 47.5 -2 c 2
62.5 132.5 m 1
 62.5 5.5 l 1
 199.5 5.5 l 1
 199.5 132.5 l 1
 62.5 132.5 l 1
EndSplineSet
EndChar

StartChar: semicolon
Encoding: 59 59 29
Width: 252
VWidth: 0
Flags: HW
LayerCount: 2
Fore
SplineSet
47.5 -2 m 2
 47.5 140 l 2
 47.5 144.1393625 50.8606375 147.5 55 147.5 c 2
 207 147.5 l 2
 211.1393625 147.5 214.5 144.1393625 214.5 140 c 2
 214.5 -2 l 2
 214.5 -3.10417308793 214.260872754 -4.15293574702 213.831624639 -5.09728159867 c 2
 153.831624639 -137.097281599 l 2
 152.651692483 -139.693132341 150.035189412 -141.5 147 -141.5 c 0
 146.824329472 -141.5 146.650061483 -141.493947252 146.477393384 -141.482039108 c 2
 88.4773933837 -137.482039108 l 2
 84.5814458582 -137.213353071 81.5 -133.963691972 81.5 -130 c 0
 81.5 -129.820905325 81.5062910059 -129.643268398 81.5186639009 -129.467298336 c 2
 89.9538645652 -9.5 l 1
 55 -9.5 l 2
 50.8606375 -9.5 47.5 -6.1393625 47.5 -2 c 2
62.5 132.5 m 1
 62.5 5.5 l 1
 98 5.5 l 2
 102.1393625 5.5 105.5 2.1393625 105.5 -2 c 0
 105.5 -2.17909467533 105.493708994 -2.35673160237 105.481336099 -2.53270166419 c 2
 97.0085720805 -123.034234373 l 1
 142.324400137 -126.159463894 l 1
 199.5 -0.373144195275 l 1
 199.5 132.5 l 1
 62.5 132.5 l 1
47.5 398 m 2
 47.5 540 l 2
 47.5 544.1393625 50.8606375 547.5 55 547.5 c 2
 207 547.5 l 2
 211.1393625 547.5 214.5 544.1393625 214.5 540 c 2
 214.5 398 l 2
 214.5 393.8606375 211.1393625 390.5 207 390.5 c 2
 55 390.5 l 2
 50.8606375 390.5 47.5 393.8606375 47.5 398 c 2
62.5 532.5 m 1
 62.5 405.5 l 1
 199.5 405.5 l 1
 199.5 532.5 l 1
 62.5 532.5 l 1
EndSplineSet
EndChar

StartChar: less
Encoding: 60 60 30
Width: 644
VWidth: 0
Flags: HW
LayerCount: 2
Fore
SplineSet
606.5 546 m 2
 606.5 394 l 2
 606.5 390.517467272 604.121269943 387.586132514 600.90135101 386.743536905 c 2
 418.624816428 339.045004491 l 1
 600.45035487 303.359618442 l 2
 603.896659606 302.683240877 606.5 299.643242712 606.5 296 c 2
 606.5 144 l 2
 606.5 139.8606375 603.1393625 136.5 599 136.5 c 0
 598.507377815 136.5 598.025784859 136.54759734 597.559573073 136.638440077 c 2
 53.5595730728 242.638440077 l 2
 50.1083413359 243.310922732 47.5 246.353259685 47.5 250 c 2
 47.5 403 l 2
 47.5 406.479654806 49.8748001767 409.409022274 53.0906680134 410.254369885 c 2
 597.090668013 553.254369885 l 2
 597.70036434 553.414639324 598.340292306 553.5 599 553.5 c 0
 603.1393625 553.5 606.5 550.1393625 606.5 546 c 2
377.5 338 m 0
 377.5 341.482532728 379.878730057 344.413867486 383.09864899 345.256463095 c 2
 591.5 399.791396069 l 1
 591.5 536.272221155 l 1
 62.5 397.215235861 l 1
 62.5 256.180834287 l 1
 591.5 153.103628405 l 1
 591.5 289.827695088 l 1
 383.54964513 330.640381558 l 2
 380.103340394 331.316759123 377.5 334.356757288 377.5 338 c 0
EndSplineSet
EndChar

StartChar: equal
Encoding: 61 61 31
Width: 644
VWidth: 0
Flags: HW
LayerCount: 2
Fore
SplineSet
606.5 296 m 2
 606.5 144 l 2
 606.5 139.8606375 603.1393625 136.5 599 136.5 c 2
 55 136.5 l 2
 50.8606375 136.5 47.5 139.8606375 47.5 144 c 2
 47.5 296 l 2
 47.5 300.1393625 50.8606375 303.5 55 303.5 c 2
 599 303.5 l 2
 603.1393625 303.5 606.5 300.1393625 606.5 296 c 2
591.5 151.5 m 1
 591.5 288.5 l 1
 62.5 288.5 l 1
 62.5 151.5 l 1
 591.5 151.5 l 1
606.5 546 m 2
 606.5 394 l 2
 606.5 389.8606375 603.1393625 386.5 599 386.5 c 2
 55 386.5 l 2
 50.8606375 386.5 47.5 389.8606375 47.5 394 c 2
 47.5 546 l 2
 47.5 550.1393625 50.8606375 553.5 55 553.5 c 2
 599 553.5 l 2
 603.1393625 553.5 606.5 550.1393625 606.5 546 c 2
591.5 401.5 m 1
 591.5 538.5 l 1
 62.5 538.5 l 1
 62.5 401.5 l 1
 591.5 401.5 l 1
EndSplineSet
EndChar

StartChar: greater
Encoding: 62 62 32
Width: 644
VWidth: 0
Flags: HW
LayerCount: 2
Fore
SplineSet
606.5 403 m 2
 606.5 250 l 2
 606.5 246.353259685 603.891658664 243.310922732 600.440426927 242.638440077 c 2
 56.4404269272 136.638440077 l 2
 55.9742151407 136.54759734 55.4926221845 136.5 55 136.5 c 0
 50.8606375 136.5 47.5 139.8606375 47.5 144 c 2
 47.5 296 l 2
 47.5 299.643242712 50.1033403939 302.683240877 53.5496451297 303.359618442 c 2
 235.375183572 339.045004491 l 1
 53.0986489901 386.743536905 l 2
 49.8787300571 387.586132514 47.5 390.517467272 47.5 394 c 2
 47.5 546 l 2
 47.5 550.1393625 50.8606375 553.5 55 553.5 c 0
 55.6597076935 553.5 56.29963566 553.414639324 56.9093319866 553.254369885 c 2
 600.909331987 410.254369885 l 2
 604.125199823 409.409022274 606.5 406.479654806 606.5 403 c 2
276.5 338 m 0
 276.5 334.356757288 273.896659606 331.316759123 270.45035487 330.640381558 c 2
 62.5 289.827695088 l 1
 62.5 153.103628405 l 1
 591.5 256.180834287 l 1
 591.5 397.215235861 l 1
 62.5 536.272221155 l 1
 62.5 399.791396069 l 1
 270.90135101 345.256463095 l 2
 274.121269943 344.413867486 276.5 341.482532728 276.5 338 c 0
EndSplineSet
EndChar

StartChar: question
Encoding: 63 63 33
Width: 384
VWidth: 0
Flags: HW
LayerCount: 2
Fore
SplineSet
47.5 -2 m 2
 47.5 140 l 2
 47.5 144.1393625 50.8606375 147.5 55 147.5 c 2
 207 147.5 l 2
 211.1393625 147.5 214.5 144.1393625 214.5 140 c 2
 214.5 -2 l 2
 214.5 -6.1393625 211.1393625 -9.5 207 -9.5 c 2
 55 -9.5 l 2
 50.8606375 -9.5 47.5 -6.1393625 47.5 -2 c 2
62.5 132.5 m 1
 62.5 5.5 l 1
 199.5 5.5 l 1
 199.5 132.5 l 1
 62.5 132.5 l 1
81 836.5 m 0
 154.185730439 836.5 217.114213437 810.648062264 268.784481003 759.319981901 c 0
 320.465628407 707.981093751 346.5 645.200071099 346.5 572 c 0
 346.5 522.715338847 334.129055083 477.304466034 309.435965973 436.149317516 c 0
 285.576201355 396.383043154 253.839050986 365.094803594 214.5 342.606985586 c 1
 214.5 230 l 2
 214.5 225.8606375 211.1393625 222.5 207 222.5 c 2
 55 222.5 l 2
 50.8606375 222.5 47.5 225.8606375 47.5 230 c 2
 47.5 468 l 2
 47.5 472.1393625 50.8606375 475.5 55 475.5 c 0
 55.6283981108 475.5 56.2388494251 475.422549453 56.8223206573 475.276681645 c 0
 64.1608434887 473.442050937 72.2119373021 472.5 81 472.5 c 0
 109.184552993 472.5 132.400793549 482.005315424 151.697739063 501.302260938 c 0
 170.994684576 520.599206451 180.5 543.815447007 180.5 572 c 0
 180.5 599.469894902 171.02923181 622.366246315 151.697739063 641.697739062 c 0
 132.400793549 660.994684576 109.184552993 670.5 81 670.5 c 0
 72.2119373021 670.5 64.1608434887 669.557949063 56.8223206573 667.723318355 c 0
 56.2388494251 667.577450547 55.6283981108 667.5 55 667.5 c 0
 50.8606375 667.5 47.5 670.8606375 47.5 675 c 2
 47.5 828 l 2
 47.5 831.856799499 50.4174866103 835.037560669 54.1640182875 835.453841967 c 0
 60.6611336662 836.175743675 69.5073686045 836.5 81 836.5 c 0
199.5 237.5 m 1
 199.5 347 l 2
 199.5 349.832497056 201.073597589 352.300360978 203.393518457 353.576317455 c 0
 242.250326224 374.947561727 273.206005681 404.920635241 296.564034027 443.850682484 c 0
 319.870944917 482.695533966 331.5 525.284661153 331.5 572 c 0
 331.5 641.466595567 307.201038259 700.018906249 258.215518997 748.680018099 c 0
 209.219119896 797.351937736 150.480936228 821.5 81 821.5 c 0
 73.6389576599 821.5 67.4439622219 821.351404578 62.5 821.075194395 c 1
 62.5 684.145568804 l 1
 68.4102558381 685.053051083 74.5791556704 685.5 81 685.5 c 0
 112.815447007 685.5 140.265873118 674.338648757 162.302260937 652.302260938 c 0
 184.304101524 630.300420351 195.5 603.196771765 195.5 572 c 0
 195.5 540.184552993 184.338648757 512.734126882 162.302260937 490.697739062 c 0
 140.265873118 468.661351243 112.815447007 457.5 81 457.5 c 0
 74.5791556704 457.5 68.4102558381 457.946948917 62.5 458.854431196 c 1
 62.5 237.5 l 1
 199.5 237.5 l 1
EndSplineSet
EndChar

StartChar: .notdef
Encoding: 64 -1 34
Width: 864
VWidth: 0
Flags: HW
LayerCount: 2
Fore
SplineSet
521.5 166 m 0
 521.5 170.1393625 524.8606375 173.5 529 173.5 c 0
 533.1393625 173.5 536.5 170.1393625 536.5 166 c 0
 536.5 161.8606375 533.1393625 158.5 529 158.5 c 0
 524.8606375 158.5 521.5 161.8606375 521.5 166 c 0
478 428.5 m 0
 487.280636603 428.5 497.5 428.548477019 497.5 420 c 2
 497.5 316 l 2
 497.5 312.489035611 495.08227113 309.538305973 491.822320657 308.723318355 c 0
 486.190156822 307.315277396 481.862951638 306.5 478 306.5 c 0
 460.830828088 306.5 445.830076017 312.688797652 434.113615448 324.783208561 c 0
 422.51557514 336.755379202 416.5 351.470442114 416.5 368 c 0
 416.5 384.530105098 422.52923181 399.133753685 434.197739062 410.802260938 c 0
 445.934835555 422.53935743 460.897774639 428.5 478 428.5 c 0
431.5 368 m 0
 431.5 355.196224553 435.817758193 344.577954132 444.886384552 335.216791439 c 0
 453.83659065 325.977869015 464.502505246 321.5 478 321.5 c 0
 478.837409964 321.5 480.389176194 321.668032283 482.5 322.045200569 c 1
 482.5 413.387287663 l 1
 481.171031849 413.45796515 479.663889687 413.5 478 413.5 c 0
 464.435558694 413.5 453.731831112 409.127309237 444.802260938 400.197739062 c 0
 435.804101524 391.199579649 431.5 380.803228235 431.5 368 c 0
558.5 236 m 0
 558.5 240.1393625 561.8606375 243.5 566 243.5 c 0
 570.1393625 243.5 573.5 240.1393625 573.5 236 c 0
 573.5 231.8606375 570.1393625 228.5 566 228.5 c 0
 561.8606375 228.5 558.5 231.8606375 558.5 236 c 0
659.450103363 325.719361189 m 0
 658.652263423 329.194644053 655.5 338.777191799 655.5 342 c 0
 655.5 342.42236192 655.534988414 342.836616344 655.602222434 343.240020465 c 0
 657.696515103 355.805776475 658.74 368.284455348 658.74 380.6856 c 0
 658.74 402.731172966 655.445562676 424.587343542 648.824322696 446.313287226 c 0
 638.51165858 480.151716356 620.583135675 509.812635601 594.737461618 535.658309658 c 0
 551.715149436 578.047940779 500.681438106 599.032846715 440.669295114 599.032846715 c 0
 376.094281069 599.032846715 323.174424489 576.569902614 278.302260938 531.697739062 c 0
 233.009750068 486.405228193 210.485294118 433.353309144 210.485294118 369.697123702 c 0
 210.485294118 309.095641379 231.594509186 257.647441819 274.302260938 214.302260937 c 0
 307.894799016 180.709722859 347.644031336 160.517302373 394.140083146 153.413738902 c 0
 406.354449821 151.547655105 418.361159323 150.619047619 430.16553288 150.619047619 c 0
 463.426098863 150.619047619 495.21266595 157.968608117 525.737516791 172.754082743 c 0
 527.889080658 173.796246491 530.376922253 174.257575758 532.723599633 174.257575758 c 0
 544.829272392 174.257575758 557.491081657 164.111796152 573.395158561 148.207719248 c 0
 592.248022139 128.681539113 609.436895917 108.798746256 624.955372761 88.5572547199 c 2
 647.955372761 58.5572547199 l 2
 648.924065589 57.2937423354 649.5 55.7135987639 649.5 54 c 0
 649.5 51.4068626588 648.181118472 49.119335791 646.178127319 47.7721912987 c 0
 579.582023784 2.98189157605 506.569448904 -19.5114285714 427.596865306 -19.5114285714 c 0
 415.650392148 -19.5114285714 403.573018849 -18.9982044535 391.3654365 -17.9734803877 c 0
 298.377049531 -10.1678858611 218.562998529 26.8324795956 152.697739063 92.6977390625 c 0
 78.3169225198 167.078555605 40.9454148472 257.850143442 40.9454148472 363.992791899 c 0
 40.9454148472 366.360591105 40.9639213389 368.735841068 41.0009197841 371.118540933 c 0
 42.6963557361 480.304616242 82.7410190946 574.34554097 160.697739063 652.302260938 c 0
 238.649756376 730.254278251 332.521930565 770.30344894 441.381090477 771.999074484 c 0
 443.756635762 772.036076747 446.12481007 772.054585153 448.485612403 772.054585153 c 0
 554.31588128 772.054585153 644.926141931 734.678379944 719.302260938 660.302260938 c 0
 776.417167965 603.18735391 812.159563155 532.635622925 826.39286753 449.269125869 c 0
 830.720112705 423.923832704 832.891304348 399.098373513 832.891304348 374.797731569 c 0
 832.891304348 319.250123981 821.526824128 266.548425777 798.824967695 216.88811483 c 0
 798.184479523 215.487046954 797.12510069 214.316903083 795.807423819 213.538275841 c 0
 780.778410084 204.657494997 765.695294267 197.45271324 750.560311973 191.949083315 c 0
 735.198475058 186.3629608 718.978084096 183.05582654 701.964497441 182.014178377 c 0
 684.208583135 180.927081583 670.667798316 179.964285714 657.520408163 179.964285714 c 0
 632.939750218 179.964285714 598.054485566 190.100741988 574.745865373 195.706613185 c 0
 563.691170091 198.359740053 499.496796442 217.593850583 489.629540855 220.882935778 c 0
 488.803989893 221.158119432 488.042083217 221.573041462 487.371940628 222.099582068 c 2
 475.380486236 231.52143909 l 1
 438.653920226 232.12443252 406.7939225 245.444693676 380.733238934 271.162473511 c 0
 354.032954554 297.511438359 340.5 330.139052098 340.5 368 c 0
 340.5 405.235552726 354.086696853 436.947921326 380.882444124 461.980790488 c 0
 407.589562098 486.930861227 440.279213915 499.5 478 499.5 c 2
 566 499.5 l 2
 570.036825199 499.5 573.333027587 496.303794933 573.49385282 492.306139143 c 2
 580.473296154 318.817119131 l 2
 581.561599198 313.099785378 585.6643581 305.743366384 593.898504486 297.204251613 c 0
 602.298071864 288.493589147 611.497126534 281.922604214 621.597281599 277.331624639 c 0
 624.808899969 275.871798107 627.67925922 275.256097561 630.305472933 275.256097561 c 0
 634.786678883 275.256097561 639.375098787 276.993576335 644.496628052 281.585292227 c 0
 651.62306348 287.974510197 657.430859817 302.233092159 659.450103363 325.719361189 c 0
670.611422043 342.062832195 m 0
 671.473927244 338.52331118 674.5 329.206104892 674.5 326 c 0
 674.5 325.793546794 674.491640159 325.589030725 674.475240814 325.386772131 c 0
 672.42271829 300.072327668 666.620307704 281.278167416 654.503371948 270.414707773 c 0
 647.364738611 264.014553747 639.156807137 260.256097561 630.305472933 260.256097561 c 0
 625.239836556 260.256097561 620.239880519 261.469665307 615.402718401 263.668375361 c 0
 603.502873466 269.077395786 592.701928136 276.839744186 583.101495514 286.795748387 c 0
 573.540122912 296.711245901 567.306289742 306.535575691 565.602222434 316.759979535 c 0
 565.551310896 317.065448762 565.518888844 317.377139504 565.50614718 317.693860857 c 2
 558.795555375 484.5 l 1
 478 484.5 l 2
 443.720786085 484.5 415.077104568 473.402472107 391.117555876 451.019209512 c 0
 367.24663648 428.71874534 355.5 401.431113941 355.5 368 c 0
 355.5 333.860947902 367.300378779 305.488561641 391.266761066 281.837526489 c 0
 415.255090257 258.164833208 443.83261989 246.5 478 246.5 c 0
 479.745759426 246.5 481.353007303 245.902244558 482.628059372 244.900417932 c 2
 495.592951073 234.71371731 l 1
 505.891467596 231.345695264 567.948770658 212.766674168 578.254134627 210.293386815 c 2
 617.757598799 200.792554537 l 2
 634.110522611 196.855739545 647.472609572 194.964285714 657.520408163 194.964285714 c 0
 670.196220877 194.964285714 683.58565338 195.91746351 701.035502559 196.985821623 c 0
 735.545957137 199.098706597 761.282880837 210.840373983 786.151917563 225.266907572 c 1
 807.320141758 272.362155465 817.891304037 322.14349971 817.891304348 374.797731569 c 0
 817.891304348 398.187070721 815.801626426 422.163123818 811.60713247 446.730874131 c 0
 797.840436845 527.364377075 763.582832035 594.81264609 708.697739062 649.697739062 c 0
 637.001077865 721.39440026 550.601746785 757.054585153 448.485612403 757.054585153 c 0
 338.644114523 757.054585153 248.11287625 718.508354375 171.302260937 641.697739062 c 0
 94.4989136766 564.894391802 55.9454148472 474.166342461 55.9454148472 363.992791899 c 0
 55.9454148472 261.551164695 91.6102972764 174.994224599 163.302260937 103.302260937 c 0
 226.770334804 39.8341870711 302.956283803 4.5012191944 392.6345635 -3.02651961234 c 0
 404.434600199 -4.01703364177 416.088470437 -4.51142857143 427.596865306 -4.51142857143 c 0
 501.006342583 -4.51142857143 568.71966383 15.5435169956 631.147644395 55.8301142071 c 1
 613.044627239 79.4427452801 l 2
 597.896437417 99.2012537445 581.085311195 118.65179422 562.604841439 137.792280752 c 0
 546.832150666 153.564971525 535.976359686 159.257575758 532.723599633 159.257575758 c 0
 532.373140572 159.257575758 532.212232689 159.213942717 532.137640245 159.185489167 c 0
 499.715766861 143.503202259 465.654575286 135.61904783 430.16553288 135.619047619 c 0
 417.55871974 135.619047619 404.788407322 136.611075054 391.859916854 138.586261098 c 0
 342.355968664 146.149364293 299.438534317 167.956943808 263.697739062 203.697739063 c 0
 218.38588297 249.685891514 195.485294118 305.369107756 195.485294118 369.697123702 c 0
 195.485294118 437.244083858 219.807390096 494.411911971 267.697739062 542.302260938 c 0
 315.209330871 589.813852746 372.246867326 614.032846715 440.669295114 614.032846715 c 0
 504.416826763 614.032846715 559.603585358 591.329188175 605.262538382 546.341690342 c 0
 632.750197658 518.854031066 652.155008087 486.848283644 663.175677304 450.686712774 c 0
 670.207770658 427.612656458 673.74 404.259227034 673.74 380.6856 c 0
 673.74 367.857197587 672.694930243 354.980061064 670.611422043 342.062832195 c 0
EndSplineSet
EndChar

StartChar: B
Encoding: 66 66 35
Width: 512
VWidth: 0
Flags: HW
LayerCount: 2
Fore
SplineSet
225 787.5 m 2
 298.200002325 787.5 361.136059684 761.468462191 412.802260938 709.802260938 c 0
 464.468462191 658.136059684 490.5 595.200002325 490.5 522 c 0
 490.5 505.089095935 485.304467446 488.652124062 475.33212278 472.981296729 c 0
 465.654341158 457.77335418 452.528494158 441.443170368 435.958529892 423.858718494 c 0
 424.103882975 411.278276868 415.470745603 401.998292581 410.197090704 396.184295053 c 1
 437.928912645 367.172533159 l 2
 458.504052814 345.58550085 473.343492013 327.089697653 482.498757253 311.244046277 c 0
 491.773676854 295.191300813 496.5 278.006702327 496.5 260 c 0
 496.5 186.799928901 470.465628407 124.018906249 418.784481003 72.6800180994 c 0
 367.114213437 21.3519377363 304.185730439 -4.5 231 -4.5 c 0
 220.449906632 -4.5 212.416028266 -4.19807421057 206.539591581 -3.5 c 2
 55 -3.5 l 2
 50.8606375 -3.5 47.5 -0.1393625 47.5 4 c 2
 47.5 780 l 2
 47.5 784.1393625 50.8606375 787.5 55 787.5 c 2
 225 787.5 l 2
62.5 11.5 m 1
 207 11.5 l 2
 207.317651001 11.5 207.630716176 11.4802095712 207.938028736 11.4417955012 c 0
 212.688479343 10.8479891753 220.50548389 10.5 231 10.5 c 0
 300.480936228 10.5 359.219119896 34.6480622637 408.215518997 83.3199819006 c 0
 457.201038259 131.981093751 481.5 190.533404433 481.5 260 c 0
 481.5 275.326631007 477.559656479 289.808699187 469.501242747 303.755953723 c 0
 461.323174653 317.910302347 447.162613852 335.747832483 427.071087355 356.827466841 c 2
 394.578614214 390.819581206 l 2
 393.291182566 392.166432777 392.5 393.991550203 392.5 396 c 0
 392.5 397.861326036 393.179515945 399.565195025 394.30379627 400.876855405 c 0
 398.537669049 405.816373647 408.664237174 416.761360842 425.041470108 434.141281506 c 0
 441.138172508 451.223496299 453.678992176 466.893312487 462.66787722 481.018703271 c 0
 471.362199221 494.681209272 475.5 508.244237398 475.5 522 c 0
 475.5 591.466664342 451.198204476 650.197273649 402.197739062 699.197739062 c 0
 353.197273649 748.198204476 294.466664342 772.5 225 772.5 c 2
 62.5 772.5 l 1
 62.5 11.5 l 1
199.5 136 m 2
 199.5 343 l 2
 199.5 346.510964389 201.91772887 349.461694027 205.177679343 350.276681645 c 0
 213.744006626 352.418263466 222.362197013 353.5 231 353.5 c 0
 262.815447007 353.5 290.265873118 342.338648757 312.302260938 320.302260938 c 0
 334.338648757 298.265873118 345.5 270.815447007 345.5 239 c 0
 345.5 207.803228235 334.304101524 180.699579649 312.302260938 158.697739063 c 0
 290.265873118 136.661351243 262.815447007 125.5 231 125.5 c 0
 222.362197013 125.5 213.744006626 126.581736534 205.177679343 128.723318355 c 0
 201.91772887 129.538305973 199.5 132.489035611 199.5 136 c 2
231 140.5 m 0
 259.184552993 140.5 282.400793549 150.005315424 301.697739062 169.302260937 c 0
 321.02923181 188.633753685 330.5 211.530105098 330.5 239 c 0
 330.5 267.184552993 320.994684576 290.400793549 301.697739062 309.697739062 c 0
 282.400793549 328.994684576 259.184552993 338.5 231 338.5 c 0
 225.515329545 338.5 220.019774266 337.990371729 214.5 336.962064118 c 1
 214.5 142.037935882 l 1
 220.019774266 141.009628271 225.515329545 140.5 231 140.5 c 0
199.5 454 m 2
 199.5 661 l 2
 199.5 664.510964389 201.91772887 667.461694027 205.177679343 668.276681645 c 0
 213.744006626 670.418263466 222.362197013 671.5 231 671.5 c 0
 262.815447007 671.5 290.265873118 660.338648757 312.302260937 638.302260938 c 0
 334.338648757 616.265873118 345.5 588.815447007 345.5 557 c 0
 345.5 525.803228235 334.304101524 498.699579649 312.302260938 476.697739062 c 0
 290.265873118 454.661351243 262.815447007 443.5 231 443.5 c 0
 222.362197013 443.5 213.744006626 444.581736534 205.177679343 446.723318355 c 0
 201.91772887 447.538305973 199.5 450.489035611 199.5 454 c 2
330.5 557 m 0
 330.5 585.184552993 320.994684576 608.400793549 301.697739063 627.697739062 c 0
 282.400793549 646.994684576 259.184552993 656.5 231 656.5 c 0
 225.515329545 656.5 220.019774266 655.990371729 214.5 654.962064118 c 1
 214.5 460.037935882 l 1
 220.019774266 459.009628271 225.515329545 458.5 231 458.5 c 0
 259.184552993 458.5 282.400793549 468.005315424 301.697739062 487.302260938 c 0
 321.02923181 506.633753685 330.5 529.530105098 330.5 557 c 0
EndSplineSet
EndChar

StartChar: C
Encoding: 67 67 36
Width: 555
VWidth: 0
Flags: HW
LayerCount: 2
Fore
SplineSet
437 604.5 m 0
 375.580722378 604.5 323.708408866 582.575004355 280.361076322 538.257209142 c 0
 237.009733744 493.935314118 215.5 440.845357303 215.5 378 c 0
 215.5 314.466462486 237.025074191 261.049001992 280.361076322 216.742790858 c 0
 323.708408866 172.424995645 375.580722378 150.5 437 150.5 c 0
 461.527625732 150.5 485.019828174 154.365449969 507.569306547 162.096699697 c 0
 508.331721894 162.358099245 509.149420366 162.5 510 162.5 c 0
 514.1393625 162.5 517.5 159.1393625 517.5 155 c 2
 517.5 -7 l 2
 517.5 -10.6477547872 514.890207255 -13.6907698917 511.43754648 -14.3621205979 c 0
 486.967585987 -19.1201684715 462.149011438 -21.5 437 -21.5 c 0
 329.722112942 -21.5 237.588509539 17.9340977367 161.616183122 96.2805593539 c 0
 85.6458405263 174.624975156 47.5 269.522937718 47.5 380 c 0
 47.5 490.477030105 85.6474892266 585.215896479 161.627601075 663.231189896 c 0
 237.602902542 741.24154408 329.731865092 780.5 437 780.5 c 0
 462.149011438 780.5 486.967585987 778.120168471 511.43754648 773.362120598 c 0
 514.890207255 772.690769892 517.5 769.647754787 517.5 766 c 2
 517.5 600 l 2
 517.5 595.8606375 514.1393625 592.5 510 592.5 c 0
 509.149420366 592.5 508.331721894 592.641900755 507.569306547 592.903300303 c 0
 485.019828174 600.634550031 461.527625732 604.5 437 604.5 c 0
437 135.5 m 0
 371.752610956 135.5 315.624924467 159.241671021 269.638923678 206.257209142 c 0
 223.641592476 253.284331341 200.5 310.866870847 200.5 378 c 0
 200.5 444.48797603 223.656932923 501.731352549 269.638923678 548.742790858 c 0
 315.624924467 595.758328979 371.752610956 619.5 437 619.5 c 0
 459.57254627 619.5 481.425778433 616.416740647 502.5 610.250447197 c 1
 502.5 759.764803308 l 1
 480.938425763 763.588679155 459.109722132 765.5 437 765.5 c 0
 333.601468242 765.5 245.730430791 728.091789253 172.372398925 652.768810104 c 0
 99.0191774401 577.450770187 62.5 486.856303228 62.5 380 c 0
 62.5 273.143728948 99.0208261404 182.375024844 172.383816878 106.719440646 c 0
 245.744823795 31.0659022633 333.611220392 -6.5 437 -6.5 c 0
 459.109722132 -6.5 480.938425763 -4.58867915453 502.5 -0.764803307822 c 1
 502.5 144.749552803 l 1
 481.425778433 138.583259353 459.57254627 135.5 437 135.5 c 0
EndSplineSet
EndChar

StartChar: D
Encoding: 68 68 37
Width: 630
VWidth: 0
Flags: HW
LayerCount: 2
Fore
SplineSet
81 773 m 0
 92.9949633875 773 108.828403573 773.817802041 128.359442841 775.472974861 c 0
 167.807188363 778.816004142 192.343490298 780.5 203 780.5 c 0
 310.268134908 780.5 402.397097458 741.24154408 478.372398925 663.231189896 c 0
 554.352510773 585.215896479 592.5 490.477030105 592.5 380 c 0
 592.5 307.456650342 575.341314471 240.459298042 541.045430687 179.337921002 c 0
 506.780444718 118.271609374 459.970094304 69.5791086794 400.89392612 33.5901786365 c 0
 341.770114009 -2.42777586814 276.966261417 -20.8207159086 207 -21.5 c 2
 55 -21.5 l 2
 50.8606375 -21.5 47.5 -18.1393625 47.5 -14 c 2
 47.5 768 l 2
 47.5 772.1393625 50.8606375 775.5 55 775.5 c 0
 55.8282221975 775.5 56.6252690744 775.365460912 57.370459145 775.117064222 c 0
 60.7817641887 773.979962541 69.0213238211 773 81 773 c 0
62.5 -6.5 m 1
 207 -6.5 l 2
 274.367071916 -5.8459507581 336.229885991 11.7611092015 393.10607388 46.4098213635 c 0
 450.029905696 81.0875579873 494.886221949 127.728390626 527.954569313 186.662078998 c 0
 560.992018863 245.540701958 577.5 309.876682992 577.5 380 c 0
 577.5 486.856303228 540.98082256 577.450770187 467.627601075 652.768810104 c 0
 394.269569209 728.091789253 306.398531758 765.5 203 765.5 c 0
 193.656509702 765.5 168.859478304 763.850662525 129.640557159 760.527025139 c 0
 109.838263094 758.848864625 93.6717032792 758 81 758 c 0
 73.7180758031 758 67.6200403377 758.226191497 62.5 758.834123255 c 1
 62.5 -6.5 l 1
199.5 143 m 2
 199.5 612 l 2
 199.5 616.1393625 202.8606375 619.5 207 619.5 c 0
 207.05423951 619.5 207.108345315 619.499422986 207.162311606 619.498274767 c 0
 271.695889214 618.125219924 326.939942943 593.878790402 371.90135986 547.20128887 c 0
 416.867032213 500.519369481 439.5 443.795797471 439.5 378 c 0
 439.5 312.204130356 416.869741068 255.32663963 371.920507343 208.318662375 c 0
 326.963992868 161.303070901 271.712102985 136.875125049 207.162311606 135.501725233 c 0
 207.108345315 135.500577014 207.05423951 135.5 207 135.5 c 0
 202.8606375 135.5 199.5 138.8606375 199.5 143 c 2
424.5 378 m 0
 424.5 440.204202529 403.46630112 492.813963853 361.09864014 536.79871113 c 0
 320.518790172 578.927410333 271.943363381 601.273060808 214.5 604.22418539 c 1
 214.5 150.776693063 l 1
 271.927643913 153.740277682 320.495421533 176.238454083 361.079492657 218.681337625 c 0
 403.463592265 263.006693704 424.5 315.795869644 424.5 378 c 0
EndSplineSet
EndChar

StartChar: E
Encoding: 69 69 38
Width: 668
VWidth: 0
Flags: HW
LayerCount: 2
Fore
SplineSet
56 -10.5 m 2
 51.6268007618 -10.5 47.5000002017 -6.37034170331 47.5 -2 c 2
 47.5 778 l 2
 47.5 782.1393625 50.8606375 785.5 55 785.5 c 2
 622 785.5 l 2
 626.122590644 785.5 629.472753975 782.166540569 629.499834656 778.050277042 c 2
 629.499834656 778.050277042 630.499834656 626.050277042 630.5 626 c 0
 630.5 621.8606375 627.1393625 618.5 623 618.5 c 2
 214.5 618.5 l 1
 214.5 492.5 l 1
 514 492.5 l 2
 518.122590644 492.5 521.472753975 489.166540569 521.499834656 485.050277042 c 2
 521.499834656 485.050277042 522.499834656 333.050277042 522.5 333 c 0
 522.5 328.8606375 519.1393625 325.5 515 325.5 c 2
 214.5 325.5 l 1
 214.5 156.5 l 1
 622 156.5 l 2
 626.122590644 156.5 629.472753975 153.166540569 629.499834656 149.050277042 c 2
 629.499834656 149.050277042 630.499834656 -2.94972295809 630.5 -3 c 0
 630.5 -7.1393625 627.1393625 -10.5 623 -10.5 c 2
 56 -10.5 l 2
207 477.5 m 2
 202.8606375 477.5 199.5 480.8606375 199.5 485 c 2
 199.5 626 l 2
 199.5 630.1393625 202.8606375 633.5 207 633.5 c 2
 615.450492468 633.5 l 1
 614.549176679 770.5 l 1
 62.5 770.5 l 1
 62.5 4.5 l 1
 615.450492468 4.5 l 1
 614.549176679 141.5 l 1
 207 141.5 l 2
 202.8606375 141.5 199.5 144.8606375 199.5 149 c 2
 199.5 333 l 2
 199.5 337.1393625 202.8606375 340.5 207 340.5 c 2
 507.450492468 340.5 l 1
 506.549176679 477.5 l 1
 207 477.5 l 2
EndSplineSet
EndChar

StartChar: F
Encoding: 70 70 39
Width: 668
VWidth: 0
Flags: HW
LayerCount: 2
Fore
SplineSet
515 325.5 m 2
 214.5 325.5 l 1
 214.5 -2 l 2
 214.5 -6.1393625 211.1393625 -9.5 207 -9.5 c 2
 55 -9.5 l 2
 50.8606375 -9.5 47.5 -6.1393625 47.5 -2 c 2
 47.5 778 l 2
 47.5 782.1393625 50.8606375 785.5 55 785.5 c 2
 622 785.5 l 2
 626.122590644 785.5 629.472753975 782.166540569 629.499834656 778.050277042 c 2
 629.499834656 778.050277042 630.499834656 626.050277042 630.5 626 c 0
 630.5 621.8606375 627.1393625 618.5 623 618.5 c 2
 214.5 618.5 l 1
 214.5 492.5 l 1
 514 492.5 l 2
 518.122590644 492.5 521.472753975 489.166540569 521.499834656 485.050277042 c 2
 521.499834656 485.050277042 522.499834656 333.050277042 522.5 333 c 0
 522.5 328.8606375 519.1393625 325.5 515 325.5 c 2
207 477.5 m 2
 202.8606375 477.5 199.5 480.8606375 199.5 485 c 2
 199.5 626 l 2
 199.5 630.1393625 202.8606375 633.5 207 633.5 c 2
 615.450492468 633.5 l 1
 614.549176679 770.5 l 1
 62.5 770.5 l 1
 62.5 5.5 l 1
 199.5 5.5 l 1
 199.5 333 l 2
 199.5 337.1393625 202.8606375 340.5 207 340.5 c 2
 507.450492468 340.5 l 1
 506.549176679 477.5 l 1
 207 477.5 l 2
EndSplineSet
EndChar

StartChar: G
Encoding: 71 71 40
Width: 651
VWidth: 0
Flags: HW
LayerCount: 2
Fore
SplineSet
437 604.5 m 0
 375.580722378 604.5 323.708408866 582.575004355 280.361076322 538.257209142 c 0
 237.009733744 493.935314118 215.5 440.845357303 215.5 378 c 0
 215.5 314.466462486 237.025074191 261.049001992 280.361076322 216.742790858 c 0
 323.708408866 172.424995645 375.580722378 150.5 437 150.5 c 0
 440.286419186 150.5 443.453300286 150.605104427 446.5 150.812969711 c 1
 446.5 313 l 2
 446.5 317.1393625 449.8606375 320.5 454 320.5 c 2
 606 320.5 l 2
 610.1393625 320.5 613.5 317.1393625 613.5 313 c 2
 613.5 -14 l 2
 613.5 -18.1393625 610.1393625 -21.5 606 -21.5 c 2
 437 -21.5 l 2
 329.722112942 -21.5 237.588509539 17.9340977367 161.616183122 96.2805593539 c 0
 85.6458405263 174.624975156 47.5 269.522937718 47.5 380 c 0
 47.5 490.477030105 85.6474892266 585.215896479 161.627601075 663.231189896 c 0
 237.602902542 741.24154408 329.731865092 780.5 437 780.5 c 0
 462.149011438 780.5 486.967585987 778.120168471 511.43754648 773.362120598 c 0
 514.890207255 772.690769892 517.5 769.647754787 517.5 766 c 2
 517.5 600 l 2
 517.5 595.8606375 514.1393625 592.5 510 592.5 c 0
 509.149420366 592.5 508.331721894 592.641900755 507.569306547 592.903300303 c 0
 485.019828174 600.634550031 461.527625732 604.5 437 604.5 c 0
461.5 305.5 m 1
 461.5 144 l 2
 461.5 140.178288501 458.635356744 137.0203705 454.938028736 136.558204499 c 0
 449.261375211 135.848622808 443.283161029 135.5 437 135.5 c 0
 371.752610956 135.5 315.624924467 159.241671021 269.638923678 206.257209142 c 0
 223.641592476 253.284331341 200.5 310.866870847 200.5 378 c 0
 200.5 444.48797603 223.656932923 501.731352549 269.638923678 548.742790858 c 0
 315.624924467 595.758328979 371.752610956 619.5 437 619.5 c 0
 459.57254627 619.5 481.425778433 616.416740647 502.5 610.250447197 c 1
 502.5 759.764803308 l 1
 480.938425763 763.588679155 459.109722132 765.5 437 765.5 c 0
 333.601468242 765.5 245.730430791 728.091789253 172.372398925 652.768810104 c 0
 99.0191774401 577.450770187 62.5 486.856303228 62.5 380 c 0
 62.5 273.143728948 99.0208261404 182.375024844 172.383816878 106.719440646 c 0
 245.744823795 31.0659022633 333.611220392 -6.5 437 -6.5 c 2
 598.5 -6.5 l 1
 598.5 305.5 l 1
 461.5 305.5 l 1
EndSplineSet
EndChar

StartChar: H
Encoding: 72 72 41
Width: 652
VWidth: 0
Flags: HW
LayerCount: 2
Fore
SplineSet
455 781.5 m 2
 607 781.5 l 2
 611.1393625 781.5 614.5 778.1393625 614.5 774 c 2
 614.5 -2 l 2
 614.5 -6.1393625 611.1393625 -9.5 607 -9.5 c 2
 455 -9.5 l 2
 450.8606375 -9.5 447.5 -6.1393625 447.5 -2 c 2
 447.5 325.5 l 1
 214.5 325.5 l 1
 214.5 -2 l 2
 214.5 -6.1393625 211.1393625 -9.5 207 -9.5 c 2
 55 -9.5 l 2
 50.8606375 -9.5 47.5 -6.1393625 47.5 -2 c 2
 47.5 774 l 2
 47.5 778.1393625 50.8606375 781.5 55 781.5 c 2
 207 781.5 l 2
 211.1393625 781.5 214.5 778.1393625 214.5 774 c 2
 214.5 492.5 l 1
 447.5 492.5 l 1
 447.5 774 l 2
 447.5 778.1393625 450.8606375 781.5 455 781.5 c 2
599.5 766.5 m 1
 462.5 766.5 l 1
 462.5 485 l 2
 462.5 480.8606375 459.1393625 477.5 455 477.5 c 2
 207 477.5 l 2
 202.8606375 477.5 199.5 480.8606375 199.5 485 c 2
 199.5 766.5 l 1
 62.5 766.5 l 1
 62.5 5.5 l 1
 199.5 5.5 l 1
 199.5 333 l 2
 199.5 337.1393625 202.8606375 340.5 207 340.5 c 2
 455 340.5 l 2
 459.1393625 340.5 462.5 337.1393625 462.5 333 c 2
 462.5 5.5 l 1
 599.5 5.5 l 1
 599.5 766.5 l 1
EndSplineSet
EndChar

StartChar: I
Encoding: 73 73 42
Width: 252
VWidth: 0
Flags: HW
LayerCount: 2
Fore
SplineSet
55 781.5 m 2
 207 781.5 l 2
 211.1393625 781.5 214.5 778.1393625 214.5 774 c 2
 214.5 -2 l 2
 214.5 -6.1393625 211.1393625 -9.5 207 -9.5 c 2
 55 -9.5 l 2
 50.8606375 -9.5 47.5 -6.1393625 47.5 -2 c 2
 47.5 774 l 2
 47.5 778.1393625 50.8606375 781.5 55 781.5 c 2
199.5 766.5 m 1
 62.5 766.5 l 1
 62.5 5.5 l 1
 199.5 5.5 l 1
 199.5 766.5 l 1
EndSplineSet
EndChar

StartChar: J
Encoding: 74 74 43
Width: 419
VWidth: 0
Flags: HW
LayerCount: 2
Fore
SplineSet
47.5 6 m 2
 47.5 174 l 2
 47.5 178.1393625 50.8606375 181.5 55 181.5 c 0
 56.8322544998 181.5 58.5119320987 180.841544634 59.8151098873 179.748556811 c 0
 79.212519937 163.479761286 101.034113469 155.5 126 155.5 c 0
 155.716763434 155.5 179.834468467 166.113063173 199.5 187.838655859 c 1
 199.5 761 l 2
 199.5 765.1393625 202.8606375 768.5 207 768.5 c 2
 374 768.5 l 2
 378.1393625 768.5 381.5 765.1393625 381.49989671 760.960260031 c 2
 378.49989671 183.960260031 l 2
 378.496210049 183.251192225 378.393915145 182.565273402 378.206037168 181.915528732 c 0
 361.80036371 125.179241356 330.486439864 78.6909913987 284.592634473 43.0719185574 c 0
 238.63485422 7.40319358485 185.550728915 -10.5 126 -10.5 c 0
 100.713422285 -10.5 76.3913100012 -7.42219824706 53.0783057955 -1.2511088985 c 0
 49.868716007 -0.40151160156 47.5 2.52480543982 47.5 6 c 2
214.5 753.5 m 1
 214.5 185 l 2
 214.5 183.12664854 213.811675428 181.412795256 212.674357267 180.097771133 c 0
 190.001086149 153.881801402 160.69047161 140.5 126 140.5 c 0
 102.7901741 140.5 81.4920357585 146.761534289 62.5 159.115209326 c 1
 62.5 11.8417927969 l 1
 82.8208932834 6.95123001419 103.976127475 4.5 126 4.5 c 0
 182.449271085 4.5 232.031812447 21.2634730818 275.407365527 54.9280814426 c 0
 318.580564197 88.4356386194 347.839181379 131.620916125 363.505583145 185.093698872 c 1
 366.460901869 753.5 l 1
 214.5 753.5 l 1
EndSplineSet
EndChar

StartChar: K
Encoding: 75 75 44
Width: 703
VWidth: 0
Flags: HW
LayerCount: 2
Fore
SplineSet
55 781.5 m 2
 207 781.5 l 2
 211.1393625 781.5 214.5 778.1393625 214.5 774 c 2
 214.5 456.069412056 l 1
 445.929832331 774.403507957 l 2
 447.293659034 776.279465504 449.505418739 777.5 452.082133254 777.499558607 c 2
 638.082133254 775.499558607 l 2
 642.183725503 775.455455465 645.5 772.111950348 645.5 768 c 0
 645.5 766.430771002 645.017021946 764.973457403 644.191735393 763.768728756 c 2
 386.423103349 387.485783128 l 1
 713.720097258 1.84884166417 l 2
 714.830104441 0.540978216332 715.5 -1.15189698383 715.5 -3 c 0
 715.5 -7.1393625 712.1393625 -10.5 707.960191079 -10.4998963514 c 2
 515.960191079 -9.49989635137 l 2
 513.653556127 -9.48788262766 511.591897361 -8.43236181387 510.223608486 -6.78172761565 c 2
 264.562347002 289.571540207 l 1
 214.5 216.673736678 l 1
 214.5 -2 l 2
 214.5 -6.1393625 211.1393625 -9.5 207 -9.5 c 2
 55 -9.5 l 2
 50.8606375 -9.5 47.5 -6.1393625 47.5 -2 c 2
 47.5 774 l 2
 47.5 778.1393625 50.8606375 781.5 55 781.5 c 2
199.5 766.5 m 1
 62.5 766.5 l 1
 62.5 5.5 l 1
 199.5 5.5 l 1
 199.5 219 l 2
 199.5 220.572358799 199.984906559 222.032355328 200.813206752 223.238476663 c 2
 257.813206752 306.238476663 l 2
 259.165474227 308.207567897 261.432996299 309.5 264 309.5 c 0
 266.322714702 309.5 268.400235915 308.44185183 269.776391514 306.781727616 c 2
 519.5382771 5.48167516294 l 1
 691.727198785 4.5848578625 l 1
 371.279902742 382.151158336 l 2
 370.169895559 383.459021784 369.5 385.151896984 369.5 387 c 0
 369.5 388.569228998 369.982978054 390.026542597 370.808264607 391.231271244 c 2
 623.875619714 760.651433296 l 1
 455.789067568 762.458815577 l 1
 213.070167669 428.596492043 l 2
 211.706340966 426.720534496 209.494581261 425.5 207 425.5 c 0
 202.8606375 425.5 199.5 428.8606375 199.5 433 c 2
 199.5 766.5 l 1
EndSplineSet
EndChar

StartChar: L
Encoding: 76 76 45
Width: 718
VWidth: 0
Flags: HW
LayerCount: 2
Fore
SplineSet
56 -10.5 m 2
 51.6268007618 -10.5 47.5000002017 -6.37034170331 47.5 -2 c 2
 47.5 774 l 2
 47.5 778.1393625 50.8606375 781.5 55 781.5 c 2
 207 781.5 l 2
 211.1393625 781.5 214.5 778.1393625 214.5 774 c 2
 214.5 156.5 l 1
 672 156.5 l 2
 676.122590644 156.5 679.472753975 153.166540569 679.499834656 149.050277042 c 2
 679.499834656 149.050277042 680.499834656 -2.94972295809 680.5 -3 c 0
 680.5 -7.1393625 677.1393625 -10.5 673 -10.5 c 2
 56 -10.5 l 2
199.5 766.5 m 1
 62.5 766.5 l 1
 62.5 4.5 l 1
 665.450492468 4.5 l 1
 664.549176679 141.5 l 1
 207 141.5 l 2
 202.8606375 141.5 199.5 144.8606375 199.5 149 c 2
 199.5 766.5 l 1
EndSplineSet
EndChar

StartChar: M
Encoding: 77 77 46
Width: 1052
VWidth: 0
Flags: HW
LayerCount: 2
Fore
SplineSet
55 775.5 m 2
 207 775.5 l 2
 209.892822736 775.5 212.405315247 773.858660612 213.656212368 771.457247002 c 2
 531 162.23553124 l 1
 848.343787632 771.457247002 l 2
 849.594684753 773.858660612 852.107177264 775.5 855 775.5 c 2
 1007 775.5 l 2
 1011.1393625 775.5 1014.5 772.1393625 1014.5 768 c 2
 1014.5 -2 l 2
 1014.5 -6.1393625 1011.1393625 -9.5 1007 -9.5 c 2
 855 -9.5 l 2
 850.8606375 -9.5 847.5 -6.1393625 847.5 -2 c 2
 847.5 445.371958232 l 1
 613.655918542 -3.45781101858 l 2
 612.404921831 -5.85891760793 609.892596252 -7.5 607 -7.5 c 2
 455 -7.5 l 2
 452.107403748 -7.5 449.595078169 -5.85891760793 448.344081458 -3.45781101858 c 2
 214.5 445.371958232 l 1
 214.5 -2 l 2
 214.5 -6.1393625 211.1393625 -9.5 207 -9.5 c 2
 55 -9.5 l 2
 50.8606375 -9.5 47.5 -6.1393625 47.5 -2 c 2
 47.5 768 l 2
 47.5 772.1393625 50.8606375 775.5 55 775.5 c 2
62.5 760.5 m 1
 62.5 5.5 l 1
 199.5 5.5 l 1
 199.5 476 l 2
 199.5 480.1393625 202.8606375 483.5 207 483.5 c 0
 209.892596252 483.5 212.404921831 481.858917608 213.655918542 479.457811019 c 2
 459.549904114 7.5 l 1
 602.450095886 7.5 l 1
 848.344081458 479.457811019 l 2
 849.595078169 481.858917608 852.107403748 483.5 855 483.5 c 0
 859.1393625 483.5 862.5 480.1393625 862.5 476 c 2
 862.5 5.5 l 1
 999.5 5.5 l 1
 999.5 760.5 l 1
 859.550341032 760.5 l 1
 537.656212368 142.542752998 l 2
 536.405315247 140.141339388 533.892822736 138.5 531 138.5 c 0
 528.107177264 138.5 525.594684753 140.141339388 524.343787632 142.542752998 c 2
 202.449658968 760.5 l 1
 62.5 760.5 l 1
EndSplineSet
EndChar

StartChar: N
Encoding: 78 78 47
Width: 852
VWidth: 0
Flags: HW
LayerCount: 2
Fore
SplineSet
55 781.5 m 2
 207 781.5 l 2
 209.278890625 781.5 211.321752906 780.481404599 212.697751242 778.875049398 c 2
 647.5 271.282245603 l 1
 647.5 774 l 2
 647.5 778.1393625 650.8606375 781.5 655 781.5 c 2
 807 781.5 l 2
 811.1393625 781.5 814.5 778.1393625 814.5 774 c 2
 814.5 -2 l 2
 814.5 -6.1393625 811.1393625 -9.5 807 -9.5 c 2
 655 -9.5 l 2
 652.715997772 -9.5 650.669083909 -8.47683000939 649.292999641 -6.8642312586 c 2
 214.5 502.658815196 l 1
 214.5 -2 l 2
 214.5 -6.1393625 211.1393625 -9.5 207 -9.5 c 2
 55 -9.5 l 2
 50.8606375 -9.5 47.5 -6.1393625 47.5 -2 c 2
 47.5 774 l 2
 47.5 778.1393625 50.8606375 781.5 55 781.5 c 2
62.5 766.5 m 1
 62.5 5.5 l 1
 199.5 5.5 l 1
 199.5 523 l 2
 199.5 527.1393625 202.8606375 530.5 207 530.5 c 0
 209.284002228 530.5 211.330916091 529.476830009 212.707000359 527.864231259 c 2
 658.457811033 5.5 l 1
 799.5 5.5 l 1
 799.5 766.5 l 1
 662.5 766.5 l 1
 662.5 251 l 2
 662.5 246.8606375 659.1393625 243.5 655 243.5 c 0
 652.721109375 243.5 650.678247094 244.518595401 649.302248758 246.124950602 c 2
 203.550772409 766.5 l 1
 62.5 766.5 l 1
EndSplineSet
EndChar

StartChar: O
Encoding: 79 79 48
Width: 864
VWidth: 0
Flags: HW
LayerCount: 2
Fore
SplineSet
826.5 380 m 0
 826.5 269.522937718 788.354159474 174.624975156 712.383816878 96.2805593539 c 0
 636.411490461 17.9340977367 544.277887058 -21.5 437 -21.5 c 0
 329.722112942 -21.5 237.588509539 17.9340977367 161.616183122 96.2805593539 c 0
 85.6458405263 174.624975156 47.5 269.522937718 47.5 380 c 0
 47.5 490.477030105 85.6474892266 585.215896479 161.627601075 663.231189896 c 0
 237.602902542 741.24154408 329.731865092 780.5 437 780.5 c 0
 544.268134908 780.5 636.397097458 741.24154408 712.372398925 663.231189896 c 0
 788.352510773 585.215896479 826.5 490.477030105 826.5 380 c 0
811.5 380 m 0
 811.5 486.856303228 774.98082256 577.450770187 701.627601075 652.768810104 c 0
 628.269569209 728.091789253 540.398531758 765.5 437 765.5 c 0
 333.601468242 765.5 245.730430791 728.091789253 172.372398925 652.768810104 c 0
 99.0191774401 577.450770187 62.5 486.856303228 62.5 380 c 0
 62.5 273.143728948 99.0208261404 182.375024844 172.383816878 106.719440646 c 0
 245.744823795 31.0659022633 333.611220392 -6.5 437 -6.5 c 0
 540.388779608 -6.5 628.255176205 31.0659022633 701.616183122 106.719440646 c 0
 774.97917386 182.375024844 811.5 273.143728948 811.5 380 c 0
673.5 378 m 0
 673.5 310.866870847 650.358407524 253.284331341 604.361076322 206.257209142 c 0
 558.375075533 159.241671021 502.247389044 135.5 437 135.5 c 0
 371.752610956 135.5 315.624924467 159.241671021 269.638923678 206.257209142 c 0
 223.641592476 253.284331341 200.5 310.866870847 200.5 378 c 0
 200.5 444.48797603 223.656932923 501.731352549 269.638923678 548.742790858 c 0
 315.624924467 595.758328979 371.752610956 619.5 437 619.5 c 0
 502.247389044 619.5 558.375075533 595.758328979 604.361076322 548.742790858 c 0
 650.343067077 501.731352549 673.5 444.48797603 673.5 378 c 0
658.5 378 m 0
 658.5 440.845357303 636.990266256 493.935314118 593.638923678 538.257209142 c 0
 550.291591134 582.575004355 498.419277622 604.5 437 604.5 c 0
 375.580722378 604.5 323.708408866 582.575004355 280.361076322 538.257209142 c 0
 237.009733744 493.935314118 215.5 440.845357303 215.5 378 c 0
 215.5 314.466462486 237.025074191 261.049001992 280.361076322 216.742790858 c 0
 323.708408866 172.424995645 375.580722378 150.5 437 150.5 c 0
 498.419277622 150.5 550.291591134 172.424995645 593.638923678 216.742790858 c 0
 636.974925809 261.049001992 658.5 314.466462486 658.5 378 c 0
EndSplineSet
EndChar

StartChar: P
Encoding: 80 80 49
Width: 534
VWidth: 0
Flags: HW
LayerCount: 2
Fore
SplineSet
207 -4.5 m 2
 55 -4.5 l 2
 50.8606375 -4.5 47.5 -1.1393625 47.5 3 c 2
 47.5 779 l 2
 47.5 783.1393625 50.8606375 786.5 55 786.5 c 2
 206.539591581 786.5 l 2
 212.416028266 787.198074211 220.449906632 787.5 231 787.5 c 0
 304.185730439 787.5 367.114213437 761.648062264 418.784481003 710.319981901 c 0
 470.465628407 658.981093751 496.5 596.200071099 496.5 523 c 0
 496.5 449.799997675 470.468462191 386.863940316 418.802260938 335.197739062 c 0
 367.136059684 283.531537809 304.200002325 257.5 231 257.5 c 0
 224.601011315 257.5 219.127696118 257.611073457 214.5 257.854244613 c 1
 214.5 3 l 2
 214.5 -1.1393625 211.1393625 -4.5 207 -4.5 c 2
62.5 10.5 m 1
 199.5 10.5 l 1
 199.5 266 l 2
 199.5 270.1393625 202.8606375 273.5 207 273.5 c 0
 207.317651001 273.5 207.630716176 273.480209571 207.938028736 273.441795501 c 0
 212.688479343 272.847989175 220.50548389 272.5 231 272.5 c 0
 300.466664342 272.5 359.197273649 296.801795524 408.197739062 345.802260938 c 0
 457.198204476 394.802726351 481.5 453.533335658 481.5 523 c 0
 481.5 592.466595567 457.201038259 651.018906249 408.215518997 699.680018099 c 0
 359.219119896 748.351937736 300.480936228 772.5 231 772.5 c 0
 220.50548389 772.5 212.688479343 772.152010825 207.938028736 771.558204499 c 0
 207.630716176 771.519790429 207.317651001 771.5 207 771.5 c 2
 62.5 771.5 l 1
 62.5 10.5 l 1
231 636.5 m 0
 262.815447007 636.5 290.265873118 625.338648757 312.302260937 603.302260938 c 0
 334.304101524 581.300420351 345.5 554.196771765 345.5 523 c 0
 345.5 491.184552993 334.338648757 463.734126882 312.302260938 441.697739062 c 0
 290.265873118 419.661351243 262.815447007 408.5 231 408.5 c 0
 222.362197013 408.5 213.744006626 409.581736534 205.177679343 411.723318355 c 0
 201.91772887 412.538305973 199.5 415.489035611 199.5 419 c 2
 199.5 626 l 2
 199.5 629.510964389 201.91772887 632.461694027 205.177679343 633.276681645 c 0
 213.744006626 635.418263466 222.362197013 636.5 231 636.5 c 0
330.5 523 m 0
 330.5 550.469894902 321.02923181 573.366246315 301.697739063 592.697739062 c 0
 282.400793549 611.994684576 259.184552993 621.5 231 621.5 c 0
 225.515329545 621.5 220.019774266 620.990371729 214.5 619.962064118 c 1
 214.5 425.037935882 l 1
 220.019774266 424.009628271 225.515329545 423.5 231 423.5 c 0
 259.184552993 423.5 282.400793549 433.005315424 301.697739062 452.302260938 c 0
 320.994684576 471.599206451 330.5 494.815447007 330.5 523 c 0
EndSplineSet
EndChar

StartChar: Q
Encoding: 81 81 50
Width: 864
VWidth: 0
Flags: HW
LayerCount: 2
Fore
SplineSet
673.5 378 m 0
 673.5 310.866870847 650.358407524 253.284331341 604.361076322 206.257209142 c 0
 558.375075533 159.241671021 502.247389044 135.5 437 135.5 c 0
 371.752610956 135.5 315.624924467 159.241671021 269.638923678 206.257209142 c 0
 223.641592476 253.284331341 200.5 310.866870847 200.5 378 c 0
 200.5 444.48797603 223.656932923 501.731352549 269.638923678 548.742790858 c 0
 315.624924467 595.758328979 371.752610956 619.5 437 619.5 c 0
 502.247389044 619.5 558.375075533 595.758328979 604.361076322 548.742790858 c 0
 650.343067077 501.731352549 673.5 444.48797603 673.5 378 c 0
658.5 378 m 0
 658.5 440.845357303 636.990266256 493.935314118 593.638923678 538.257209142 c 0
 550.291591134 582.575004355 498.419277622 604.5 437 604.5 c 0
 375.580722378 604.5 323.708408866 582.575004355 280.361076322 538.257209142 c 0
 237.009733744 493.935314118 215.5 440.845357303 215.5 378 c 0
 215.5 314.466462486 237.025074191 261.049001992 280.361076322 216.742790858 c 0
 323.708408866 172.424995645 375.580722378 150.5 437 150.5 c 0
 498.419277622 150.5 550.291591134 172.424995645 593.638923678 216.742790858 c 0
 636.974925809 261.049001992 658.5 314.466462486 658.5 378 c 0
826.5 380 m 0
 826.5 252.347909569 770.910569514 150.505642895 700.830991664 84.7735302106 c 1
 832.302260938 -46.6977390625 l 2
 833.659840625 -48.05531875 834.5 -49.93031875 834.5 -52 c 0
 834.5 -54.0598792829 833.667779735 -55.9269169618 832.321514494 -57.2829377483 c 2
 694.321514494 -196.282937748 l 2
 692.962436805 -197.651863826 691.079483217 -198.5 689 -198.5 c 0
 686.93031875 -198.5 685.05531875 -197.659840625 683.697739062 -196.302260937 c 2
 503.443932139 -16.0484540139 l 1
 481.597097323 -19.682844131 459.445246987 -21.5 437 -21.5 c 0
 329.722112942 -21.5 237.588509539 17.9340977367 161.616183122 96.2805593539 c 0
 85.6458405263 174.624975156 47.5 269.522937718 47.5 380 c 0
 47.5 490.477030105 85.6474892266 585.215896479 161.627601075 663.231189896 c 0
 237.602902542 741.24154408 329.731865092 780.5 437 780.5 c 0
 544.268134908 780.5 636.397097458 741.24154408 712.372398925 663.231189896 c 0
 788.352510773 585.215896479 826.5 490.477030105 826.5 380 c 0
811.5 380 m 0
 811.5 486.856303228 774.98082256 577.450770187 701.627601075 652.768810104 c 0
 628.269569209 728.091789253 540.398531758 765.5 437 765.5 c 0
 333.601468242 765.5 245.730430791 728.091789253 172.372398925 652.768810104 c 0
 99.0191774401 577.450770187 62.5 486.856303228 62.5 380 c 0
 62.5 273.143728948 99.0208261404 182.375024844 172.383816878 106.719440646 c 0
 245.744823795 31.0659022633 333.611220392 -6.5 437 -6.5 c 0
 459.896303709 -6.5 482.455002956 -4.53805091738 504.689898344 -0.614245848929 c 0
 505.115358164 -0.539164704246 505.553141471 -0.5 506 -0.5 c 0
 508.06968125 -0.5 509.94468125 -1.340159375 511.302260938 -2.6977390625 c 2
 688.980823447 -180.376301572 l 1
 816.414585045 -52.0191069196 l 1
 684.697739062 79.6977390625 l 2
 683.340159375 81.05531875 682.5 82.93031875 682.5 85 c 0
 682.5 87.2099671384 683.457913688 89.1979670648 684.980826086 90.5710848005 c 0
 755.720245807 154.352528811 811.5 253.287741997 811.5 380 c 0
EndSplineSet
EndChar

StartChar: R
Encoding: 82 82 51
Width: 512
VWidth: 0
Flags: HW
LayerCount: 2
Fore
SplineSet
231 636.5 m 0
 262.815447007 636.5 290.265873118 625.338648757 312.302260937 603.302260938 c 0
 334.304101524 581.300420351 345.5 554.196771765 345.5 523 c 0
 345.5 491.184552993 334.338648757 463.734126882 312.302260938 441.697739062 c 0
 290.265873118 419.661351243 262.815447007 408.5 231 408.5 c 0
 222.362197013 408.5 213.744006626 409.581736534 205.177679343 411.723318355 c 0
 201.91772887 412.538305973 199.5 415.489035611 199.5 419 c 2
 199.5 626 l 2
 199.5 629.510964389 201.91772887 632.461694027 205.177679343 633.276681645 c 0
 213.744006626 635.418263466 222.362197013 636.5 231 636.5 c 0
330.5 523 m 0
 330.5 550.469894902 321.02923181 573.366246315 301.697739063 592.697739062 c 0
 282.400793549 611.994684576 259.184552993 621.5 231 621.5 c 0
 225.515329545 621.5 220.019774266 620.990371729 214.5 619.962064118 c 1
 214.5 425.037935882 l 1
 220.019774266 424.009628271 225.515329545 423.5 231 423.5 c 0
 259.184552993 423.5 282.400793549 433.005315424 301.697739062 452.302260938 c 0
 320.994684576 471.599206451 330.5 494.815447007 330.5 523 c 0
207 -4.5 m 2
 55 -4.5 l 2
 50.8606375 -4.5 47.5 -1.1393625 47.5 3 c 2
 47.5 779 l 2
 47.5 783.1393625 50.8606375 786.5 55 786.5 c 2
 206.539591581 786.5 l 2
 212.416028266 787.198074211 220.449906632 787.5 231 787.5 c 0
 304.185730439 787.5 367.114213437 761.648062264 418.784481003 710.319981901 c 0
 470.465628407 658.981093751 496.5 596.200071099 496.5 523 c 0
 496.5 466.185862389 480.157872219 414.718824498 447.607021391 369.147633339 c 0
 417.033929058 326.345304073 377.593861637 295.308438529 329.711782375 276.38213456 c 1
 523.139202172 1.30695967243 l 2
 523.996489184 0.0878027659041 524.5 -1.39776199791 524.5 -3 c 0
 524.5 -7.1393625 521.1393625 -10.5 517 -10.5 c 2
 377 -10.5 l 2
 374.29428889 -10.5 371.921298653 -9.06412181607 370.602112544 -6.91344870564 c 2
 214.5 247.580298411 l 1
 214.5 3 l 2
 214.5 -1.1393625 211.1393625 -4.5 207 -4.5 c 2
62.5 10.5 m 1
 199.5 10.5 l 1
 199.5 266 l 2
 199.5 270.1393625 202.8606375 273.5 207 273.5 c 2
 212 273.5 l 2
 214.70571111 273.5 217.078701347 272.064121816 218.397887456 269.913448706 c 2
 381.197958223 4.5 l 1
 502.558377422 4.5 l 1
 311.860797828 275.693040328 l 2
 311.003510816 276.912197234 310.5 278.397761998 310.5 280 c 0
 310.5 283.259820856 312.584213551 286.036688939 315.491619594 287.069583191 c 0
 364.773138601 304.577491259 404.569934791 334.700105315 435.392978609 377.852366661 c 0
 466.175461114 420.947842168 481.5 469.147470944 481.5 523 c 0
 481.5 592.466595567 457.201038259 651.018906249 408.215518997 699.680018099 c 0
 359.219119896 748.351937736 300.480936228 772.5 231 772.5 c 0
 220.50548389 772.5 212.688479343 772.152010825 207.938028736 771.558204499 c 0
 207.630716176 771.519790429 207.317651001 771.5 207 771.5 c 2
 62.5 771.5 l 1
 62.5 10.5 l 1
EndSplineSet
EndChar

StartChar: S
Encoding: 83 83 52
Width: 512
VWidth: 0
Flags: HW
LayerCount: 2
Fore
SplineSet
135 189.5 m 0
 136.8236776 189.5 138.496203399 188.847694749 139.796784385 187.763877261 c 0
 158.079143958 172.528577616 183.282179673 159.607692308 210.279053254 159.607692308 c 0
 218.388720114 159.607692308 226.680098152 160.652286347 235.177679343 162.776681645 c 0
 261.415042983 169.336022555 281.227520385 183.503724287 295.563634831 205.855899481 c 0
 301.9483679 217.229549644 304.908600905 227.799908047 304.908602151 237.672100821 c 0
 304.908602151 248.699494711 301.274801987 259.36964557 293.442408201 270.079245237 c 0
 278.269910179 290.82531396 257.757621614 303.207203562 230.7877928 307.597640811 c 0
 229.957668974 307.732777248 229.173111968 308.004388929 228.45793395 308.388663684 c 0
 183.155387502 332.730330433 146.543120017 360.931790848 118.816701321 393.108128593 c 0
 90.9301304677 425.47032193 73.3150664178 463.326346477 66.1038211196 506.250425634 c 0
 64.6612123718 514.837382466 63.9392523364 523.518861431 63.9392523364 532.283081492 c 0
 63.9392523364 568.177246184 76.0376151662 605.082763526 99.5932481276 642.8995656 c 0
 135.275346981 702.564531443 188.856118457 741.366995507 259.194184337 758.780787857 c 0
 282.931163146 764.657418534 306.390994275 767.612582781 329.549493443 767.612582781 c 0
 374.969040071 767.612582781 419.036212866 756.220907416 461.514352362 733.626152364 c 0
 462.175225271 733.274624222 462.7774112 732.827110675 463.302260938 732.302260938 c 0
 464.461389151 731.143132724 467.614888275 728.777442498 472.350682484 725.935965973 c 0
 477.614888275 722.777442498 481.461389151 720.143132724 484.302260938 717.302260938 c 0
 485.659840625 715.94468125 486.5 714.06968125 486.5 712 c 0
 486.5 710.592585893 486.11149327 709.275196344 485.435965973 708.149317516 c 2
 410.435965973 583.149317516 l 2
 409.124691839 580.963860627 406.731948393 579.5 404 579.5 c 0
 402.1763224 579.5 400.503796601 580.152305251 399.203215615 581.236122739 c 0
 381.060640011 596.354935742 356.570973137 608.5 329.333333333 608.5 c 0
 320.875654981 608.5 312.206069245 607.418097422 303.302316768 605.218346811 c 0
 276.730184132 598.653466983 257.093091042 584.118911188 243.408224422 561.10345369 c 0
 234.898907451 547.148173858 230.763736264 532.735567413 230.763736264 517.529887695 c 0
 230.763736264 505.050553136 233.579572928 491.855011312 239.422257973 477.889569009 c 0
 252.281284531 447.153359188 272.790034055 430.306108634 302.240020465 425.397777566 c 0
 303.046574041 425.26335197 303.809753798 425.000025362 304.507638044 424.629719436 c 0
 337.480070795 407.134142874 365.353252538 389.416361865 388.14752972 371.385067975 c 0
 411.065748261 353.25573092 430.92952114 332.019457078 447.676968746 307.752747281 c 0
 463.903728178 284.240504023 472.086538462 257.837469147 472.086538462 229.048631657 c 0
 472.086538462 227.287298414 472.056177388 225.517862581 471.995580768 223.74036173 c 0
 470.938529781 192.733532772 459.539077758 160.203825829 438.421006088 126.123692653 c 0
 402.757902261 65.8097098212 349.350045028 26.64484538 279.314031533 9.22125112886 c 0
 255.988074276 3.41820810399 232.912073081 0.5 210.111111111 0.5 c 0
 164.497288011 0.5 120.189746308 12.2043124192 77.4312083405 35.4030936567 c 0
 76.7916820771 35.750070672 76.2081419138 36.1873362112 75.6977390625 36.6977390625 c 0
 74.5386108491 37.8568672759 71.3851117254 40.2225575016 66.6493175163 43.0640340271 c 0
 61.3851117254 46.2225575016 57.5386108491 48.8568672759 54.6977390625 51.6977390625 c 0
 53.340159375 53.05531875 52.5 54.93031875 52.5 57 c 0
 52.5 58.4074141066 52.8885067303 59.7248036557 53.5640340271 60.8506824837 c 2
 128.564034027 185.850682484 l 2
 129.875308161 188.036139373 132.268051607 189.5 135 189.5 c 0
457.086538462 229.048631657 m 0
 457.086538462 254.925721188 449.878323104 278.156931875 435.323031254 299.247252719 c 0
 419.403812193 322.313876256 400.600918405 342.410935747 378.85247028 359.614932025 c 0
 357.216992449 376.729563743 330.440296489 393.824802055 298.542074871 410.812273607 c 1
 264.618329675 416.861121453 239.881426291 437.921136742 225.577742027 472.110430991 c 0
 219.105408757 487.580886124 215.763736264 502.738602763 215.763736264 517.529887695 c 0
 215.763736264 535.581061013 220.786074234 552.815196105 230.591775578 568.89654631 c 0
 246.240242291 595.214422145 269.603149201 612.346533017 299.697683232 619.781653189 c 0
 309.682819644 622.248569244 319.568789464 623.5 329.333333333 623.5 c 0
 348.82596307 623.5 367.631191065 618.483259184 385.486101886 608.64276121 c 0
 390.762318866 605.991595346 396.234305121 602.501074416 401.966061529 598.187394988 c 1
 469.166972364 710.188913045 l 1
 464.272112037 713.514579279 456.98877763 717.708781174 453.574433006 720.856611021 c 0
 413.338524929 742.088721244 372.074004623 752.612582619 329.549493443 752.612582781 c 0
 307.69277398 752.612582781 285.452942814 749.826025175 262.805815663 744.219212143 c 0
 195.834033567 727.638819488 146.093765324 691.461383957 112.442488244 635.160208844 c 0
 112.418643971 635.12031554 112.394439721 635.080661741 112.369879996 635.041251949 c 0
 89.8687624711 598.93480755 78.9392523364 564.715492106 78.9392523364 532.283081492 c 0
 78.9392523364 524.358333084 79.5911240768 516.517757721 80.8961788804 508.749574366 c 0
 87.6849335822 468.340320189 104.069869532 433.196344737 130.183298679 402.891871407 c 0
 156.241947677 372.6509701 190.938338365 345.713801524 234.463280089 322.192647987 c 1
 264.248832058 317.055083396 288.304337539 302.511939255 305.557591799 278.920754763 c 0
 314.936667547 266.096304251 319.908602151 252.214522324 319.908602151 237.672100821 c 0
 319.908602151 224.635409271 315.960892762 211.483473493 308.537082641 198.323082824 c 0
 308.469504558 198.203285314 308.398728719 198.085527016 308.324871311 197.969924116 c 0
 292.003030304 172.422694714 268.516871621 155.646956096 238.822320657 148.223318355 c 0
 229.227594156 145.82463673 219.705007697 144.607692308 210.279053254 144.607692308 c 0
 190.58509341 144.607692308 171.548536646 149.951754012 153.446481907 160.391153941 c 0
 148.19107203 163.038147916 142.741286447 166.517295091 137.033938471 170.812605012 c 1
 69.8330276362 58.8110869552 l 1
 74.7389855304 55.4778808105 82.0353808902 51.2756883696 85.4505588636 48.1203224759 c 0
 125.967583798 26.3049940178 167.441929765 15.5000005424 210.111111111 15.5 c 0
 231.606445438 15.5 253.456370169 18.2484585627 275.685968467 23.7787488711 c 0
 342.289961973 40.3485228653 391.86810711 76.8271382739 425.538275841 133.807423819 c 0
 425.56537964 133.853291787 425.592957847 133.898846772 425.621003688 133.944081998 c 0
 445.809373048 166.505968064 456.062170917 196.620354354 457.004419232 224.25963827 c 0
 457.059207228 225.866752804 457.086538462 227.463071408 457.086538462 229.048631657 c 0
EndSplineSet
EndChar

StartChar: T
Encoding: 84 84 53
Width: 676
VWidth: 0
Flags: HW
LayerCount: 2
Fore
SplineSet
60.5 758.5 m 1
 60.5 621.5 l 1
 265 621.5 l 2
 269.1393625 621.5 272.5 618.1393625 272.5 614 c 2
 272.5 5.5 l 1
 409.5 5.5 l 1
 409.5 614 l 2
 409.5 618.1393625 412.8606375 621.5 417 621.5 c 2
 621.5 621.5 l 1
 621.5 758.5 l 1
 60.5 758.5 l 1
45.5 614 m 2
 45.5 766 l 2
 45.5 770.1393625 48.8606375 773.5 53 773.5 c 2
 629 773.5 l 2
 633.1393625 773.5 636.5 770.1393625 636.5 766 c 2
 636.5 614 l 2
 636.5 609.8606375 633.1393625 606.5 629 606.5 c 2
 424.5 606.5 l 1
 424.5 -2 l 2
 424.5 -6.1393625 421.1393625 -9.5 417 -9.5 c 2
 265 -9.5 l 2
 260.8606375 -9.5 257.5 -6.1393625 257.5 -2 c 2
 257.5 606.5 l 1
 53 606.5 l 2
 48.8606375 606.5 45.5 609.8606375 45.5 614 c 2
EndSplineSet
EndChar

StartChar: U
Encoding: 85 85 54
Width: 669
VWidth: 0
Flags: HW
LayerCount: 2
Fore
SplineSet
229.5 187.940126701 m 1
 247.328229817 169.768202768 285.22690381 158.992753623 342.566897711 158.992753623 c 0
 397.918084427 158.992753623 432.855302458 169.691194404 449.5 187.800928924 c 1
 449.5 761 l 2
 449.5 765.1393625 452.8606375 768.5 457 768.5 c 2
 624 768.5 l 2
 628.1393625 768.5 631.5 765.1393625 631.49989671 760.960260031 c 2
 628.49989671 183.960260031 l 2
 628.496376302 183.283168144 628.402940736 182.627184476 628.230931317 182.003650331 c 0
 617.210165591 142.053374576 596.249906816 107.586454241 565.612756094 79.0147294099 c 0
 535.217531305 50.6686208989 500.773493165 29.7547206964 462.464348412 16.41492922 c 0
 423.291957054 2.77454294347 381.894883065 -4.01282051282 336.722879684 -4.01282051282 c 0
 294.516474612 -4.01282051282 254.616511201 2.27667035243 217.110829281 14.8892005556 c 0
 178.42052984 27.9000977129 143.919132192 48.8472220852 113.823400485 77.5749659875 c 0
 83.5476606036 106.474535874 62.4716115701 141.387206475 50.7920188409 181.922263594 c 0
 50.6053792831 182.570012648 50.5037772154 183.253641677 50.5001032898 183.960260031 c 2
 50.5001032898 183.960260031 47.5001032898 760.960260031 47.5 761 c 0
 47.5 765.1393625 50.8606375 768.5 55 768.5 c 2
 222 768.5 l 2
 226.1393625 768.5 229.5 765.1393625 229.5 761 c 2
 229.5 187.940126701 l 1
336.722879684 10.9871794872 m 0
 380.307959995 10.9871794872 420.036970357 17.5274942802 457.535651588 30.58507078 c 0
 493.893173501 43.2452793035 526.449135362 62.9980457677 555.387243906 89.9852705901 c 0
 583.84061893 116.520440556 603.127990026 148.074393721 613.505348685 185.048604242 c 1
 616.460901869 753.5 l 1
 464.5 753.5 l 1
 464.5 185 l 2
 464.5 183.19207695 463.858916453 181.532705412 462.791869445 180.237005474 c 0
 441.890871832 154.857222658 401.030491177 143.992753623 342.566897711 143.992753623 c 0
 281.778745716 143.992753623 238.512719123 154.850050443 216.364896215 180.052745475 c 0
 215.204181641 181.373558613 214.5 183.105193023 214.5 185 c 2
 214.5 753.5 l 1
 62.5390981312 753.5 l 1
 65.4944280337 185.091548749 l 1
 76.5339259445 147.386808508 96.0307451597 115.291531352 124.176599515 88.4250340125 c 0
 152.747534475 61.1527779148 185.246136827 41.4332356204 221.889170719 29.1107994444 c 0
 257.785198201 17.0395689638 296.033821246 10.9871794872 336.722879684 10.9871794872 c 0
EndSplineSet
EndChar

StartChar: V
Encoding: 86 86 55
Width: 652
VWidth: 0
Flags: HW
LayerCount: 2
Fore
SplineSet
55 776.5 m 2
 207 776.5 l 2
 210.486721016 776.5 213.420917463 774.115544915 214.259494086 770.88973 c 2
 331 321.81536451 l 1
 447.740505914 770.88973 l 2
 448.579082537 774.115544915 451.513278984 776.5 455 776.5 c 2
 607 776.5 l 2
 611.1393625 776.5 614.5 773.1393625 614.5 769 c 0
 614.5 768.347067043 614.416383511 767.713509651 614.25928374 767.109461031 c 2
 414.25928374 -1.89053896865 l 2
 413.42042689 -5.11594355582 410.486429543 -7.5 407 -7.5 c 2
 255 -7.5 l 2
 251.513570457 -7.5 248.57957311 -5.11594355582 247.74071626 -1.89053896865 c 2
 47.7407162601 767.109461031 l 2
 47.583616489 767.713509651 47.5 768.347067043 47.5 769 c 0
 47.5 773.1393625 50.8606375 776.5 55 776.5 c 2
331 284.5 m 0
 327.513278984 284.5 324.579082537 286.884455085 323.740505914 290.11027 c 2
 201.198940882 761.5 l 1
 64.7015565536 761.5 l 1
 260.800386202 7.5 l 1
 401.199613798 7.5 l 1
 597.298443446 761.5 l 1
 460.801059118 761.5 l 1
 338.259494086 290.11027 l 2
 337.420917463 286.884455085 334.486721016 284.5 331 284.5 c 0
EndSplineSet
EndChar

StartChar: W
Encoding: 87 87 56
Width: 1000
VWidth: 0
Flags: HW
LayerCount: 2
Fore
SplineSet
526.5 486.2025 m 0
 529.986429543 486.2025 532.92042689 483.818443556 533.75928374 480.593038969 c 2
 656.800386202 7.5 l 1
 797.199613798 7.5 l 1
 993.298443446 761.5 l 1
 856.801059118 761.5 l 1
 734.259494086 290.11027 l 2
 733.420917463 286.884455085 730.486721016 284.5 727 284.5 c 0
 723.513278984 284.5 720.579082537 286.884455085 719.740505914 290.11027 c 2
 597.198940882 761.5 l 1
 455.800386199 761.5 l 1
 333.259283739 290.329462248 l 2
 332.420426887 287.104057663 329.486429542 284.720001221 326 284.720001221 c 0
 322.513570458 284.720001221 319.579573113 287.104057663 318.740716261 290.329462248 c 2
 196.199613801 761.5 l 1
 59.7015565536 761.5 l 1
 255.800386202 7.5 l 1
 396.199613798 7.5 l 1
 519.24071626 480.593038969 l 2
 520.07957311 483.818443556 523.013570457 486.2025 526.5 486.2025 c 0
50 776.5 m 2
 202 776.5 l 2
 205.486429542 776.5 208.420426887 774.115943558 209.259283739 770.890538973 c 2
 326 322.022486098 l 1
 442.740716261 770.890538973 l 2
 443.579573113 774.115943558 446.513570458 776.5 450 776.5 c 2
 603 776.5 l 2
 606.486721016 776.5 609.420917463 774.115544915 610.259494086 770.88973 c 2
 727 321.81536451 l 1
 843.740505914 770.88973 l 2
 844.579082537 774.115544915 847.513278984 776.5 851 776.5 c 2
 1003 776.5 l 2
 1007.1393625 776.5 1010.5 773.1393625 1010.5 769 c 0
 1010.5 768.347067043 1010.41638351 767.713509651 1010.25928374 767.109461031 c 2
 810.25928374 -1.89053896865 l 2
 809.42042689 -5.11594355582 806.486429543 -7.5 803 -7.5 c 2
 651 -7.5 l 2
 647.513570457 -7.5 644.57957311 -5.11594355582 643.74071626 -1.89053896865 c 2
 526.5 448.900015051 l 1
 409.25928374 -1.89053896865 l 2
 408.42042689 -5.11594355582 405.486429543 -7.5 402 -7.5 c 2
 250 -7.5 l 2
 246.513570457 -7.5 243.57957311 -5.11594355582 242.74071626 -1.89053896865 c 2
 42.7407162601 767.109461031 l 2
 42.583616489 767.713509651 42.5 768.347067043 42.5 769 c 0
 42.5 773.1393625 45.8606375 776.5 50 776.5 c 2
EndSplineSet
EndChar

StartChar: X
Encoding: 88 88 57
Width: 724
VWidth: 0
Flags: HW
LayerCount: 2
Fore
SplineSet
503.000000713 776.500124805 m 2
 678.043673543 775.499875245 l 2
 682.162974852 775.476336381 685.5 772.12479497 685.5 768 c 0
 685.5 766.63443906 685.134256245 765.353628054 684.495467596 764.250265842 c 2
 466.648782766 387.969628409 l 1
 685.521741894 3.70398071026 l 2
 686.144275287 2.61102615502 686.5 1.34672724102 686.5 0 c 0
 686.5 -4.11022730557 683.186504176 -7.45265325345 679.087288945 -7.49950142751 c 2
 504.000005702 -9.50049895029 l 2
 501.225755103 -9.50049895029 498.801289754 -7.99045478975 497.503902331 -5.74864563984 c 2
 367.992360515 218.039680292 l 1
 240.492261671 -1.75526622301 l 2
 239.214062506 -3.95872896368 236.846356161 -5.45311249981 234.128642812 -5.49891665739 c 2
 56.0000182779 -8.50108448661 l 2
 51.8606557779 -8.50108448661 48.5 -5.1393625 48.5 -1 c 0
 48.5 0.371309752735 48.8688296927 1.65715449995 49.5126145362 2.76365969957 c 2
 271.320810647 383.996496766 l 1
 48.5156672661 766.2310983 l 2
 47.8699957833 767.338783599 47.5 768.626524194 47.5 770 c 0
 47.5 774.1393625 50.8606375 777.5 55 777.5 c 0
 241.082133254 775.499558607 l 2
 243.834154063 775.469966986 246.232630544 773.955008643 247.513054032 771.719192245 c 2
 371.035356557 556.030248605 l 1
 496.504532404 772.749734158 l 2
 497.802074608 774.990943419 500.226244438 776.51597484 503.000000713 776.500124805 c 2
287.5 384 m 0
 287.5 382.628690247 287.131170307 381.3428455 286.487385464 380.2363403 c 2
 69.1705682206 6.72306066355 l 1
 229.637991187 9.4275677922 l 1
 361.507738329 236.755266223 l 2
 362.806064958 238.993426308 365.228481282 240.5 368 240.5 c 0
 370.7742506 240.5 373.198710246 238.99045479 374.496097669 236.74864564 c 2
 508.296396026 5.54960068433 l 1
 666.179779228 7.35398220664 l 1
 451.478258106 384.29601929 l 2
 450.855724713 385.388973845 450.5 386.653272759 450.5 388 c 0
 450.5 389.36556094 450.865743755 390.646371946 451.504532404 391.749734158 c 2
 665.03435004 760.57396462 l 1
 507.309930382 761.475247018 l 1
 377.495467596 537.250265842 l 2
 376.197925392 535.009056581 373.77380156 533.5 371 533.5 c 0
 368.213617127 533.5 365.780091289 535.02277708 364.486945968 537.280807755 c 2
 236.625481291 760.546596075 l 1
 68.1355812068 762.358315431 l 1
 286.484332734 387.7689017 l 2
 287.130004217 386.661216401 287.5 385.373475806 287.5 384 c 0
EndSplineSet
EndChar

StartChar: Y
Encoding: 89 89 58
Width: 512
VWidth: 0
Flags: HW
LayerCount: 2
Fore
SplineSet
357.5 1 m 2
 357.5 -3.1393625 354.1393625 -6.5 350 -6.5 c 2
 198 -6.5 l 2
 193.8606375 -6.5 190.5 -3.1393625 190.5 1 c 2
 190.5 448.824053679 l 1
 -7.33960047164 760.993071508 l 2
 -8.0744148268 762.152527325 -8.5 763.526955486 -8.5 765 c 0
 -8.5 769.1393625 -5.1393625 772.5 -1 772.5 c 2
 151 772.5 l 2
 153.497864375 772.5 155.712162262 771.276250703 157.075548051 769.39609772 c 2
 275 606.774474467 l 1
 392.924451949 769.39609772 l 2
 394.287837738 771.276250703 396.502135625 772.5 399 772.5 c 2
 551 772.5 l 2
 555.1393625 772.5 558.5 769.1393625 558.5 765 c 0
 558.5 763.524727732 558.073126588 762.148370326 557.336264467 760.987812485 c 2
 357.5 446.245695949 l 1
 357.5 1 l 2
205.5 451 m 2
 205.5 8.5 l 1
 342.5 8.5 l 1
 342.5 450 l 2
 342.5 452.767364372 344.002060544 455.186672134 346.234674093 456.486415747 c 1
 537.354410126 757.5 l 1
 402.824765111 757.5 l 1
 281.075548051 589.60390228 l 2
 279.712162262 587.723749297 277.497864375 586.5 275 586.5 c 0
 272.502135625 586.5 270.287837738 587.723749297 268.924451949 589.60390228 c 2
 147.175234889 757.5 l 1
 12.6322080188 757.5 l 1
 204.339600472 455.006928492 l 2
 205.074414827 453.847472675 205.5 452.473044514 205.5 451 c 2
EndSplineSet
EndChar

StartChar: Z
Encoding: 90 90 59
Width: 783
VWidth: 0
Flags: HW
LayerCount: 2
Fore
SplineSet
47.5 10 m 2
 47.5 162 l 2
 47.5 164.014026959 48.2955826555 165.84370196 49.5893506974 167.191627734 c 2
 467.407654435 602.5 l 1
 55 602.5 l 2
 50.8606375 602.5 47.5 605.8606375 47.5 610 c 2
 47.5 762 l 2
 47.5 766.1393625 50.8606375 769.5 55 769.5 c 2
 738 769.5 l 2
 742.1393625 769.5 745.5 766.1393625 745.5 762 c 2
 745.5 610 l 2
 745.5 607.979678609 744.69943671 606.144863286 743.398504486 604.795748387 c 2
 323.649032827 169.5 l 1
 738 169.5 l 2
 742.1393625 169.5 745.5 166.1393625 745.5 162 c 2
 745.5 10 l 2
 745.5 5.8606375 742.1393625 2.5 738 2.5 c 2
 55 2.5 l 2
 50.8606375 2.5 47.5 5.8606375 47.5 10 c 2
62.5 17.5 m 1
 730.5 17.5 l 1
 730.5 154.5 l 1
 306 154.5 l 2
 301.8606375 154.5 298.5 157.8606375 298.5 162 c 0
 298.5 164.020321391 299.30056329 165.855136714 300.601495514 167.204251613 c 2
 730.5 613.024922932 l 1
 730.5 754.5 l 1
 62.5 754.5 l 1
 62.5 617.5 l 1
 485 617.5 l 2
 489.1393625 617.5 492.5 614.1393625 492.5 610 c 0
 492.5 607.985973041 491.704417345 606.15629804 490.410649303 604.808372266 c 2
 62.5 158.985184155 l 1
 62.5 17.5 l 1
EndSplineSet
EndChar

StartChar: bracketleft
Encoding: 91 91 60
Width: 362
VWidth: 0
Flags: HW
LayerCount: 2
Fore
SplineSet
55 -87.5 m 2
 50.8606375 -87.5 47.5 -84.1393625 47.5 -80 c 2
 47.5 774 l 2
 47.5 778.1393625 50.8606375 781.5 55 781.5 c 2
 317 781.5 l 2
 321.1393625 781.5 324.5 778.1393625 324.499471697 773.910147311 c 2
 323.499471697 688.910147311 l 2
 323.451259544 684.812114355 320.109370394 681.5 316 681.5 c 2
 156.5 681.5 l 1
 156.5 12.5 l 1
 316 12.5 l 2
 320.109370394 12.5 323.451259544 9.18788564534 323.499471697 5.08985268899 c 2
 323.499471697 5.08985268899 324.499471697 -79.910147311 324.5 -80 c 0
 324.5 -84.1393625 321.1393625 -87.5 317 -87.5 c 2
 55 -87.5 l 2
62.5 766.5 m 1
 62.5 -72.5 l 1
 309.411235919 -72.5 l 1
 308.587706507 -2.5 l 1
 149 -2.5 l 2
 144.8606375 -2.5 141.5 0.8606375 141.5 5 c 2
 141.5 689 l 2
 141.5 693.1393625 144.8606375 696.5 149 696.5 c 2
 308.587706507 696.5 l 1
 309.411235919 766.5 l 1
 62.5 766.5 l 1
EndSplineSet
EndChar

StartChar: backslash
Encoding: 92 92 61
Width: 691
VWidth: 0
Flags: HW
LayerCount: 2
Fore
SplineSet
653.5 -22 m 0
 653.5 -24.7807791102 651.98334175 -27.2101190378 649.732806859 -28.5052381728 c 2
 543.732806859 -89.5052381728 l 2
 542.63328072 -90.1379843476 541.35858339 -90.5 540 -90.5 c 0
 537.223056168 -90.5 534.796582771 -88.9875224452 533.500127021 -86.7421145499 c 2
 48.5001270215 753.25788545 l 2
 47.8640624764 754.359523013 47.5 755.637581332 47.5 757 c 0
 47.5 759.78077911 49.0166582502 762.210119038 51.2671931406 763.505238173 c 2
 157.267193141 824.505238173 l 2
 158.36671928 825.137984348 159.64141661 825.5 161 825.5 c 0
 163.776943832 825.5 166.203417229 823.987522445 167.499872979 821.74211455 c 2
 652.499872979 -18.2578854501 l 2
 653.135937524 -19.3595230126 653.5 -20.6375813319 653.5 -22 c 0
635.74920814 -19.2456777239 m 1
 158.249640349 807.763882986 l 1
 65.2507918602 754.245677724 l 1
 542.750359651 -72.7638829862 l 1
 635.74920814 -19.2456777239 l 1
EndSplineSet
EndChar

StartChar: bracketright
Encoding: 93 93 62
Width: 362
VWidth: 0
Flags: HW
LayerCount: 2
Fore
SplineSet
317 -88.5 m 2
 55 -88.5 l 2
 50.8606375 -88.5 47.5 -85.1393625 47.5005283033 -80.910147311 c 2
 48.5005283033 4.08985268899 l 2
 48.5487404557 8.18788564534 51.8906296056 11.5 56 11.5 c 2
 215.5 11.5 l 1
 215.5 681.5 l 1
 56 681.5 l 2
 51.8906296056 681.5 48.5487404557 684.812114355 48.5005283033 688.910147311 c 2
 48.5005283033 688.910147311 47.5005283033 773.910147311 47.5 774 c 0
 47.5 778.1393625 50.8606375 781.5 55 781.5 c 2
 317 781.5 l 2
 321.1393625 781.5 324.5 778.1393625 324.5 774 c 2
 324.5 -81 l 2
 324.5 -85.1393625 321.1393625 -88.5 317 -88.5 c 2
309.5 -73.5 m 1
 309.5 766.5 l 1
 62.5887640813 766.5 l 1
 63.4122934931 696.5 l 1
 223 696.5 l 2
 227.1393625 696.5 230.5 693.1393625 230.5 689 c 2
 230.5 4 l 2
 230.5 -0.1393625 227.1393625 -3.5 223 -3.5 c 2
 63.4122934931 -3.5 l 1
 62.5887640813 -73.5 l 1
 309.5 -73.5 l 1
EndSplineSet
EndChar

StartChar: asciicircum
Encoding: 94 94 63
Width: 644
VWidth: 0
Flags: HW
LayerCount: 2
Fore
SplineSet
269 624.5 m 2
 422 624.5 l 2
 425.34886026 624.5 428.188024494 622.30037423 429.150292183 619.268323211 c 2
 535.150292183 285.268323211 l 2
 535.377436556 284.552604149 535.5 283.79050224 535.5 283 c 0
 535.5 278.8606375 532.1393625 275.5 528 275.5 c 2
 376 275.5 l 2
 372.356757288 275.5 369.316759123 278.103340394 368.640381558 281.54964513 c 2
 332.954995509 463.375183572 l 1
 285.256463095 281.09864899 l 2
 284.413867486 277.878730057 281.482532728 275.5 278 275.5 c 2
 126 275.5 l 2
 121.8606375 275.5 118.5 278.8606375 118.5 283 c 0
 118.5 284.045740529 118.714487816 285.041780064 119.101832821 285.946487978 c 2
 262.101832821 619.946487978 l 2
 263.247718424 622.622892114 265.906378029 624.5 269 624.5 c 2
334 504.5 m 0
 337.643242712 504.5 340.683240877 501.896659606 341.359618442 498.45035487 c 2
 382.172304912 290.5 l 1
 517.749581289 290.5 l 1
 416.510060331 609.5 l 1
 273.948609636 609.5 l 1
 137.370765325 290.5 l 1
 272.208603931 290.5 l 1
 326.743536905 498.90135101 l 2
 327.586132514 502.121269943 330.517467272 504.5 334 504.5 c 0
EndSplineSet
EndChar

StartChar: underscore
Encoding: 95 95 64
Width: 544
VWidth: 0
Flags: HW
LayerCount: 2
Fore
SplineSet
556.5 196 m 2
 556.5 44 l 2
 556.5 39.8606375 553.1393625 36.5 549 36.5 c 2
 5 36.5 l 2
 0.8606375 36.5 -2.5 39.8606375 -2.5 44 c 2
 -2.5 196 l 2
 -2.5 200.1393625 0.8606375 203.5 5 203.5 c 2
 549 203.5 l 2
 553.1393625 203.5 556.5 200.1393625 556.5 196 c 2
541.5 51.5 m 1
 541.5 188.5 l 1
 12.5 188.5 l 1
 12.5 51.5 l 1
 541.5 51.5 l 1
EndSplineSet
EndChar

StartChar: grave
Encoding: 96 96 65
Width: 252
VWidth: 0
Flags: HW
LayerCount: 2
Fore
SplineSet
-21.5 698 m 0
 -21.5 700.082309786 -20.649556575 701.967555309 -19.2773526614 703.327053631 c 2
 88.7226473386 810.327053631 l 2
 90.078207305 811.670062116 91.9429472865 812.5 94 812.5 c 0
 96.06968125 812.5 97.94468125 811.659840625 99.3022609375 810.302260938 c 2
 281.302260938 628.302260938 l 2
 282.659840625 626.94468125 283.5 625.06968125 283.5 623 c 0
 283.5 620.917690214 282.649556575 619.032444691 281.277352661 617.672946369 c 2
 173.277352661 510.672946369 l 2
 171.921792695 509.329937884 170.057052714 508.5 168 508.5 c 0
 165.93031875 508.5 164.05531875 509.340159375 162.697739063 510.697739062 c 2
 -19.3022609375 692.697739062 l 2
 -20.659840625 694.05531875 -21.5 695.93031875 -21.5 698 c 0
-3.37075865406 697.975280529 m 1
 168.024603887 526.579917988 l 1
 265.370758654 623.024719471 l 1
 93.9753961134 794.420082012 l 1
 -3.37075865406 697.975280529 l 1
EndSplineSet
EndChar

StartChar: a
Encoding: 97 97 66
Width: 512
VWidth: 0
Flags: HW
LayerCount: 2
Fore
SplineSet
489 521.5 m 2
 493.1393625 521.5 496.5 518.1393625 496.5 514 c 2
 496.5 1 l 2
 496.5 -3.1393625 493.1393625 -6.5 489 -6.5 c 2
 337 -6.5 l 2
 332.909307342 -6.5 329.579135138 -3.21792538675 329.501389588 0.854317636816 c 1
 324.873399565 0.611095693649 319.399629186 0.5 313 0.5 c 0
 239.799997675 0.5 176.863940316 26.5315378095 125.197739063 78.1977390625 c 0
 73.5315378095 129.863940316 47.5 192.799997675 47.5 266 c 0
 47.5 338.539440443 73.3894051733 399.891293918 124.826869902 448.928343625 c 0
 176.211050995 497.914596268 239.265859624 522.5 313 522.5 c 0
 323.550093368 522.5 331.583971734 522.198074211 337.460408419 521.5 c 2
 489 521.5 l 2
481.5 506.5 m 1
 337 506.5 l 2
 336.682348999 506.5 336.369283824 506.519790429 336.061971264 506.558204499 c 0
 331.311520657 507.152010825 323.49451611 507.5 313 507.5 c 0
 242.734140376 507.5 183.788949005 484.418737066 135.173130098 438.071656375 c 0
 86.6105948267 391.775372749 62.5 334.79389289 62.5 266 c 0
 62.5 196.533335658 86.8017955239 137.802726351 135.802260937 88.8022609375 c 0
 184.802726351 39.8017955239 243.533335658 15.5 313 15.5 c 0
 323.49451611 15.5 331.311520657 15.8479891753 336.061971264 16.4417955012 c 0
 336.369283824 16.4802095712 336.682348999 16.5 337 16.5 c 0
 341.1393625 16.5 344.5 13.1393625 344.5 9 c 2
 344.5 8.5 l 1
 481.5 8.5 l 1
 481.5 506.5 l 1
344.5 369 m 2
 344.5 162 l 2
 344.5 158.489035611 342.08227113 155.538305973 338.822320657 154.723318355 c 0
 330.255993374 152.581736534 321.637802987 151.5 313 151.5 c 0
 281.184552993 151.5 253.734126882 162.661351243 231.697739063 184.697739063 c 0
 209.661351243 206.734126882 198.5 234.184552993 198.5 266 c 0
 198.5 297.196771765 209.695898476 324.300420351 231.697739063 346.302260938 c 0
 253.734126882 368.338648757 281.184552993 379.5 313 379.5 c 0
 321.637802987 379.5 330.255993374 378.418263466 338.822320657 376.276681645 c 0
 342.08227113 375.461694027 344.5 372.510964389 344.5 369 c 2
313 364.5 m 0
 284.815447007 364.5 261.599206451 354.994684576 242.302260937 335.697739062 c 0
 222.97076819 316.366246315 213.5 293.469894902 213.5 266 c 0
 213.5 237.815447007 223.005315424 214.599206451 242.302260937 195.302260937 c 0
 261.599206451 176.005315424 284.815447007 166.5 313 166.5 c 0
 318.484670455 166.5 323.980225734 167.009628271 329.5 168.037935882 c 1
 329.5 362.962064118 l 1
 323.980225734 363.990371729 318.484670455 364.5 313 364.5 c 0
EndSplineSet
EndChar

StartChar: b
Encoding: 98 98 67
Width: 512
VWidth: 0
Flags: HW
LayerCount: 2
Fore
SplineSet
55 -3.5 m 2
 50.8606375 -3.5 47.5 -0.1393625 47.5 4 c 2
 47.5 780 l 2
 47.5 784.1393625 50.8606375 787.5 55 787.5 c 2
 207 787.5 l 2
 211.1393625 787.5 214.5 784.1393625 214.5 780 c 2
 214.5 525.145755387 l 1
 219.127696118 525.388926543 224.601011315 525.5 231 525.5 c 0
 304.200002325 525.5 367.136059684 499.468462191 418.802260938 447.802260938 c 0
 470.468462191 396.136059684 496.5 333.200002325 496.5 260 c 0
 496.5 186.799928901 470.465628407 124.018906249 418.784481003 72.6800180994 c 0
 367.114213437 21.3519377363 304.185730439 -4.5 231 -4.5 c 0
 220.449906632 -4.5 212.416028266 -4.19807421057 206.539591581 -3.5 c 2
 55 -3.5 l 2
62.5 11.5 m 1
 207 11.5 l 2
 207.317651001 11.5 207.630716176 11.4802095712 207.938028736 11.4417955012 c 0
 212.688479343 10.8479891753 220.50548389 10.5 231 10.5 c 0
 300.480936228 10.5 359.219119896 34.6480622637 408.215518997 83.3199819006 c 0
 457.201038259 131.981093751 481.5 190.533404433 481.5 260 c 0
 481.5 329.466664342 457.198204476 388.197273649 408.197739062 437.197739062 c 0
 359.197273649 486.198204476 300.466664342 510.5 231 510.5 c 0
 220.50548389 510.5 212.688479343 510.152010825 207.938028736 509.558204499 c 0
 207.630716176 509.519790429 207.317651001 509.5 207 509.5 c 0
 202.8606375 509.5 199.5 512.8606375 199.5 517 c 2
 199.5 772.5 l 1
 62.5 772.5 l 1
 62.5 11.5 l 1
199.5 157 m 2
 199.5 364 l 2
 199.5 367.510964389 201.91772887 370.461694027 205.177679343 371.276681645 c 0
 213.744006626 373.418263466 222.362197013 374.5 231 374.5 c 0
 262.815447007 374.5 290.265873118 363.338648757 312.302260938 341.302260938 c 0
 334.338648757 319.265873118 345.5 291.815447007 345.5 260 c 0
 345.5 228.803228235 334.304101524 201.699579649 312.302260938 179.697739063 c 0
 290.265873118 157.661351243 262.815447007 146.5 231 146.5 c 0
 222.362197013 146.5 213.744006626 147.581736534 205.177679343 149.723318355 c 0
 201.91772887 150.538305973 199.5 153.489035611 199.5 157 c 2
231 161.5 m 0
 259.184552993 161.5 282.400793549 171.005315424 301.697739062 190.302260937 c 0
 321.02923181 209.633753685 330.5 232.530105098 330.5 260 c 0
 330.5 288.184552993 320.994684576 311.400793549 301.697739062 330.697739062 c 0
 282.400793549 349.994684576 259.184552993 359.5 231 359.5 c 0
 225.515329545 359.5 220.019774266 358.990371729 214.5 357.962064118 c 1
 214.5 163.037935882 l 1
 220.019774266 162.009628271 225.515329545 161.5 231 161.5 c 0
EndSplineSet
EndChar

StartChar: c
Encoding: 99 99 68
Width: 384
VWidth: 0
Flags: HW
LayerCount: 2
Fore
SplineSet
313 -4.5 m 0
 239.814269561 -4.5 176.885786563 21.3519377363 125.215518997 72.6800180994 c 0
 73.5343715927 124.018906249 47.5 186.799928901 47.5 260 c 0
 47.5 333.200002325 73.5315378095 396.136059684 125.197739063 447.802260938 c 0
 176.863940316 499.468462191 239.799997675 525.5 313 525.5 c 0
 321.862765547 525.5 330.723851203 525.159103565 339.582173149 524.477694184 c 0
 343.449916513 524.180175464 346.5 520.943469533 346.5 517 c 2
 346.5 364 l 2
 346.5 359.8606375 343.1393625 356.5 339 356.5 c 0
 338.418669042 356.5 337.852697124 356.566282923 337.309235984 356.691697032 c 0
 329.172465015 358.56941341 321.078041966 359.5 313 359.5 c 0
 284.815447007 359.5 261.599206451 349.994684576 242.302260937 330.697739062 c 0
 223.005315424 311.400793549 213.5 288.184552993 213.5 260 c 0
 213.5 232.530105098 222.97076819 209.633753685 242.302260937 190.302260937 c 0
 261.599206451 171.005315424 284.815447007 161.5 313 161.5 c 0
 321.078041966 161.5 329.172465015 162.43058659 337.309235984 164.308302968 c 0
 337.852697124 164.433717077 338.418669042 164.5 339 164.5 c 0
 343.1393625 164.5 346.5 161.1393625 346.5 157 c 2
 346.5 4 l 2
 346.5 0.0565304673132 343.449916513 -3.18017546379 339.582173149 -3.4776941841 c 0
 330.723851203 -4.1591035646 321.862765547 -4.5 313 -4.5 c 0
62.5 260 m 0
 62.5 190.533404433 86.7989617407 131.981093751 135.784481003 83.3199819006 c 0
 184.780880104 34.6480622637 243.519063772 10.5 313 10.5 c 0
 319.165637296 10.5 325.332164637 10.6726005986 331.5 11.0179496899 c 1
 331.5 147.923899679 l 1
 325.345773865 146.976272165 319.176534658 146.5 313 146.5 c 0
 281.184552993 146.5 253.734126882 157.661351243 231.697739063 179.697739063 c 0
 209.695898476 201.699579649 198.5 228.803228235 198.5 260 c 0
 198.5 291.815447007 209.661351243 319.265873118 231.697739063 341.302260938 c 0
 253.734126882 363.338648757 281.184552993 374.5 313 374.5 c 0
 319.176534658 374.5 325.345773865 374.023727835 331.5 373.076100321 c 1
 331.5 509.98205031 l 1
 325.332164637 510.327399401 313.172553295 510.499988034 313 510.5 c 0
 243.533403079 510.50481717 184.802726351 486.198204476 135.802260937 437.197739062 c 0
 86.8017955239 388.197273649 62.5 329.466664342 62.5 260 c 0
EndSplineSet
EndChar

StartChar: d
Encoding: 100 100 69
Width: 512
VWidth: 0
Flags: HW
LayerCount: 2
Fore
SplineSet
337 787.5 m 2
 489 787.5 l 2
 493.1393625 787.5 496.5 784.1393625 496.5 780 c 2
 496.5 4 l 2
 496.5 -0.1393625 493.1393625 -3.5 489 -3.5 c 2
 337.314320456 -3.5 l 2
 329.212351594 -4.16650610758 321.107137328 -4.5 313 -4.5 c 0
 239.814269561 -4.5 176.885786563 21.3519377363 125.215518997 72.6800180994 c 0
 73.5343715927 124.018906249 47.5 186.799928901 47.5 260 c 0
 47.5 333.200002325 73.5315378095 396.136059684 125.197739063 447.802260938 c 0
 176.863940316 499.468462191 239.799997675 525.5 313 525.5 c 0
 318.501023117 525.5 324.001160822 525.346453555 329.5 525.039511147 c 1
 329.5 780 l 2
 329.5 784.1393625 332.8606375 787.5 337 787.5 c 2
481.5 772.5 m 1
 344.5 772.5 l 1
 344.5 517 l 2
 344.5 512.8606375 341.1393625 509.5 337 509.5 c 0
 336.787828641 509.5 336.577703213 509.50882934 336.369971411 509.526140324 c 0
 328.577091235 510.175547005 320.787558946 510.5 313 510.5 c 0
 243.533335658 510.5 184.802726351 486.198204476 135.802260937 437.197739062 c 0
 86.8017955239 388.197273649 62.5 329.466664342 62.5 260 c 0
 62.5 190.533404433 86.7989617407 131.981093751 135.784481003 83.3199819006 c 0
 184.780880104 34.6480622637 243.519063772 10.5 313 10.5 c 0
 320.787558946 10.5 328.577091235 10.8244529948 336.369971411 11.4738596761 c 0
 336.577703213 11.4911706596 336.787828641 11.5 337 11.5 c 2
 481.5 11.5 l 1
 481.5 772.5 l 1
313 146.5 m 0
 281.184552993 146.5 253.734126882 157.661351243 231.697739063 179.697739063 c 0
 209.695898476 201.699579649 198.5 228.803228235 198.5 260 c 0
 198.5 291.815447007 209.661351243 319.265873118 231.697739063 341.302260938 c 0
 253.734126882 363.338648757 281.184552993 374.5 313 374.5 c 0
 321.637802987 374.5 330.255993374 373.418263466 338.822320657 371.276681645 c 0
 342.08227113 370.461694027 344.5 367.510964389 344.5 364 c 2
 344.5 157 l 2
 344.5 153.489035611 342.08227113 150.538305973 338.822320657 149.723318355 c 0
 330.255993374 147.581736534 321.637802987 146.5 313 146.5 c 0
313 359.5 m 0
 284.815447007 359.5 261.599206451 349.994684576 242.302260937 330.697739062 c 0
 223.005315424 311.400793549 213.5 288.184552993 213.5 260 c 0
 213.5 232.530105098 222.97076819 209.633753685 242.302260937 190.302260937 c 0
 261.599206451 171.005315424 284.815447007 161.5 313 161.5 c 0
 318.484670455 161.5 323.980225734 162.009628271 329.5 163.037935882 c 1
 329.5 357.962064118 l 1
 323.980225734 358.990371729 318.484670455 359.5 313 359.5 c 0
EndSplineSet
EndChar

StartChar: e
Encoding: 101 101 70
Width: 617
VWidth: 0
Flags: HW
LayerCount: 2
Fore
SplineSet
235.069055543 197.619969177 m 1
 251.063308033 177.394257488 279.356796773 161.5 313 161.5 c 0
 335.541220371 161.5 492.959676368 164.572219551 535.60653368 166.920614778 c 0
 550.328729954 167.731308405 559.369863178 169.025129815 559.369863178 169.025129815 c 2
 560.188447549 169.332098954 561.074770807 169.5 562 169.5 c 0
 566.1393625 169.5 569.5 166.1393625 569.5 162 c 2
 569.5 6 l 2
 569.5 2.26103244373 566.758058778 -0.842574060241 563.176989848 -1.40800599643 c 0
 548.659888595 -3.70017987853 466.690846272 -4.5 313 -4.5 c 0
 239.814269561 -4.5 176.885786563 21.3519377363 125.215518997 72.6800180994 c 0
 73.5343715927 124.018906249 47.5 186.799928901 47.5 260 c 0
 47.5 333.200002325 73.5315378095 396.136059684 125.197739063 447.802260938 c 0
 176.863940316 499.468462191 239.799997675 525.5 313 525.5 c 0
 386.200002325 525.5 449.136059684 499.468462191 500.802260938 447.802260938 c 0
 552.468462191 396.136059684 578.5 333.200002325 578.5 260 c 0
 578.5 250.270700381 579.5 217.267112026 579.5 208 c 0
 579.5 203.882426633 576.174649407 200.535401603 572.065302289 200.500278978 c 2
 235.069055543 197.619969177 l 1
564.41550092 215.435454383 m 1
 564.208302569 226.798726557 563.5 250.797421569 563.5 260 c 0
 563.5 329.466664342 539.198204476 388.197273649 490.197739062 437.197739062 c 0
 441.197273649 486.198204476 382.466664342 510.5 313 510.5 c 0
 243.533335658 510.5 184.802726351 486.198204476 135.802260937 437.197739062 c 0
 86.8017955239 388.197273649 62.5 329.466664342 62.5 260 c 0
 62.5 190.533404433 86.7989617407 131.981093751 135.784481003 83.3199819006 c 0
 184.780880104 34.6480622637 243.519063772 10.5 313 10.5 c 0
 448.95625774 10.5 530.455387527 11.4479799747 554.5 12.8577901294 c 1
 554.5 153.092378614 l 1
 549.967490098 152.666121038 544.125735228 152.366649174 536.442849036 151.943582753 c 0
 493.455535079 149.576439914 335.930887832 146.5 313 146.5 c 0
 267.307263786 146.5 232.316814644 170.71484488 214.516884347 201.229011104 c 0
 213.870460762 202.33716582 213.5 203.625661432 213.5 205 c 0
 213.5 209.117573367 216.825350593 212.464598397 220.934697711 212.499721022 c 2
 564.41550092 215.435454383 l 1
313 374.5 m 0
 346.322218044 374.5 374.87902329 361.838885135 397.535887626 337.057939768 c 0
 398.755568523 335.723913787 399.5 333.948206511 399.5 332 c 0
 399.5 327.8606375 396.1393625 324.5 391.902718548 324.500619319 c 2
 234.902718548 326.500619319 l 2
 230.808112381 326.552779907 227.5 329.893112999 227.5 334 c 0
 227.5 335.984866394 228.272711373 337.79068055 229.533468531 339.132776878 c 0
 251.59471642 362.617331083 279.811141844 374.5 313 374.5 c 0
313 359.5 m 0
 290.226257006 359.5 270.851221193 353.46128677 254.329500621 341.254384259 c 1
 372.672601558 339.746828833 l 1
 355.609842828 353.001344471 335.898675288 359.5 313 359.5 c 0
EndSplineSet
EndChar

StartChar: f
Encoding: 102 102 71
Width: 512
VWidth: 0
Flags: HW
LayerCount: 2
Fore
SplineSet
147.672443674 503.5 m 2
 57.5 503.5 l 1
 57.5 366.5 l 1
 146.882149047 366.5 l 2
 151.021511547 366.5 154.382149047 363.1393625 154.382045757 358.960260031 c 2
 152.539098131 4.5 l 1
 304.5 4.5 l 1
 304.5 359 l 2
 304.5 363.1393625 307.8606375 366.5 312 366.5 c 2
 401.5 366.5 l 1
 401.5 503.5 l 1
 312 503.5 l 2
 307.8606375 503.5 304.5 506.8606375 304.5 511 c 2
 304.5 573 l 2
 304.5 574.880627276 305.193681654 576.600515036 306.338914557 577.917532874 c 0
 327.664613594 602.442086767 357.784910429 617.5 393 617.5 c 0
 416.35159866 617.5 438.243570738 610.525873456 456.5 598.819489119 c 1
 456.5 746.143113019 l 1
 435.959179927 751.05373596 415.353558721 753.5 393 753.5 c 0
 278.812871971 753.5 185.925681763 678.381477845 155.494500659 572.922419591 c 1
 155.172340384 510.960260031 l 2
 155.150913468 506.839149736 151.798551505 503.5 147.672443674 503.5 c 2
471.5 752 m 2
 471.5 584 l 2
 471.5 579.8606375 468.1393625 576.5 464 576.5 c 0
 462.162351311 576.5 460.478179223 577.162338081 459.173390173 578.261107807 c 0
 441.472237639 593.167341521 418.119825966 602.5 393 602.5 c 0
 363.213142036 602.5 338.018591598 590.383479888 319.5 570.144123215 c 1
 319.5 518.5 l 1
 409 518.5 l 2
 413.1393625 518.5 416.5 515.1393625 416.5 511 c 2
 416.5 359 l 2
 416.5 354.8606375 413.1393625 351.5 409 351.5 c 2
 319.5 351.5 l 1
 319.5 -3 l 2
 319.5 -7.1393625 316.1393625 -10.5 312 -10.5 c 2
 145 -10.5 l 2
 140.8606375 -10.5 137.5 -7.1393625 137.50010329 -2.96026003059 c 2
 139.343050916 351.5 l 1
 50 351.5 l 2
 45.8606375 351.5 42.5 354.8606375 42.5 359 c 2
 42.5 511 l 2
 42.5 515.1393625 45.8606375 518.5 50 518.5 c 2
 140.211335144 518.5 l 1
 140.50010329 574.039739969 l 2
 140.50373062 574.737396429 140.602817839 575.412643005 140.784958571 576.053073318 c 0
 172.646412005 688.082054748 271.538892496 768.5 393 768.5 c 0
 418.613420053 768.5 442.307180264 765.411466384 465.895875386 759.257893743 c 0
 469.118572816 758.417190066 471.5 755.484506506 471.5 752 c 2
EndSplineSet
EndChar

StartChar: g
Encoding: 103 103 72
Width: 620
VWidth: 0
Flags: HW
LayerCount: 2
Fore
SplineSet
339 372.5 m 0
 339.545506845 372.5 340.077489302 372.441634642 340.590037994 372.330813303 c 0
 366.78532645 366.66696715 388.747794178 353.357953254 405.780278095 332.777035188 c 0
 422.882569698 312.111766168 431.5 287.599791393 431.5 260 c 0
 431.5 233.019012381 422.85641909 208.711967985 405.820404469 187.77186668 c 0
 388.76706034 166.810464522 366.707279695 153.607731442 340.40042564 148.630759053 c 0
 339.946684676 148.544916168 339.478546312 148.5 339 148.5 c 0
 338.257346757 148.5 337.539759764 148.608175002 336.862149767 148.809614254 c 0
 329.601825144 147.27429041 322.30793177 146.500000005 315 146.5 c 0
 307.259205011 146.5 299.927098327 147.246823958 293.023133675 148.776511195 c 0
 292.379437263 148.596348208 291.700881508 148.5 291 148.5 c 0
 290.454493155 148.5 289.922510698 148.558365358 289.409962006 148.669186697 c 0
 263.21467355 154.33303285 241.252205822 167.642046746 224.219721905 188.222964812 c 0
 207.148472299 208.850724753 198.5 233.019280237 198.5 260 c 0
 198.5 287.600506399 207.113419185 312.250958228 224.179595531 333.22813332 c 0
 241.23293966 354.189535478 263.292720305 367.392268558 289.59957436 372.369240947 c 0
 290.053315324 372.455083832 290.521453688 372.5 291 372.5 c 0
 291.700881451 372.5 292.379437138 372.403651739 293.023133485 372.223488813 c 0
 299.927098206 373.753176004 307.259204949 374.499999975 315 374.5 c 0
 322.307931768 374.5 329.601825138 373.725709597 336.862149756 372.190385746 c 0
 337.539759757 372.391825005 338.257346754 372.5 339 372.5 c 0
315 359.5 m 0
 306.920262874 359.5 299.58981965 358.567255003 292.975436731 356.763332389 c 0
 292.34594829 356.591653723 291.683593119 356.5 291 356.5 c 0
 290.195204432 356.5 289.419845512 356.627035733 288.692898942 356.862131499 c 0
 267.366487937 352.045802161 249.956454512 341.147428189 235.820404469 323.77186668 c 0
 220.886580815 305.415708439 213.5 284.399493601 213.5 260 c 0
 213.5 236.314053097 220.851527701 215.815941914 235.780278095 197.777035188 c 0
 249.940012077 180.667356627 267.443982394 169.579153103 288.88245865 164.196391915 c 0
 289.554091882 164.393974614 290.264761873 164.5 291 164.5 c 0
 291.683593119 164.5 292.34594829 164.408346277 292.975436731 164.236667611 c 0
 299.58981965 162.432744997 306.920262874 161.5 315 161.5 c 0
 322.362197013 161.5 329.744006626 162.418263466 337.177679343 164.276681645 c 0
 337.761150575 164.422549453 338.371601889 164.5 339 164.5 c 0
 339.804795568 164.5 340.580154488 164.372964267 341.307101058 164.137868501 c 0
 362.633512063 168.954197839 380.043545488 179.852571811 394.179595531 197.22813332 c 0
 409.14358091 215.621365348 416.5 236.314320952 416.5 260 c 0
 416.5 284.400208607 409.117430302 305.221567165 394.219721905 323.222964812 c 0
 380.059987923 340.332643373 362.556017606 351.420846897 341.11754135 356.803608085 c 0
 340.445908118 356.606025386 339.735238127 356.5 339 356.5 c 0
 338.371601889 356.5 337.761150575 356.577450547 337.177679343 356.723318355 c 0
 329.744006626 358.581736534 322.362197013 359.5 315 359.5 c 0
317 -4.5 m 0
 313 -4.5 309 -4.5 305 -4.5 c 0
 302.384729418 -4.5 299.905690874 -4.50082265603 297.557021033 -4.50082265603 c 0
 278.382434933 -4.50082265603 267.897081017 -4.44599163448 262.910473911 -3.44104654603 c 0
 196.059805893 1.46108449143 142.815281726 28.63888865 104.572219698 77.9069775447 c 0
 66.4213125001 127.056344476 47.5 188.004901933 47.5 260 c 0
 47.5 329.793177692 71.4524141653 390.628691695 119.015560606 441.613647232 c 0
 166.584444283 492.604752757 225.40498787 520.379070806 294.549176439 524.486646364 c 0
 294.698325625 524.495506712 294.848642222 524.5 295 524.5 c 0
 298.577356039 524.5 302.958474048 524.803858349 308.061971264 525.441795501 c 0
 308.369283824 525.480209571 308.682348999 525.5 309 525.5 c 2
 317 525.5 l 2
 390.185730439 525.5 453.114213437 499.648062264 504.784481003 448.319981901 c 0
 556.465628407 396.981093751 582.5 334.200071099 582.5 261 c 0
 582.5 258.305148439 582.5 255.610296877 582.5 252.915445316 c 2
 579.499532186 -18.0845546844 l 2
 579.491858849 -18.7777127789 579.389954301 -19.4484245155 579.206037168 -20.0844712676 c 0
 562.813292733 -76.7760457723 532.039592767 -123.245582281 487.157872575 -158.876871594 c 0
 442.170349966 -194.592156718 389.549690173 -212.5 330 -212.5 c 0
 215.699529911 -212.5 147.807202121 -209.79699322 123.078305795 -203.251108898 c 0
 119.868716007 -202.401511602 117.5 -199.47519456 117.5 -196 c 2
 117.5 -28 l 2
 117.5 -23.8606375 120.8606375 -20.5 125 -20.5 c 0
 126.8236776 -20.5 128.496203399 -21.1523052511 129.796784385 -22.2361227393 c 0
 131.245338865 -23.4432514727 138.467569266 -26.540811104 150.504262796 -29.1658346931 c 0
 165.483890086 -32.4326683041 187.665484545 -35.5918259071 216.763259683 -38.5384360477 c 0
 269.299693704 -43.858581265 307.206696977 -46.5 330 -46.5 c 0
 346.349486923 -46.5 362.941133989 -43.3630528951 379.855466198 -36.9802860236 c 0
 395.53347539 -31.0640561399 407.631926417 -23.3754356364 416.5 -14.0839742482 c 1
 416.5 14.6513489468 l 1
 384.742403074 1.89546783766 351.531106818 -4.5 317 -4.5 c 0
305 10.5 m 0
 309 10.5 313 10.5 317 10.5 c 0
 353.282171048 10.5 387.861814679 17.9308607479 420.922830229 32.8407305056 c 0
 421.861945786 33.2642532078 422.903659337 33.5 424 33.5 c 0
 428.1393625 33.5 431.5 30.1393625 431.5 26 c 2
 431.5 -17 l 2
 431.5 -18.9002541354 430.791763802 -20.6363961838 429.625082065 -21.9586354848 c 0
 418.635508591 -34.4134854225 403.665119365 -44.030813764 385.144533802 -51.0197139764 c 0
 366.725532678 -57.9702804382 348.317179744 -61.5 330 -61.5 c 0
 306.126636357 -61.5 268.033639629 -58.8080854017 215.236740317 -53.4615639523 c 0
 185.815996936 -50.482248167 163.265081108 -47.3039572103 147.29820634 -43.8218196279 c 0
 141.586125691 -42.5760999119 136.682341228 -41.3725558288 132.5 -39.9972300044 c 1
 132.5 -189.963204417 l 1
 158.320701785 -194.688539105 225.005713716 -197.5 330 -197.5 c 0
 386.450309827 -197.5 435.496316701 -180.741176615 477.842127425 -147.123128406 c 0
 520.039280027 -113.62309886 548.839843643 -70.4121223831 564.511874909 -16.885004405 c 1
 567.500467814 253.084554684 l 2
 567.500467814 255.723036456 567.500467814 258.361518228 567.500467814 261 c 0
 567.500467814 330.466595567 543.201038259 389.018906249 494.215518997 437.680018099 c 0
 445.219119896 486.351937736 386.480936228 510.5 317 510.5 c 2
 309.467466539 510.5 l 2
 304.192070832 509.854435579 299.470837722 509.512462192 295.233064798 509.500334194 c 0
 229.80681766 505.563523914 175.032253726 479.675017138 129.984439394 431.386352768 c 0
 84.880919168 383.037974972 62.5 326.206822308 62.5 260 c 0
 62.5 190.661764733 80.5786874999 133.276988857 116.427780302 87.0930224553 c 0
 152.080190427 41.1624400408 200.982354179 16.0206512996 264.541062411 11.4807435688 c 0
 266.730424218 11.3243605826 278.880644397 10.5 305 10.5 c 0
EndSplineSet
EndChar

StartChar: h
Encoding: 104 104 73
Width: 597
VWidth: 0
Flags: HW
LayerCount: 2
Fore
SplineSet
55 775.5 m 2
 224 775.5 l 2
 228.1393625 775.5 231.5 772.1393625 231.5 768 c 2
 231.5 521.967047018 l 1
 255.129309845 528.319439279 279.311105928 531.5 304 531.5 c 0
 363.550728915 531.5 416.63485422 513.596806415 462.592634473 477.928081443 c 0
 508.486439864 442.309008601 539.80036371 395.820758644 556.206037168 339.084471268 c 0
 556.391308129 338.443742528 556.493354659 337.767836582 556.499686315 337.069243874 c 2
 556.499686315 337.069243874 559.499686315 6.0692438743 559.5 6 c 0
 559.5 1.8606375 556.1393625 -1.5 552 -1.5 c 2
 385 -1.5 l 2
 380.8606375 -1.5 377.5 1.8606375 377.5 6 c 2
 377.5 333.161344141 l 1
 357.834468467 354.886936827 333.716763434 365.5 304 365.5 c 0
 274.918613088 365.5 251.108334521 355.477267489 231.5 335.039433762 c 1
 231.5 6 l 2
 231.5 1.8606375 228.1393625 -1.5 224 -1.5 c 2
 55 -1.5 l 2
 50.8606375 -1.5 47.5 1.8606375 47.5 6 c 2
 47.5 768 l 2
 47.5 772.1393625 50.8606375 775.5 55 775.5 c 2
216.5 760.5 m 1
 62.5 760.5 l 1
 62.5 13.5 l 1
 216.5 13.5 l 1
 216.5 338 l 2
 216.5 339.948206511 217.244431477 341.723913787 218.464112374 343.057939768 c 0
 241.153885641 367.874879278 270.059415894 380.5 304 380.5 c 0
 338.69047161 380.5 368.001086149 367.118198598 390.674357267 340.902228867 c 0
 391.811675428 339.587204744 392.5 337.87335146 392.5 336 c 2
 392.5 13.5 l 1
 544.431710266 13.5 l 1
 541.509726979 335.892156017 l 1
 525.844341022 389.371468085 496.58437099 432.561406855 453.407365527 466.071918557 c 0
 410.031812447 499.736526918 360.449271085 516.5 304 516.5 c 0
 277.413490271 516.5 251.504338287 512.614333388 226.20576548 504.830157139 c 0
 225.508255456 504.61553867 224.767514005 504.5 224 504.5 c 0
 219.8606375 504.5 216.5 507.8606375 216.5 512 c 2
 216.5 760.5 l 1
EndSplineSet
EndChar

StartChar: i
Encoding: 105 105 74
Width: 252
VWidth: 0
Flags: HW
LayerCount: 2
Fore
SplineSet
55 519.5 m 2
 207 519.5 l 2
 211.1393625 519.5 214.5 516.1393625 214.5 512 c 2
 214.5 -2 l 2
 214.5 -6.1393625 211.1393625 -9.5 207 -9.5 c 2
 55 -9.5 l 2
 50.8606375 -9.5 47.5 -6.1393625 47.5 -2 c 2
 47.5 512 l 2
 47.5 516.1393625 50.8606375 519.5 55 519.5 c 2
199.5 504.5 m 1
 62.5 504.5 l 1
 62.5 5.5 l 1
 199.5 5.5 l 1
 199.5 504.5 l 1
55 779.5 m 2
 207 779.5 l 2
 211.1393625 779.5 214.5 776.1393625 214.5 772 c 2
 214.5 630 l 2
 214.5 625.8606375 211.1393625 622.5 207 622.5 c 2
 55 622.5 l 2
 50.8606375 622.5 47.5 625.8606375 47.5 630 c 2
 47.5 772 l 2
 47.5 776.1393625 50.8606375 779.5 55 779.5 c 2
199.5 764.5 m 1
 62.5 764.5 l 1
 62.5 637.5 l 1
 199.5 637.5 l 1
 199.5 764.5 l 1
EndSplineSet
EndChar

StartChar: j
Encoding: 106 106 75
Width: 419
VWidth: 0
Flags: HW
LayerCount: 2
Fore
SplineSet
47.5 -195 m 2
 47.5 -27 l 2
 47.5 -22.8606375 50.8606375 -19.5 55 -19.5 c 0
 56.8322544998 -19.5 58.5119320987 -20.158455366 59.8151098873 -21.2514431887 c 0
 79.212519937 -37.5202387143 101.034113469 -45.5 126 -45.5 c 0
 155.716763434 -45.5 179.834468467 -34.886936827 199.5 -13.1613441406 c 1
 199.5 517 l 2
 199.5 521.1393625 202.8606375 524.5 207 524.5 c 2
 374 524.5 l 2
 378.1393625 524.5 381.5 521.1393625 381.499879413 516.957062054 c 2
 378.499879413 -17.0429379463 l 2
 378.495902266 -17.7508701761 378.39363268 -18.4357034538 378.206037168 -19.0844712676 c 0
 361.80036371 -75.8207586436 330.486439864 -122.309008601 284.592634473 -157.928081443 c 0
 238.63485422 -193.596806415 185.550728915 -211.5 126 -211.5 c 0
 100.713422285 -211.5 76.3913100012 -208.422198247 53.0783057955 -202.251108898 c 0
 49.868716007 -201.401511602 47.5 -198.47519456 47.5 -195 c 2
126 -196.5 m 0
 182.449271085 -196.5 232.031812447 -179.736526918 275.407365527 -146.071918557 c 0
 318.580976839 -112.564041121 347.839740675 -69.3782583599 363.506032352 -15.904767876 c 1
 366.457744531 509.5 l 1
 214.5 509.5 l 1
 214.5 -16 l 2
 214.5 -17.87335146 213.811675428 -19.5872047436 212.674357267 -20.9022288667 c 0
 190.001086149 -47.1181985976 160.69047161 -60.5 126 -60.5 c 0
 102.7901741 -60.5 81.4920357585 -54.2384657114 62.5 -41.8847906741 c 1
 62.5 -189.158207203 l 1
 82.8208932834 -194.048769986 103.976127475 -196.5 126 -196.5 c 0
219 779.5 m 2
 371 779.5 l 2
 375.1393625 779.5 378.5 776.1393625 378.5 772 c 2
 378.5 630 l 2
 378.5 625.8606375 375.1393625 622.5 371 622.5 c 2
 219 622.5 l 2
 214.8606375 622.5 211.5 625.8606375 211.5 630 c 2
 211.5 772 l 2
 211.5 776.1393625 214.8606375 779.5 219 779.5 c 2
363.5 764.5 m 1
 226.5 764.5 l 1
 226.5 637.5 l 1
 363.5 637.5 l 1
 363.5 764.5 l 1
EndSplineSet
EndChar

StartChar: k
Encoding: 107 107 76
Width: 753
VWidth: 0
Flags: HW
LayerCount: 2
Fore
SplineSet
66 781.5 m 2
 207 781.5 l 2
 211.1393625 781.5 214.5 778.1393625 214.5 774 c 2
 214.5 333.406082156 l 1
 447.096329917 534.673110492 l 2
 448.411542927 535.811172362 450.12596409 536.5 452.079157965 536.49959002 c 2
 645.079157965 534.49959002 l 2
 649.182121636 534.457072261 652.5 531.112944569 652.5 527 c 0
 652.5 524.833399324 651.579311972 522.880139952 650.108171162 521.510457129 c 2
 394.626355969 283.648077467 l 1
 659.462760837 2.13678784832 l 2
 660.725747786 0.794279498555 661.5 -1.01315561054 661.5 -3 c 0
 661.5 -7.1393625 658.1393625 -10.5 653.95890771 -10.4998895593 c 2
 467.95890771 -9.49988955935 l 2
 465.755044438 -9.48804083208 463.774907473 -8.52360088564 462.409633165 -6.9977060712 c 2
 264.350947506 214.36200143 l 1
 214.5 151.392383529 l 1
 214.5 -2 l 2
 214.5 -6.1393625 211.1393625 -9.5 207 -9.5 c 2
 66 -9.5 l 2
 61.8606375 -9.5 58.5 -6.1393625 58.5 -2 c 2
 58.5 774 l 2
 58.5 778.1393625 61.8606375 781.5 66 781.5 c 2
199.5 766.5 m 1
 73.5 766.5 l 1
 73.5 5.5 l 1
 199.5 5.5 l 1
 199.5 154 l 2
 199.5 155.755692489 200.10457704 157.371292732 201.116721927 158.649791537 c 2
 258.116721927 230.649791537 l 2
 259.490891623 232.385584837 261.616329989 233.5 264 233.5 c 0
 266.220333438 233.5 268.216612415 232.533078658 269.590366835 230.997706071 c 2
 471.367572828 5.48200525538 l 1
 636.560661747 4.59387036872 l 1
 378.537239163 278.863212152 l 2
 377.274252214 280.205720501 376.5 282.013155611 376.5 284 c 0
 376.5 286.166600676 377.420688028 288.119860048 378.891828838 289.489542871 c 2
 626.149468993 519.694931981 l 1
 454.758892268 521.471000134 l 1
 211.903670083 311.326889508 l 2
 210.588457073 310.188827638 208.87403591 309.5 207 309.5 c 0
 202.8606375 309.5 199.5 312.8606375 199.5 317 c 2
 199.5 766.5 l 1
EndSplineSet
EndChar

StartChar: l
Encoding: 108 108 77
Width: 419
VWidth: 0
Flags: HW
LayerCount: 2
Fore
SplineSet
298 -10.5 m 0
 238.449271085 -10.5 185.36514578 7.40319358485 139.407365527 43.0719185574 c 0
 93.5135601356 78.6909913987 62.1996362902 125.179241356 45.7939628321 181.915528732 c 0
 45.6060848554 182.565273402 45.5037899509 183.251192225 45.5001032898 183.960260031 c 2
 45.5001032898 183.960260031 42.5001032898 760.960260031 42.5 761 c 0
 42.5 765.1393625 45.8606375 768.5 50 768.5 c 2
 217 768.5 l 2
 221.1393625 768.5 224.5 765.1393625 224.5 761 c 2
 224.5 187.838655859 l 1
 244.165531533 166.113063173 268.283236566 155.5 298 155.5 c 0
 322.965886531 155.5 344.787480063 163.479761286 364.184890113 179.748556811 c 0
 365.488067901 180.841544634 367.1677455 181.5 369 181.5 c 0
 373.1393625 181.5 376.5 178.1393625 376.5 174 c 2
 376.5 6 l 2
 376.5 2.52480543982 374.131283993 -0.40151160156 370.921694205 -1.2511088985 c 0
 347.608689999 -7.42219824706 323.286577715 -10.5 298 -10.5 c 0
298 4.5 m 0
 320.023872525 4.5 341.179106717 6.95123001419 361.5 11.8417927969 c 1
 361.5 159.115209326 l 1
 342.507964242 146.761534289 321.2098259 140.5 298 140.5 c 0
 263.30952839 140.5 233.998913851 153.881801402 211.325642733 180.097771133 c 0
 210.188324572 181.412795256 209.5 183.12664854 209.5 185 c 2
 209.5 753.5 l 1
 57.5390981312 753.5 l 1
 60.4944168545 185.093698872 l 1
 76.1608186206 131.620916125 105.419435803 88.4356386194 148.592634473 54.9280814426 c 0
 191.968187553 21.2634730818 241.550728915 4.5 298 4.5 c 0
EndSplineSet
EndChar

StartChar: m
Encoding: 109 109 78
Width: 924
VWidth: 0
Flags: HW
LayerCount: 2
Fore
SplineSet
50 529.5 m 2
 219 529.5 l 2
 223.1393625 529.5 226.5 526.1393625 226.5 521.973478301 c 1
 249.989090347 528.314887274 273.750388801 531.5 299 531.5 c 0
 359.979707921 531.5 415.335965185 511.232439507 459.351155888 476.80915725 c 1
 542.637005002 518.704463168 l 2
 543.006367728 518.890263812 543.393153992 519.046433467 543.79423452 519.169842861 c 0
 570.463578337 527.375794804 597.268227172 531.5 626 531.5 c 0
 747.461107504 531.5 846.353587995 451.082054748 878.215041429 339.053073318 c 0
 878.394613416 338.421675044 878.493457991 337.756435615 878.499686315 337.069243874 c 2
 878.499686315 337.069243874 881.499686315 6.0692438743 881.5 6 c 0
 881.5 1.8606375 878.1393625 -1.5 874 -1.5 c 2
 707 -1.5 l 2
 702.8606375 -1.5 699.5 1.8606375 699.5 6 c 2
 699.5 333.144123215 l 1
 680.981408402 353.383479888 655.786857964 365.5 626 365.5 c 0
 597.122461607 365.5 571.948887237 354.242703216 553.499995815 335.043908276 c 1
 553.499995815 262.163464586 553.499686315 189.283020897 553.499686315 116.402577208 c 2
 554.5 6 l 0
 554.5 1.8606375 551.1393625 -1.5 547 -1.5 c 2
 377 -1.5 l 2
 372.8606375 -1.5 369.5 1.8606375 369.500341444 6.07224166845 c 2
 372.5 323.25 l 1
 372.5 333.144123215 l 1
 353.981408402 353.383479888 328.786857964 365.5 299 365.5 c 0
 270.12246379 365.5 244.948891044 354.242704918 226.5 335.04391263 c 1
 226.5 6 l 2
 226.5 1.8606375 223.1393625 -1.5 219 -1.5 c 2
 50 -1.5 l 2
 45.8606375 -1.5 42.5 1.8606375 42.5 6 c 2
 42.5 522 l 2
 42.5 526.1393625 45.8606375 529.5 50 529.5 c 2
211.5 514.5 m 1
 57.5 514.5 l 1
 57.5 13.5 l 1
 211.5 13.5 l 1
 211.5 338 l 2
 211.5 339.940507676 212.238559481 341.709876772 213.449675015 343.04210386 c 0
 234.843454139 366.575260896 264.908275563 380.5 299 380.5 c 0
 334.215089571 380.5 364.335386406 365.442086767 385.661085443 340.917532874 c 0
 386.806318346 339.600515036 387.5 337.880627276 387.5 336 c 2
 387.5 323.25 l 1
 384.571255525 13.5 l 1
 539.431710266 13.5 l 1
 538.500313685 116.264089459 l 1
 538.500313685 338 l 2
 538.500313685 339.940507676 539.238559481 341.709876772 540.449675015 343.04210386 c 0
 561.843454139 366.575260896 591.908275563 380.5 626 380.5 c 0
 661.215089571 380.5 691.335386406 365.442086767 712.661085443 340.917532874 c 0
 713.806318346 339.600515036 714.5 337.880627276 714.5 336 c 2
 714.5 13.5 l 1
 866.431710266 13.5 l 1
 863.509580899 335.908273499 l 1
 833.082624571 441.37476027 740.192233584 516.5 626 516.5 c 0
 598.944926804 516.5 573.9304492 512.684562044 548.799766055 505.012215606 c 1
 461.795665889 461.246516734 l 2
 460.783952847 460.737594416 459.641518944 460.450979903 458.432670891 460.450979903 c 0
 456.641986094 460.450979903 454.997033486 461.079896477 453.706838233 462.12870446 c 0
 411.711976477 496.266596501 358.258679615 516.5 299 516.5 c 0
 271.731772828 516.5 246.536421663 512.624205196 221.20576548 504.830157139 c 0
 220.508255456 504.61553867 219.767514005 504.5 219 504.5 c 0
 214.8606375 504.5 211.5 507.8606375 211.5 512 c 2
 211.5 514.5 l 1
EndSplineSet
EndChar

StartChar: n
Encoding: 110 110 79
Width: 597
VWidth: 0
Flags: HW
LayerCount: 2
Fore
SplineSet
55 529.5 m 2
 224 529.5 l 2
 228.1393625 529.5 231.5 526.1393625 231.5 521.967047018 c 1
 255.129309845 528.319439279 279.311105928 531.5 304 531.5 c 0
 363.550728915 531.5 416.63485422 513.596806415 462.592634473 477.928081443 c 0
 508.486439864 442.309008601 539.80036371 395.820758644 556.206037168 339.084471268 c 0
 556.391308129 338.443742528 556.493354659 337.767836582 556.499686315 337.069243874 c 2
 556.499686315 337.069243874 559.499686315 6.0692438743 559.5 6 c 0
 559.5 1.8606375 556.1393625 -1.5 552 -1.5 c 2
 385 -1.5 l 2
 380.8606375 -1.5 377.5 1.8606375 377.5 6 c 2
 377.5 333.161344141 l 1
 357.834468467 354.886936827 333.716763434 365.5 304 365.5 c 0
 274.918613088 365.5 251.108334521 355.477267489 231.5 335.039433762 c 1
 231.5 6 l 2
 231.5 1.8606375 228.1393625 -1.5 224 -1.5 c 2
 55 -1.5 l 2
 50.8606375 -1.5 47.5 1.8606375 47.5 6 c 2
 47.5 522 l 2
 47.5 526.1393625 50.8606375 529.5 55 529.5 c 2
216.5 514.5 m 1
 62.5 514.5 l 1
 62.5 13.5 l 1
 216.5 13.5 l 1
 216.5 338 l 2
 216.5 339.948206511 217.244431477 341.723913787 218.464112374 343.057939768 c 0
 241.153885641 367.874879278 270.059415894 380.5 304 380.5 c 0
 338.69047161 380.5 368.001086149 367.118198598 390.674357267 340.902228867 c 0
 391.811675428 339.587204744 392.5 337.87335146 392.5 336 c 2
 392.5 13.5 l 1
 544.431710266 13.5 l 1
 541.509726979 335.892156017 l 1
 525.844341022 389.371468085 496.58437099 432.561406855 453.407365527 466.071918557 c 0
 410.031812447 499.736526918 360.449271085 516.5 304 516.5 c 0
 277.413490271 516.5 251.504338287 512.614333388 226.20576548 504.830157139 c 0
 225.508255456 504.61553867 224.767514005 504.5 224 504.5 c 0
 219.8606375 504.5 216.5 507.8606375 216.5 512 c 2
 216.5 514.5 l 1
EndSplineSet
EndChar

StartChar: o
Encoding: 111 111 80
Width: 616
VWidth: 0
Flags: HW
LayerCount: 2
Fore
SplineSet
317 -4.5 m 2
 309 -4.5 l 2
 303.498681365 -4.5 298.559511684 -4.17093773081 294.123498342 -3.45730755251 c 0
 225.187002665 1.40059500041 166.532830795 29.1340261968 119.050439481 79.349216452 c 0
 71.4574945577 129.681323673 47.5 190.206835082 47.5 260 c 0
 47.5 329.793177692 71.4524141653 390.628691695 119.015560606 441.613647232 c 0
 166.584444283 492.604752757 225.40498787 520.379070806 294.549176439 524.486646364 c 0
 294.698325625 524.495506712 294.848642222 524.5 295 524.5 c 0
 298.577356039 524.5 302.958474048 524.803858349 308.061971264 525.441795501 c 0
 308.369283824 525.480209571 308.682348999 525.5 309 525.5 c 2
 317 525.5 l 2
 390.200002325 525.5 453.136059684 499.468462191 504.802260938 447.802260938 c 0
 556.468462191 396.136059684 582.5 333.200002325 582.5 260 c 0
 582.5 186.799928901 556.465628407 124.018906249 504.784481003 72.6800180994 c 0
 453.114213437 21.3519377363 390.185730439 -4.5 317 -4.5 c 2
309 10.5 m 2
 317 10.5 l 2
 386.480936228 10.5 445.219119896 34.6480622637 494.215518997 83.3199819006 c 0
 543.201038259 131.981093751 567.5 190.533404433 567.5 260 c 0
 567.5 329.466664342 543.198204476 388.197273649 494.197739062 437.197739062 c 0
 445.197273649 486.198204476 386.466664342 510.5 317 510.5 c 2
 309.467466539 510.5 l 2
 304.192070832 509.854435579 299.470837722 509.512462192 295.233064798 509.500334194 c 0
 229.80681766 505.563523914 175.032253726 479.675017138 129.984439394 431.386352768 c 0
 84.880919168 383.037974972 62.5 326.206822308 62.5 260 c 0
 62.5 193.793164918 84.8758387756 137.318676327 129.949560519 89.650783548 c 0
 175.053191465 41.9512601739 229.947061064 16.0268793353 295.525165824 11.4818621737 c 0
 299.421325646 11.211831295 303.572832442 10.5 309 10.5 c 2
339 372.5 m 0
 339.545506845 372.5 340.077489302 372.441634642 340.590037994 372.330813303 c 0
 366.78532645 366.66696715 388.747794178 353.357953254 405.780278095 332.777035188 c 0
 422.882569698 312.111766168 431.5 287.599791393 431.5 260 c 0
 431.5 233.019012381 422.85641909 208.711967985 405.820404469 187.77186668 c 0
 388.76706034 166.810464522 366.707279695 153.607731442 340.40042564 148.630759053 c 0
 339.946684676 148.544916168 339.478546312 148.5 339 148.5 c 0
 338.257346757 148.5 337.539759764 148.608175002 336.862149767 148.809614254 c 0
 329.601825144 147.27429041 322.30793177 146.500000005 315 146.5 c 0
 307.259205011 146.5 299.927098327 147.246823958 293.023133675 148.776511195 c 0
 292.379437263 148.596348208 291.700881508 148.5 291 148.5 c 0
 290.454493155 148.5 289.922510698 148.558365358 289.409962006 148.669186697 c 0
 263.21467355 154.33303285 241.252205822 167.642046746 224.219721905 188.222964812 c 0
 207.148472299 208.850724753 198.5 233.019280237 198.5 260 c 0
 198.5 287.600506399 207.113419185 312.250958228 224.179595531 333.22813332 c 0
 241.23293966 354.189535478 263.292720305 367.392268558 289.59957436 372.369240947 c 0
 290.053315324 372.455083832 290.521453688 372.5 291 372.5 c 0
 291.700881451 372.5 292.379437138 372.403651739 293.023133485 372.223488813 c 0
 299.927098206 373.753176004 307.259204949 374.499999975 315 374.5 c 0
 322.307931768 374.5 329.601825138 373.725709597 336.862149756 372.190385746 c 0
 337.539759757 372.391825005 338.257346754 372.5 339 372.5 c 0
315 359.5 m 0
 306.920262874 359.5 299.58981965 358.567255003 292.975436731 356.763332389 c 0
 292.34594829 356.591653723 291.683593119 356.5 291 356.5 c 0
 290.195204432 356.5 289.419845512 356.627035733 288.692898942 356.862131499 c 0
 267.366487937 352.045802161 249.956454512 341.147428189 235.820404469 323.77186668 c 0
 220.886580815 305.415708439 213.5 284.399493601 213.5 260 c 0
 213.5 236.314053097 220.851527701 215.815941914 235.780278095 197.777035188 c 0
 249.940012077 180.667356627 267.443982394 169.579153103 288.88245865 164.196391915 c 0
 289.554091882 164.393974614 290.264761873 164.5 291 164.5 c 0
 291.683593119 164.5 292.34594829 164.408346277 292.975436731 164.236667611 c 0
 299.58981965 162.432744997 306.920262874 161.5 315 161.5 c 0
 322.362197013 161.5 329.744006626 162.418263466 337.177679343 164.276681645 c 0
 337.761150575 164.422549453 338.371601889 164.5 339 164.5 c 0
 339.804795568 164.5 340.580154488 164.372964267 341.307101058 164.137868501 c 0
 362.633512063 168.954197839 380.043545488 179.852571811 394.179595531 197.22813332 c 0
 409.14358091 215.621365348 416.5 236.314320952 416.5 260 c 0
 416.5 284.400208607 409.117430302 305.221567165 394.219721905 323.222964812 c 0
 380.059987923 340.332643373 362.556017606 351.420846897 341.11754135 356.803608085 c 0
 340.445908118 356.606025386 339.735238127 356.5 339 356.5 c 0
 338.371601889 356.5 337.761150575 356.577450547 337.177679343 356.723318355 c 0
 329.744006626 358.581736534 322.362197013 359.5 315 359.5 c 0
EndSplineSet
EndChar

StartChar: p
Encoding: 112 112 81
Width: 512
VWidth: 0
Flags: HW
LayerCount: 2
Fore
SplineSet
207 -209.5 m 2
 55 -209.5 l 2
 50.8606375 -209.5 47.5 -206.1393625 47.5 -202 c 2
 47.5 509 l 2
 47.5 513.1393625 50.8606375 516.5 55 516.5 c 2
 206.539591581 516.5 l 2
 212.416028266 517.198074211 220.449906632 517.5 231 517.5 c 0
 304.185730439 517.5 367.114213437 491.648062264 418.784481003 440.319981901 c 0
 470.465628407 388.981093751 496.5 326.200071099 496.5 253 c 0
 496.5 179.799997675 470.468462191 116.863940316 418.802260938 65.1977390625 c 0
 367.136059684 13.5315378095 304.200002325 -12.5 231 -12.5 c 0
 224.601011315 -12.5 219.127696118 -12.388926543 214.5 -12.1457553871 c 1
 214.5 -202 l 2
 214.5 -206.1393625 211.1393625 -209.5 207 -209.5 c 2
62.5 -194.5 m 1
 199.5 -194.5 l 1
 199.5 -4 l 2
 199.5 0.1393625 202.8606375 3.5 207 3.5 c 0
 207.317651001 3.5 207.630716176 3.48020957118 207.938028736 3.44179550119 c 0
 212.688479343 2.84798917526 220.50548389 2.5 231 2.5 c 0
 300.466664342 2.5 359.197273649 26.8017955239 408.197739062 75.8022609375 c 0
 457.198204476 124.802726351 481.5 183.533335658 481.5 253 c 0
 481.5 322.466595567 457.201038259 381.018906249 408.215518997 429.680018099 c 0
 359.219119896 478.351937736 300.480936228 502.5 231 502.5 c 0
 220.50548389 502.5 212.688479343 502.152010825 207.938028736 501.558204499 c 0
 207.630716176 501.519790429 207.317651001 501.5 207 501.5 c 2
 62.5 501.5 l 1
 62.5 -194.5 l 1
231 366.5 m 0
 262.815447007 366.5 290.265873118 355.338648757 312.302260938 333.302260938 c 0
 334.304101524 311.300420351 345.5 284.196771765 345.5 253 c 0
 345.5 221.184552993 334.338648757 193.734126882 312.302260938 171.697739063 c 0
 290.265873118 149.661351243 262.815447007 138.5 231 138.5 c 0
 222.362197013 138.5 213.744006626 139.581736534 205.177679343 141.723318355 c 0
 201.91772887 142.538305973 199.5 145.489035611 199.5 149 c 2
 199.5 356 l 2
 199.5 359.510964389 201.91772887 362.461694027 205.177679343 363.276681645 c 0
 213.744006626 365.418263466 222.362197013 366.5 231 366.5 c 0
231 153.5 m 0
 259.184552993 153.5 282.400793549 163.005315424 301.697739062 182.302260937 c 0
 320.994684576 201.599206451 330.5 224.815447007 330.5 253 c 0
 330.5 280.469894902 321.02923181 303.366246315 301.697739062 322.697739062 c 0
 282.400793549 341.994684576 259.184552993 351.5 231 351.5 c 0
 225.515329545 351.5 220.019774266 350.990371729 214.5 349.962064118 c 1
 214.5 155.037935882 l 1
 220.019774266 154.009628271 225.515329545 153.5 231 153.5 c 0
EndSplineSet
EndChar

